<svg width="21" height="24" viewBox="0 0 21 24" fill="none" xmlns="http://www.w3.org/2000/svg">
<path d="M11.4005 23.9429L20.1303 18.6633C20.2834 18.5714 20.3753 18.4071 20.3753 18.2289V7.52758C20.3753 7.2352 20.0551 7.05698 19.8072 7.20735L11.083 12.487C10.9327 12.5789 10.8352 12.7432 10.8352 12.9214V23.6254C10.8352 23.9178 11.1527 24.096 11.4033 23.9457L11.4005 23.9429Z" fill="#EF3F24"/>
<path d="M10.4458 11.3591L19.2424 6.03774C19.4819 5.89294 19.4847 5.54208 19.2424 5.39728L10.4625 0.0730961C10.301 -0.0243654 10.0977 -0.0243654 9.93621 0.0730961L1.14518 5.3945C0.905707 5.5393 0.905707 5.89016 1.14518 6.03496L9.92229 11.3564C10.0838 11.4538 10.2871 11.4538 10.4486 11.3564L10.4458 11.3591Z" fill="#EF3F24"/>
<path d="M1.10238 19.1841L8.95499 23.9347C9.21118 24.0906 9.53976 23.904 9.53976 23.6033V14.105C9.53976 13.8042 9.21118 13.6177 8.95499 13.7736L1.10238 18.5241C0.854546 18.6745 0.854546 19.0337 1.10238 19.1841Z" fill="#EF3F24"/>
<path d="M0.587554 17.3185L8.39562 12.6041C8.64345 12.4537 8.64345 12.0945 8.39562 11.9441L0.587554 7.21587C0.331369 7.05993 0 7.24372 0 7.54724V16.9899C0 17.2906 0.328585 17.4772 0.587554 17.3212V17.3185Z" fill="#EF3F24"/>
</svg>
