<svg width="40" height="40" viewBox="0 0 40 40" fill="none" xmlns="http://www.w3.org/2000/svg">
<path fill-rule="evenodd" clip-rule="evenodd" d="M19.3081 2.56104C28.6532 2.56118 36.2298 10.1368 36.23 19.4819C36.2299 23.6603 34.7137 27.484 32.2036 30.436L39.6343 37.8667C40.1221 38.3549 40.1223 39.1462 39.6343 39.6343C39.1462 40.1221 38.3548 40.122 37.8667 39.6343L30.4487 32.2163C27.4721 34.8225 23.5751 36.4037 19.3081 36.4038C9.96304 36.4036 2.3874 28.827 2.38721 19.4819C2.3874 10.1369 9.96304 2.56123 19.3081 2.56104ZM19.3081 5.06104C11.3438 5.06123 4.8874 11.5176 4.88721 19.4819C4.8874 27.4463 11.3438 33.9036 19.3081 33.9038C27.2725 33.9037 33.7298 27.4463 33.73 19.4819C33.7298 11.5175 27.2725 5.06118 19.3081 5.06104Z" fill="#FF7A64"/>
<path d="M15.1783 23.0951H13.1138C13.1138 25.7687 15.6222 27.3481 18.2752 27.6784V29.8049H20.3398V27.6681C22.6624 27.3584 25.5012 26.0268 25.5012 23.0951C25.5012 20.1634 22.6624 18.8317 20.3398 18.522V13.3916C21.7127 13.6393 23.4366 14.3619 23.4366 15.869H25.5012C25.5012 12.9374 22.6624 11.6057 20.3398 11.296V9.15918H18.2752V11.296C15.9526 11.6057 13.1138 12.9374 13.1138 15.869C13.1138 18.8007 15.87 20.1117 18.2752 20.4421V25.5725C16.7784 25.3145 15.1783 24.5196 15.1783 23.0951ZM23.4366 23.0951C23.4366 24.6022 21.7127 25.3248 20.3398 25.5725V20.6176C21.7127 20.8653 23.4366 21.5879 23.4366 23.0951ZM15.1783 15.869C15.1783 14.3619 16.9023 13.6393 18.2752 13.3916V18.3465C16.861 18.0885 15.1783 17.3142 15.1783 15.869Z" fill="#FF7A64"/>
</svg>
