<svg width="40" height="40" viewBox="0 0 40 40" fill="none" xmlns="http://www.w3.org/2000/svg">
<g clip-path="url(#clip0_3015_17933)">
<path d="M37.9675 13.5652C39.043 13.5652 39.8714 14.5131 39.7273 15.5789L37.1306 34.7771C37.105 34.9665 37.0487 35.1449 36.9695 35.3093C36.9536 35.3424 36.9375 35.3752 36.9197 35.407C36.8972 35.447 36.8737 35.4862 36.8484 35.5242C36.8194 35.5677 36.7882 35.6095 36.7556 35.6501C36.6575 35.7723 36.544 35.8811 36.4177 35.9734C36.3334 36.035 36.2436 36.0894 36.1492 36.1355C35.9132 36.2508 35.6488 36.3152 35.3708 36.3152H2.03198C0.956933 36.315 0.128553 35.3669 0.272217 34.3015L2.8689 15.1033C2.98057 14.2776 3.64832 13.6486 4.46362 13.573L4.62866 13.5652H37.9675Z" fill="#FF7A64"/>
<path d="M16.1384 3.6853C16.6381 3.68539 17.1145 3.89603 17.4509 4.26538L20.4333 7.54077C20.7699 7.91047 21.2469 8.12183 21.7468 8.12183H35.1472C36.1279 8.12193 36.9225 8.91654 36.9226 9.89722V11.0652H4.62866C2.55548 11.0653 0.791527 12.5501 0.422607 14.571L0.391357 14.7683L-0.000244141 17.6628V5.46167C-0.000244141 4.48081 0.795262 3.6853 1.77612 3.6853H16.1384Z" fill="#FF7A64"/>
<path fill-rule="evenodd" clip-rule="evenodd" d="M21.0898 17.1355C21.1806 17.1355 21.2601 17.1634 21.3281 17.2185C21.3961 17.2736 21.433 17.3433 21.4395 17.4275L21.7119 19.2175C22.0298 19.3213 22.3219 19.4417 22.5879 19.5779L23.9697 18.5369C24.0281 18.4785 24.1058 18.449 24.2031 18.449C24.2874 18.449 24.3685 18.4818 24.4463 18.5466C25.2827 19.3182 25.8181 19.8691 26.0518 20.2C26.0972 20.2518 26.1201 20.324 26.1201 20.4148C26.12 20.4925 26.0938 20.5672 26.042 20.6384C25.9447 20.7746 25.7792 20.99 25.5459 21.2849C25.3124 21.58 25.1373 21.8093 25.0205 21.9714C25.1891 22.2956 25.3217 22.6134 25.4189 22.9246L27.2002 23.197C27.2844 23.21 27.3525 23.251 27.4043 23.3191C27.4561 23.3871 27.4824 23.4634 27.4824 23.5476V25.7078C27.4824 25.7855 27.4561 25.8601 27.4043 25.9314C27.3525 26.0026 27.2876 26.0443 27.21 26.0574L25.4092 26.3298C25.2859 26.6801 25.16 26.9756 25.0303 27.2156C25.2573 27.5399 25.6043 27.9876 26.0713 28.5583C26.1361 28.6362 26.1689 28.7172 26.1689 28.8015C26.1689 28.8858 26.1394 28.9603 26.0811 29.0251C25.906 29.2651 25.585 29.6155 25.1182 30.0759C24.6511 30.5365 24.3458 30.7673 24.2031 30.7673C24.1253 30.7673 24.041 30.7378 23.9502 30.6794L22.6074 29.6287C22.322 29.7778 22.0265 29.9015 21.7217 29.9988C21.6179 30.8807 21.5238 31.4841 21.4395 31.8083C21.394 31.9896 21.2777 32.0807 21.0898 32.0808H18.9297C18.8389 32.0808 18.7595 32.0529 18.6914 31.9978C18.6234 31.9427 18.5856 31.8731 18.5791 31.7888L18.3066 29.9988C17.989 29.8951 17.6975 29.7745 17.4316 29.6384L16.0596 30.6794C15.9948 30.7378 15.9135 30.7673 15.8164 30.7673C15.7257 30.7673 15.6445 30.7311 15.5732 30.6599C14.756 29.9205 14.2208 29.3754 13.9678 29.0251C13.9224 28.9603 13.8994 28.8858 13.8994 28.8015C13.8994 28.7237 13.9257 28.6492 13.9775 28.5779C14.0748 28.4417 14.2402 28.2255 14.4736 27.9304C14.707 27.6354 14.8823 27.407 14.999 27.2449C14.824 26.9207 14.6904 26.5997 14.5996 26.282L12.8193 26.0193C12.7351 26.0063 12.6671 25.9652 12.6152 25.8972C12.5634 25.8292 12.5371 25.753 12.5371 25.6687V23.5085C12.5371 23.4307 12.5633 23.3563 12.6152 23.2849C12.6671 23.2136 12.7285 23.1709 12.7998 23.158L14.6094 22.8855C14.7002 22.5872 14.8272 22.2892 14.9893 21.991C14.7298 21.6213 14.3827 21.1735 13.9482 20.6482C13.8835 20.5705 13.8507 20.4925 13.8506 20.4148C13.8506 20.3499 13.8801 20.2745 13.9385 20.1902C14.1072 19.9567 14.4265 19.6078 14.8965 19.1443C15.3667 18.6806 15.6737 18.449 15.8164 18.449C15.9006 18.4491 15.9851 18.4819 16.0693 18.5466L17.4121 19.5876C17.6974 19.4385 17.9922 19.3148 18.2969 19.2175C18.4006 18.3355 18.4948 17.7323 18.5791 17.408C18.6245 17.2263 18.7416 17.1355 18.9297 17.1355H21.0898ZM20.0098 22.2332C18.6979 22.2332 17.6348 23.2963 17.6348 24.6082C17.6348 25.92 18.6979 26.9831 20.0098 26.9832C21.3216 26.9832 22.3847 25.92 22.3848 24.6082C22.3848 23.2963 21.3216 22.2332 20.0098 22.2332Z" fill="white"/>
</g>
<defs>
<clipPath id="clip0_3015_17933">
<rect width="40" height="40" fill="white"/>
</clipPath>
</defs>
</svg>
