<svg width="27" height="27" viewBox="0 0 27 27" fill="none" xmlns="http://www.w3.org/2000/svg">
<rect width="27" height="27" rx="13.5" fill="black"/>
<path d="M10.4994 6.35547H16.5006C18.7868 6.35547 20.6443 8.21298 20.6443 10.4992V16.5004C20.6443 17.5993 20.2077 18.6533 19.4306 19.4304C18.6535 20.2075 17.5996 20.644 16.5006 20.644H10.4994C8.21323 20.644 6.35571 18.7865 6.35571 16.5004V10.4992C6.35571 9.40018 6.79228 8.34622 7.56937 7.56913C8.34646 6.79203 9.40043 6.35547 10.4994 6.35547ZM10.3565 7.78433C9.67439 7.78433 9.02021 8.0553 8.53788 8.53763C8.05554 9.01996 7.78457 9.67415 7.78457 10.3563V16.6432C7.78457 18.065 8.9348 19.2152 10.3565 19.2152H16.6435C17.3256 19.2152 17.9798 18.9442 18.4621 18.4619C18.9445 17.9795 19.2154 17.3254 19.2154 16.6432V10.3563C19.2154 8.93456 18.0652 7.78433 16.6435 7.78433H10.3565ZM17.2508 8.85597C17.4876 8.85597 17.7147 8.95006 17.8822 9.11753C18.0497 9.28501 18.1438 9.51216 18.1438 9.74901C18.1438 9.98585 18.0497 10.213 17.8822 10.3805C17.7147 10.548 17.4876 10.642 17.2508 10.642C17.0139 10.642 16.7868 10.548 16.6193 10.3805C16.4518 10.213 16.3577 9.98585 16.3577 9.74901C16.3577 9.51216 16.4518 9.28501 16.6193 9.11753C16.7868 8.95006 17.0139 8.85597 17.2508 8.85597ZM13.5 9.92761C14.4474 9.92761 15.356 10.304 16.0259 10.9739C16.6958 11.6438 17.0721 12.5524 17.0721 13.4998C17.0721 14.4471 16.6958 15.3557 16.0259 16.0256C15.356 16.6955 14.4474 17.0719 13.5 17.0719C12.5526 17.0719 11.644 16.6955 10.9741 16.0256C10.3042 15.3557 9.92786 14.4471 9.92786 13.4998C9.92786 12.5524 10.3042 11.6438 10.9741 10.9739C11.644 10.304 12.5526 9.92761 13.5 9.92761ZM13.5 11.3565C12.9316 11.3565 12.3864 11.5823 11.9845 11.9842C11.5825 12.3862 11.3567 12.9313 11.3567 13.4998C11.3567 14.0682 11.5825 14.6133 11.9845 15.0153C12.3864 15.4172 12.9316 15.643 13.5 15.643C14.0684 15.643 14.6136 15.4172 15.0155 15.0153C15.4175 14.6133 15.6433 14.0682 15.6433 13.4998C15.6433 12.9313 15.4175 12.3862 15.0155 11.9842C14.6136 11.5823 14.0684 11.3565 13.5 11.3565Z" fill="white"/>
</svg>
