<svg width="20" height="20" viewBox="0 0 20 20" fill="none" xmlns="http://www.w3.org/2000/svg">
<path d="M15.3374 10.0004C15.3347 9.16003 15.2446 8.32219 15.0686 7.50042H17.3186C17.2033 7.15742 17.0634 6.82322 16.8999 6.50042H14.8061C14.4127 5.18537 13.8022 3.94536 12.9999 2.83167C12.4874 2.61617 11.953 2.45691 11.4061 2.35667C12.5056 3.53709 13.3351 4.94248 13.8374 6.47542H10.4686V2.25042H9.53112V6.48167H6.16237C6.66562 4.94595 7.49741 3.53831 8.59987 2.35667C8.05538 2.45533 7.52313 2.61249 7.01237 2.82542C6.20683 3.93444 5.59213 5.17018 5.19362 6.48167H3.08737C2.92087 6.81035 2.77882 7.15086 2.66237 7.50042H4.93112C4.75514 8.32219 4.66507 9.16003 4.66237 10.0004C4.66426 10.9196 4.76908 11.8358 4.97487 12.7317H2.76237C2.89096 13.0823 3.04556 13.4228 3.22487 13.7504H5.24362C5.62606 14.9479 6.19333 16.0782 6.92487 17.1004C7.44864 17.325 7.99575 17.4906 8.55612 17.5942C7.53593 16.4816 6.75144 15.1741 6.24987 13.7504H9.53737V17.7129H10.4749V13.7504H13.7499C13.2464 15.1747 12.4598 16.4822 11.4374 17.5942C12.0004 17.487 12.5496 17.3172 13.0749 17.0879C13.8053 16.0695 14.3725 14.9435 14.7561 13.7504H16.7561C16.9346 13.4289 17.0892 13.0946 17.2186 12.7504H14.9999C15.2155 11.8494 15.3287 10.9269 15.3374 10.0004ZM9.53112 12.7317H5.94362C5.50385 11.0115 5.48456 9.21083 5.88737 7.48167H9.53112V12.7317ZM14.0561 12.7317H10.4686V7.50042H14.1124C14.292 8.3215 14.38 9.15995 14.3749 10.0004C14.3807 10.9204 14.2737 11.8377 14.0561 12.7317Z" fill="black"/>
<path d="M10 0C8.02219 0 6.08879 0.586489 4.4443 1.6853C2.79981 2.78412 1.51809 4.3459 0.761209 6.17316C0.00433277 8.00042 -0.1937 10.0111 0.192152 11.9509C0.578004 13.8907 1.53041 15.6725 2.92894 17.0711C4.32746 18.4696 6.10929 19.422 8.0491 19.8078C9.98891 20.1937 11.9996 19.9957 13.8268 19.2388C15.6541 18.4819 17.2159 17.2002 18.3147 15.5557C19.4135 13.9112 20 11.9778 20 10C20 7.34783 18.9464 4.80429 17.0711 2.92893C15.1957 1.05357 12.6522 0 10 0ZM10 18.75C8.26942 18.75 6.57769 18.2368 5.13876 17.2754C3.69983 16.3139 2.57832 14.9473 1.91606 13.3485C1.25379 11.7496 1.08051 9.99029 1.41813 8.29296C1.75575 6.59562 2.58911 5.03652 3.81282 3.81281C5.03653 2.58911 6.59563 1.75575 8.29296 1.41813C9.9903 1.08051 11.7496 1.25379 13.3485 1.91605C14.9473 2.57832 16.3139 3.69983 17.2754 5.13876C18.2368 6.57769 18.75 8.26941 18.75 10C18.75 12.3206 17.8281 14.5462 16.1872 16.1872C14.5462 17.8281 12.3206 18.75 10 18.75Z" fill="black"/>
</svg>
