<svg width="27" height="27" viewBox="0 0 27 27" fill="none" xmlns="http://www.w3.org/2000/svg">
<rect width="27" height="27" rx="13.5" fill="black"/>
<path d="M9.68754 7.67444C9.68735 8.04013 9.54191 8.39077 9.2832 8.64922C9.02449 8.90768 8.6737 9.05277 8.30801 9.05259C7.94232 9.0524 7.59169 8.90696 7.33323 8.64825C7.07478 8.38954 6.92969 8.03875 6.92987 7.67306C6.93005 7.30738 7.0755 6.95674 7.33421 6.69829C7.59292 6.43983 7.9437 6.29474 8.30939 6.29492C8.67508 6.2951 9.02572 6.44055 9.28417 6.69926C9.54262 6.95797 9.68772 7.30875 9.68754 7.67444ZM9.7289 10.0736H6.97124V18.7051H9.7289V10.0736ZM14.086 10.0736H11.3421V18.7051H14.0584V14.1756C14.0584 11.6524 17.3469 11.418 17.3469 14.1756V18.7051H20.0701V13.238C20.0701 8.98433 15.2029 9.1429 14.0584 11.2318L14.086 10.0736Z" fill="white"/>
</svg>
