<svg width="40" height="40" viewBox="0 0 40 40" fill="none" xmlns="http://www.w3.org/2000/svg">
<path fill-rule="evenodd" clip-rule="evenodd" d="M18.4395 1.31542C18.5148 1.30923 18.5811 1.33257 18.6397 1.38964C18.7023 1.45105 18.75 1.54834 18.75 1.66698V7.87206C18.7499 7.97772 18.71 8.09048 18.6065 8.19921C18.4975 8.31345 18.3317 8.40532 18.1426 8.43554C12.5571 9.32648 8.28929 14.1637 8.28907 20L8.292 20.3027C8.45279 26.6306 13.6334 31.7119 20 31.7119C25.791 31.7117 30.5403 27.3056 31.5234 21.8369C31.5565 21.653 31.6482 21.4934 31.7608 21.3887C31.8681 21.2888 31.9789 21.2501 32.083 21.25H38.333C38.4517 21.2501 38.549 21.2976 38.6104 21.3603C38.6672 21.4189 38.6908 21.4853 38.6846 21.5605C38.4207 24.7185 37.3598 27.768 35.5899 30.417C33.5296 33.5003 30.6016 35.9041 27.1758 37.3232C23.7499 38.7423 19.9789 39.113 16.3418 38.3896C12.7052 37.6662 9.36422 35.8805 6.7422 33.2588C4.12014 30.6366 2.33387 27.295 1.61036 23.6582C0.886973 20.0213 1.25872 16.2512 2.67775 12.8252C4.09695 9.39905 6.49981 6.4703 9.58302 4.41015C12.2321 2.6401 15.2814 1.57922 18.4395 1.31542Z" fill="#FF7A64"/>
<path d="M21.5635 1.31445C30.6708 2.06559 37.9342 9.32928 38.6855 18.4365C38.6918 18.5124 38.668 18.5793 38.6104 18.6387C38.5485 18.7022 38.4514 18.75 38.333 18.75H32.1279C32.0226 18.75 31.9097 18.7099 31.7988 18.6045C31.6825 18.4938 31.5881 18.3257 31.5557 18.1328C30.7272 13.2107 26.7104 9.35263 21.8359 8.47656C21.6522 8.44343 21.4933 8.35172 21.3887 8.23925C21.289 8.13193 21.25 8.02109 21.25 7.91699V1.66699C21.2501 1.5488 21.2978 1.45146 21.3613 1.38964C21.4207 1.33198 21.4876 1.3082 21.5635 1.31445Z" fill="#FF7A64"/>
</svg>
