<svg width="32" height="32" viewBox="0 0 32 32" fill="none" xmlns="http://www.w3.org/2000/svg">
<rect width="32" height="32" rx="6.66667" fill="#0061D5"/>
<path d="M27.1447 19.752C27.4276 20.148 27.371 20.6572 27.0316 20.94C26.6356 21.2229 26.0699 21.1663 25.787 20.8269L23.807 18.2811L21.8835 20.7703C21.6007 21.1663 21.0349 21.1663 20.6389 20.8835C20.2429 20.6006 20.1863 20.0914 20.4692 19.6954L22.7321 16.7537L20.4692 13.8119C20.1863 13.4159 20.2995 12.8502 20.6389 12.5673C21.0349 12.2845 21.6007 12.3976 21.8835 12.7371L23.807 15.2828L25.787 12.8502C26.0699 12.4542 26.579 12.3976 27.0316 12.6805C27.4276 12.9633 27.4276 13.5291 27.1447 13.9251L24.9384 16.8103L27.1447 19.752ZM16.8486 19.4126C15.3777 19.4126 14.1897 18.2811 14.1897 16.8103C14.1897 15.3959 15.3777 14.2079 16.8486 14.2079C18.3195 14.2079 19.5075 15.3959 19.5075 16.8103C19.4509 18.2811 18.2629 19.4126 16.8486 19.4126ZM9.04161 19.4126C7.57073 19.4126 6.38271 18.2811 6.38271 16.8103C6.38271 15.3959 7.57073 14.2079 9.04161 14.2079C10.5125 14.2079 11.7005 15.3959 11.7005 16.8103C11.7005 18.2811 10.5125 19.4126 9.04161 19.4126ZM16.8486 12.5108C15.208 12.5108 13.7371 13.4159 13.0017 14.7737C12.2662 13.4159 10.7954 12.5108 9.09818 12.5108C8.07988 12.5108 7.17473 12.8502 6.43929 13.3593V9.73872C6.43929 9.28614 6.04328 8.89014 5.5907 8.89014C5.08155 8.89014 4.68555 9.28614 4.68555 9.73872V16.8668C4.74212 19.2429 6.66558 21.1097 9.04161 21.1097C10.7388 21.1097 12.2097 20.148 12.9451 18.7903C13.6805 20.148 15.1514 21.1097 16.792 21.1097C19.2246 21.1097 21.2046 19.1863 21.2046 16.7537C21.2612 14.4342 19.2812 12.5108 16.8486 12.5108Z" fill="white"/>
</svg>
