<svg width="32" height="32" viewBox="0 0 32 32" fill="none" xmlns="http://www.w3.org/2000/svg">
<g clip-path="url(#clip0_5055_904)">
<path d="M9.31743 5.38136L0.0814323 23.7574C-0.00986318 23.9397 -0.0250538 24.1508 0.0391978 24.3443C0.103449 24.5378 0.241888 24.6979 0.424099 24.7894L5.40143 27.2907C5.49169 27.3362 5.59002 27.3634 5.6908 27.3708C5.79159 27.3783 5.89285 27.3658 5.98881 27.3341C6.08477 27.3024 6.17355 27.2521 6.25007 27.1861C6.32658 27.1201 6.38935 27.0396 6.43477 26.9494L15.6694 8.57336C15.7148 8.48303 15.742 8.38462 15.7494 8.28378C15.7567 8.18294 15.7441 8.08164 15.7123 7.98567C15.6805 7.8897 15.63 7.80094 15.5639 7.72447C15.4977 7.64801 15.4172 7.58533 15.3268 7.54003L10.3494 5.04003C10.2592 4.99447 10.1609 4.96719 10.0601 4.95976C9.95934 4.95233 9.85808 4.9649 9.76217 4.99674C9.66626 5.02859 9.57759 5.07908 9.50127 5.14532C9.42494 5.21156 9.36247 5.29223 9.31743 5.3827V5.38136Z" fill="url(#paint0_linear_5055_904)"/>
<path d="M25.66 5.10938H31.232C31.656 5.10938 32.0013 5.45604 32.0013 5.87871V26.4454C32.0013 26.6495 31.9203 26.8454 31.776 26.9898C31.6318 27.1343 31.4361 27.2157 31.232 27.216H25.66C25.4558 27.2157 25.2601 27.1343 25.1159 26.9898C24.9716 26.8454 24.8906 26.6495 24.8906 26.4454V5.88004C24.8906 5.45604 25.236 5.10938 25.66 5.10938Z" fill="url(#paint1_linear_5055_904)"/>
<path d="M17.0878 5.44664L13.1345 25.4773C13.0948 25.6771 13.1362 25.8845 13.2495 26.0537C13.3628 26.223 13.5387 26.3404 13.7385 26.38L19.1985 27.4813C19.6171 27.5653 20.0251 27.2946 20.1065 26.876L24.0585 6.84664C24.0977 6.64689 24.0562 6.43972 23.9429 6.27053C23.8297 6.10133 23.6541 5.98391 23.4545 5.94398L17.9931 4.84131C17.8938 4.82132 17.7916 4.82113 17.6922 4.84075C17.5928 4.86037 17.4983 4.89943 17.4141 4.95567C17.3298 5.01191 17.2575 5.08424 17.2013 5.16849C17.1451 5.25274 17.1074 5.34727 17.0878 5.44664Z" fill="url(#paint2_linear_5055_904)"/>
</g>
<defs>
<linearGradient id="paint0_linear_5055_904" x1="1.99877" y1="25.9999" x2="15.9988" y2="-0.000132366" gradientUnits="userSpaceOnUse">
<stop stop-color="#FF00FF"/>
<stop offset="0.17" stop-color="#E90CF9"/>
<stop offset="0.54" stop-color="#C023ED"/>
<stop offset="0.73" stop-color="#B02DE9"/>
<stop offset="1" stop-color="#B02DE9"/>
</linearGradient>
<linearGradient id="paint1_linear_5055_904" x1="-4.19617e-05" y1="32" x2="32" y2="4.19617e-05" gradientUnits="userSpaceOnUse">
<stop stop-color="#B02DE9"/>
<stop offset="0.02" stop-color="#B02DE9"/>
<stop offset="0.8" stop-color="#6D00CC"/>
<stop offset="1" stop-color="#6D00CC"/>
</linearGradient>
<linearGradient id="paint2_linear_5055_904" x1="0.00111723" y1="32" x2="32.0011" y2="-1.76431e-05" gradientUnits="userSpaceOnUse">
<stop stop-color="#FF00FF"/>
<stop offset="0.02" stop-color="#FF00FF"/>
<stop offset="0.09" stop-color="#E90CF9"/>
<stop offset="0.23" stop-color="#C023ED"/>
<stop offset="0.3" stop-color="#B02DE9"/>
<stop offset="0.42" stop-color="#A42BE3"/>
<stop offset="0.63" stop-color="#8626D5"/>
<stop offset="0.85" stop-color="#6021C3"/>
<stop offset="1" stop-color="#6021C3"/>
</linearGradient>
<clipPath id="clip0_5055_904">
<rect width="32" height="32" fill="white"/>
</clipPath>
</defs>
</svg>
