<svg width="32" height="32" viewBox="0 0 32 32" fill="none" xmlns="http://www.w3.org/2000/svg">
<rect width="32" height="32" rx="6.67" fill="#99CCEE"/>
<path fill-rule="evenodd" clip-rule="evenodd" d="M6.01507 12.813C6.96031 12.813 7.80928 13.2247 8.39292 13.8784C8.76176 14.2915 9.02441 14.8013 9.13843 15.365C9.43276 13.9091 10.7194 12.813 12.2621 12.813C13.8049 12.813 15.0916 13.9095 15.3857 15.3656V12.813L18.5726 15.9999L21.7688 12.813V15.3656C22.0629 13.9094 23.3496 12.813 24.8924 12.813H24.9108C24.9246 12.813 24.9384 12.8137 24.9522 12.8139C24.9767 12.8143 25.0012 12.8146 25.0256 12.8156C26.7325 12.876 28.0977 14.2782 28.0977 15.9999C28.0977 17.7215 26.7325 19.1234 25.0256 19.1838C25.0012 19.1848 24.9767 19.1851 24.9522 19.1856C24.9384 19.1857 24.9246 19.1867 24.9108 19.1867C24.9083 19.1867 24.9057 19.1864 24.9032 19.1864C24.8996 19.1864 24.896 19.1867 24.8924 19.1867C23.3496 19.1867 22.0629 18.0903 21.7688 16.6341V19.1867H20.6941V15.3752L18.5726 17.506L16.4418 15.3752V19.1867H15.3857V16.6341C15.0916 18.0903 13.8049 19.1867 12.2621 19.1867C10.7194 19.1867 9.43273 18.0906 9.13843 16.6347C9.02439 17.1984 8.76175 17.7082 8.39292 18.1213C7.80928 18.775 6.96028 19.1867 6.01507 19.1867H3.90234V12.813H6.01507ZM12.2621 13.8734C11.0876 13.8734 10.1357 14.8255 10.1357 15.9999C10.1357 17.1743 11.0877 18.1263 12.2621 18.1263C13.4365 18.1263 14.3888 17.1743 14.3888 15.9999C14.3888 14.8254 13.4365 13.8734 12.2621 13.8734ZM24.8924 13.8734C23.718 13.8734 22.7657 14.8254 22.7657 15.9999C22.7657 17.1743 23.718 18.1263 24.8924 18.1263C26.0668 18.1262 27.0188 17.1743 27.0189 15.9999C27.0189 14.8254 26.0668 13.8735 24.8924 13.8734ZM4.95842 13.8784V18.1213H6.15346C7.26333 18.05 8.14149 17.1278 8.1415 15.9999C8.1415 14.8722 7.2638 13.9502 6.15433 13.8784H4.95842Z" fill="white"/>
</svg>
