<svg width="32" height="32" viewBox="0 0 32 32" fill="none" xmlns="http://www.w3.org/2000/svg">
<g clip-path="url(#clip0_5055_883)">
<rect width="32" height="32" rx="5.12" fill="#FF4F00"/>
<path d="M4.96263 17.4037L4.95824 17.3898L7.72808 14.8541V13.6323H3.28434V14.8541H5.93859L5.94297 14.8658L3.2002 17.4037V18.6255H7.77271V17.4037H4.96263Z" fill="white"/>
<path d="M10.5004 13.5161C9.98784 13.5161 9.57009 13.5934 9.24721 13.748C8.94643 13.8828 8.69308 14.1048 8.52 14.3852C8.35443 14.6676 8.25045 14.9817 8.21492 15.3071L9.56326 15.4966C9.61203 15.2093 9.70959 15.0056 9.85591 14.8857C10.0222 14.7602 10.2272 14.6968 10.4353 14.7064C10.709 14.7064 10.9075 14.7796 11.0308 14.9259C11.1531 15.0722 11.2152 15.2749 11.2152 15.5419V15.6751H9.91883C9.25892 15.6751 8.78484 15.8214 8.49659 16.114C8.20834 16.4067 8.06446 16.793 8.06494 17.2729C8.06494 17.7645 8.20882 18.1303 8.49659 18.3703C8.78435 18.6102 9.14626 18.7295 9.58228 18.728C10.1232 18.728 10.5393 18.542 10.8304 18.1698C11.0024 17.9411 11.1252 17.6793 11.1911 17.4009H11.2401L11.4259 18.6227H12.6477V15.5287C12.6477 14.8893 12.4792 14.394 12.1422 14.0429C11.8051 13.6917 11.2578 13.5161 10.5004 13.5161ZM10.9277 17.3299C10.7338 17.4916 10.4799 17.5721 10.1639 17.5721C9.90345 17.5721 9.7225 17.5265 9.62106 17.4353C9.57163 17.3921 9.53231 17.3386 9.50589 17.2786C9.47946 17.2185 9.46658 17.1534 9.46816 17.0878C9.46528 17.0259 9.47501 16.9641 9.49677 16.9061C9.51852 16.8482 9.55185 16.7952 9.59473 16.7505C9.64109 16.707 9.6958 16.6734 9.75552 16.6516C9.81525 16.6299 9.87877 16.6205 9.94223 16.6239H11.2174V16.7081C11.22 16.827 11.1952 16.9449 11.145 17.0528C11.0948 17.1606 11.0205 17.2554 10.9277 17.3299Z" fill="white"/>
<path d="M20.0357 13.6323H18.5923V18.6262H20.0357V13.6323Z" fill="white"/>
<path d="M28.5581 13.6323C28.1504 13.6323 27.8289 13.7762 27.5938 14.064C27.4251 14.2708 27.2969 14.5763 27.2091 14.9807H27.1666L26.9779 13.6323H25.7451V18.6255H27.1886V16.0649C27.1886 15.742 27.2642 15.4945 27.4154 15.3223C27.5666 15.1502 27.8456 15.0641 28.2523 15.0641H28.8002V13.6323H28.5581Z" fill="white"/>
<path d="M24.3121 13.7956C23.9752 13.5951 23.5501 13.4951 23.037 13.4956C22.2293 13.4956 21.5972 13.7256 21.1407 14.1855C20.6841 14.6454 20.4559 15.2795 20.4559 16.0877C20.4443 16.5763 20.551 17.0605 20.7669 17.4989C20.9645 17.8897 21.2722 18.214 21.6521 18.4317C22.0344 18.6527 22.4892 18.7634 23.0166 18.7639C23.4726 18.7639 23.8535 18.6936 24.1593 18.5532C24.4468 18.427 24.6971 18.2293 24.8865 17.9789C25.0668 17.733 25.2007 17.4563 25.2815 17.1624L24.0379 16.8141C23.9855 17.0053 23.8847 17.1797 23.7453 17.3204C23.6047 17.4609 23.3693 17.5311 23.0392 17.5311C22.6466 17.5311 22.3539 17.4187 22.1613 17.1939C22.0215 17.0314 21.9337 16.7995 21.895 16.4988H25.3006C25.3145 16.3584 25.3218 16.2406 25.3218 16.1455V15.8345C25.33 15.4168 25.2438 15.0027 25.0694 14.623C24.9062 14.2772 24.6422 13.9887 24.3121 13.7956ZM22.9953 14.6859C23.5806 14.6859 23.9124 14.9739 23.991 15.5499H21.9206C21.9534 15.3578 22.0331 15.1766 22.1525 15.0225C22.3423 14.7976 22.6231 14.6854 22.9953 14.6859Z" fill="white"/>
<path d="M19.3292 11.6196C19.2206 11.6159 19.1124 11.6341 19.0109 11.6731C18.9095 11.712 18.817 11.771 18.7388 11.8464C18.6618 11.9226 18.6013 12.0139 18.5614 12.1147C18.5215 12.2154 18.5029 12.3234 18.5069 12.4317C18.503 12.5407 18.5216 12.6493 18.5616 12.7508C18.6015 12.8523 18.662 12.9445 18.7391 13.0216C18.8163 13.0986 18.9085 13.159 19.01 13.1989C19.1116 13.2387 19.2202 13.2573 19.3292 13.2533C19.4375 13.2574 19.5455 13.2389 19.6462 13.1989C19.747 13.159 19.8384 13.0985 19.9145 13.0214C19.9901 12.9434 20.0489 12.851 20.0878 12.7496C20.1267 12.6483 20.1446 12.5401 20.1406 12.4317C20.1456 12.3239 20.1281 12.2162 20.089 12.1156C20.05 12.0149 19.9906 11.9235 19.9143 11.8471C19.838 11.7708 19.7466 11.7112 19.646 11.6721C19.5455 11.6331 19.4378 11.6154 19.3299 11.6203L19.3292 11.6196Z" fill="white"/>
<path d="M16.3478 13.4956C15.8561 13.4956 15.461 13.65 15.1626 13.9587C14.9416 14.1875 14.7794 14.5289 14.6761 14.983H14.63L14.4412 13.6346H13.2085V20.061H14.6519V17.4141H14.7046C14.7486 17.5906 14.8104 17.7621 14.8889 17.9262C15.0111 18.1934 15.2113 18.4174 15.4633 18.5685C15.7245 18.7111 16.0188 18.782 16.3163 18.7741C16.9207 18.7741 17.3807 18.5388 17.6968 18.0681C18.0128 17.5975 18.1709 16.9407 18.1709 16.0979C18.1709 15.2839 18.018 14.6467 17.7123 14.1862C17.4064 13.7258 16.9516 13.4956 16.3478 13.4956ZM16.4941 17.1141C16.3258 17.358 16.0624 17.4799 15.7039 17.4799C15.5562 17.4867 15.4088 17.4582 15.2743 17.3968C15.1396 17.3353 15.0215 17.2427 14.93 17.1265C14.7431 16.892 14.65 16.5708 14.6505 16.163V16.0679C14.6505 15.6538 14.7436 15.3368 14.93 15.1168C15.1162 14.8969 15.3743 14.7881 15.7039 14.7905C16.0688 14.7905 16.3338 14.9064 16.4992 15.138C16.6646 15.3697 16.7472 15.6928 16.7472 16.1074C16.7482 16.5361 16.6643 16.8717 16.4955 17.1141H16.4941Z" fill="white"/>
</g>
<defs>
<clipPath id="clip0_5055_883">
<rect width="32" height="32" fill="white"/>
</clipPath>
</defs>
</svg>
