<svg width="32" height="32" viewBox="0 0 32 32" fill="none" xmlns="http://www.w3.org/2000/svg">
<rect x="1.39639" y="1.39688" width="29.2062" height="29.2062" rx="6.58529" fill="white"/>
<rect x="1.39639" y="1.39688" width="29.2062" height="29.2062" rx="6.58529" stroke="#FF7A00" stroke-width="2.79376"/>
<path d="M7.11955 25.1464H11.078C11.2251 25.1464 11.3445 25.0271 11.3445 24.8799V11.3409C11.3445 11.1938 11.4639 11.0744 11.611 11.0744H20.388C20.5351 11.0744 20.6545 11.1938 20.6545 11.3409V15.7335C20.6545 15.8806 20.5351 16 20.388 16H16.266C16.1189 16 15.9995 16.1194 15.9995 16.2665V19.0887C15.9995 19.4538 16.101 19.812 16.2923 20.123L16.3525 20.2209L19.3069 25.0198C19.3555 25.0986 19.4413 25.1464 19.534 25.1464H23.5936C23.802 25.1464 23.9298 24.9179 23.8206 24.7401L21.1572 20.414C21.0934 20.3103 21.1324 20.1742 21.2416 20.1205L23.2442 19.1307C24.4088 18.5553 25.146 17.3684 25.146 16.0693V9.84112C25.146 8.19087 23.8082 6.85352 22.1583 6.85352H9.84063C8.19075 6.85352 6.85303 8.19124 6.85303 9.84112V24.8799C6.85303 25.0271 6.97241 25.1464 7.11955 25.1464Z" fill="#0684BC"/>
</svg>
