<svg width="32" height="32" viewBox="0 0 32 32" fill="none" xmlns="http://www.w3.org/2000/svg">
<g clip-path="url(#clip0_5055_1093)">
<path d="M10.7775 15.937C10.7826 16.1541 10.7544 16.3739 10.6867 16.5873C10.5437 17.051 10.2332 17.4639 9.77571 17.727L2.99642 21.6443C2.03947 22.195 0.819366 21.8691 0.269962 20.916C-0.283369 19.9577 0.0426226 18.739 0.999574 18.1856L4.78787 16.001L0.999574 13.8098C0.0426226 13.2576 -0.284525 12.0389 0.269962 11.0845C0.819366 10.129 2.03947 9.80157 2.99642 10.3524L9.77571 14.267C10.2523 14.5417 10.5705 14.9775 10.7047 15.4657C10.7493 15.6228 10.7696 15.7799 10.7775 15.937Z" fill="#29B5E8"/>
<path d="M11.3678 20.5161C11.7319 20.304 12.1369 20.2222 12.5264 20.2555C13.5589 20.3294 14.374 21.1933 14.374 22.2447V30.0768C14.374 31.1807 13.4783 32.0751 12.3783 32.0751C11.2731 32.0751 10.3801 31.1807 10.3801 30.0768V25.6957L6.5791 27.8882C5.62607 28.4427 4.40713 28.1144 3.85379 27.1612C3.303 26.2054 3.629 24.9802 4.58341 24.4282L11.3678 20.5161Z" fill="#29B5E8"/>
<path d="M20.6307 11.4831C20.2666 11.6926 19.8627 11.7755 19.4744 11.7437C18.4396 11.6672 17.6268 10.8022 17.6268 9.7519V1.91978C17.6268 0.818657 18.5174 -0.0756836 19.6227 -0.0756836C20.7277 -0.0756836 21.6209 0.818657 21.6209 1.91978V6.3023L25.4192 4.10723C26.3738 3.55528 27.5939 3.88243 28.1445 4.83684C28.6939 5.79494 28.3695 7.01505 27.4137 7.56722L20.6307 11.4831Z" fill="#29B5E8"/>
<path d="M11.3678 11.4831L4.58341 7.56722C3.629 7.01505 3.303 5.79494 3.85379 4.83684C4.40713 3.88243 5.62607 3.55528 6.5791 4.10723L10.3801 6.3023V1.91978C10.3801 0.818657 11.2731 -0.0756836 12.3783 -0.0756836C13.4783 -0.0756836 14.374 0.818657 14.374 1.91978V9.7519C14.374 10.8022 13.5589 11.6672 12.5264 11.7437C12.1369 11.7755 11.7319 11.6926 11.3678 11.4831Z" fill="#29B5E8"/>
<path d="M20.6307 20.5161L27.4137 24.4282C28.3695 24.9802 28.6939 26.2054 28.1445 27.1612C27.5939 28.1144 26.3736 28.4427 25.4192 27.8882L21.6209 25.6957V30.0768C21.6209 31.1807 20.7277 32.0751 19.6227 32.0751C18.5174 32.0751 17.6268 31.1807 17.6268 30.0768V22.2447C17.6268 21.1933 18.4396 20.3294 19.4744 20.2555C19.8627 20.2222 20.2666 20.304 20.6307 20.5161Z" fill="#29B5E8"/>
<path d="M27.2118 16.001L31.0001 13.8098C31.957 13.2576 32.2842 12.0389 31.7308 11.0845C31.1789 10.129 29.9576 9.80157 29.0044 10.3524L22.22 14.267C21.7487 14.542 21.4306 14.9775 21.2949 15.4657C21.2515 15.6228 21.2286 15.7799 21.2247 15.937C21.2171 16.1541 21.2478 16.3739 21.3141 16.5873C21.4534 17.051 21.7676 17.4639 22.22 17.727L29.0044 21.6443C29.9576 22.195 31.1789 21.8691 31.7308 20.916C32.2842 19.9577 31.957 18.739 31.0001 18.1856L27.2118 16.001Z" fill="#29B5E8"/>
<path fill-rule="evenodd" clip-rule="evenodd" d="M16.4128 12.2652C16.5278 12.2652 16.6863 12.3301 16.7669 12.413L19.5866 15.2295C19.6669 15.3099 19.7322 15.4692 19.7323 15.5842V16.415C19.7323 16.5273 19.667 16.6868 19.5866 16.766L16.7669 19.5825C16.6863 19.6654 16.5303 19.7329 16.4128 19.7329H15.5836C15.4697 19.7328 15.3117 19.6653 15.2299 19.5825L12.4113 16.766C12.3308 16.6867 12.2657 16.5272 12.2656 16.415V15.5842C12.2657 15.4692 12.3308 15.3099 12.4113 15.2295L15.2299 12.413C15.3117 12.3302 15.4697 12.2653 15.5836 12.2652H16.4128ZM15.9826 14.6684C15.8689 14.6684 15.7103 14.7348 15.6311 14.8152L14.815 15.628C14.7333 15.7123 14.6704 15.8706 14.6704 15.9843V16.016C14.6704 16.1285 14.7333 16.2857 14.815 16.3675L15.6311 17.183C15.7115 17.2634 15.8689 17.3297 15.9826 17.3297H16.0143C16.1282 17.3297 16.287 17.2634 16.3674 17.183L17.1834 16.3675C17.2638 16.2857 17.3328 16.1285 17.3328 16.016V15.9843C17.3328 15.8706 17.2638 15.7123 17.1834 15.628L16.3674 14.8152C16.287 14.7348 16.1282 14.6684 16.0143 14.6684H15.9826Z" fill="#29B5E8"/>
</g>
<defs>
<clipPath id="clip0_5055_1093">
<rect width="32" height="32" fill="white"/>
</clipPath>
</defs>
</svg>
