<svg width="32" height="32" viewBox="0 0 32 32" fill="none" xmlns="http://www.w3.org/2000/svg">
<g clip-path="url(#clip0_5055_945)">
<path d="M6.74367 20.1477C6.74367 22.0064 5.24212 23.4967 3.3947 23.4967C1.54728 23.4967 0.0344724 21.9951 0.0344724 20.1477C0.0344724 18.3002 1.53603 16.7987 3.38345 16.7987H6.73241V20.1477H6.74367Z" fill="#E01E5A"/>
<path d="M8.41278 20.148C8.41278 18.2893 9.91435 16.799 11.7618 16.799C13.6092 16.799 15.1107 18.3006 15.1107 20.148V28.5247C15.1107 30.3833 13.6092 31.8736 11.7618 31.8736C9.91435 31.8736 8.41278 30.3833 8.41278 28.5247V20.148Z" fill="#E01E5A"/>
<path d="M11.7729 6.67693C9.91414 6.67693 8.42389 5.1754 8.42389 3.32798C8.42389 1.48056 9.9254 -0.0209961 11.7729 -0.0209961C13.6203 -0.0209961 15.1218 1.48056 15.1218 3.32798V6.67693H11.7729Z" fill="#36C5F0"/>
<path d="M11.774 8.37537C13.6327 8.37537 15.123 9.87694 15.123 11.7243C15.123 13.5718 13.6214 15.0733 11.774 15.0733H3.36363C1.50496 15.0733 0.0146484 13.5718 0.0146484 11.7243C0.0146484 9.87694 1.51621 8.37537 3.36363 8.37537H11.774Z" fill="#36C5F0"/>
<path d="M25.2045 11.7246C25.2045 9.86594 26.7061 8.37563 28.5535 8.37563C30.4009 8.37563 31.9025 9.8772 31.9025 11.7246C31.9025 13.572 30.4009 15.0736 28.5535 15.0736H25.2045V11.7246Z" fill="#2EB67D"/>
<path d="M23.5338 11.7294C23.5338 13.5881 22.0322 15.0784 20.1848 15.0784C18.3373 15.0784 16.8358 13.5769 16.8358 11.7294V3.33031C16.8358 1.47164 18.3373 -0.0186683 20.1848 -0.0186683C22.0322 -0.0186683 23.5338 1.47164 23.5338 3.33031V11.7294Z" fill="#2EB67D"/>
<path d="M20.171 25.1746C22.0297 25.1746 23.52 26.6761 23.52 28.5235C23.52 30.3709 22.0185 31.8725 20.171 31.8725C18.3236 31.8725 16.822 30.3709 16.822 28.5235V25.1746H20.171Z" fill="#ECB22E"/>
<path d="M20.171 23.4967C18.3123 23.4967 16.822 21.9951 16.822 20.1477C16.822 18.3003 18.3236 16.7987 20.171 16.7987H28.5814C30.44 16.7987 31.9303 18.3003 31.9303 20.1477C31.9303 21.9951 30.4288 23.4967 28.5814 23.4967H20.171Z" fill="#ECB22E"/>
</g>
<defs>
<clipPath id="clip0_5055_945">
<rect width="32" height="32" fill="white"/>
</clipPath>
</defs>
</svg>
