<svg width="32" height="32" viewBox="0 0 32 32" fill="none" xmlns="http://www.w3.org/2000/svg">
<rect width="32" height="32" rx="6.66667" fill="black"/>
<path d="M14.7236 3.94782C12.0836 3.94782 9.73822 5.64515 8.92089 8.15182L8.62622 9.87315V15.5785C8.62622 15.8638 8.77289 16.1172 9.01822 16.2638L13.6116 18.9107V11.0705H13.6129V10.6985L18.2622 8.01315C18.7118 7.75289 19.2014 7.57506 19.7085 7.48211L19.2609 5.96382C18.1062 4.67315 16.4542 3.93982 14.7236 3.94782ZM14.7236 5.51449L14.7156 5.52249C15.7782 5.52249 16.7996 5.88915 17.6169 6.56782C17.5836 6.58382 17.5182 6.62515 17.4702 6.64915L12.6636 9.41715C12.4182 9.55582 12.2716 9.81715 12.2716 10.1025V16.5998L10.2036 15.4078V10.0372C10.2022 7.5425 12.2249 5.51849 14.7236 5.51449Z" fill="white"/>
<path d="M25.7989 8.86878C24.4789 6.58248 21.8363 5.40002 19.2568 5.94552L17.6188 6.551L12.6778 9.40366C12.4307 9.54633 12.2846 9.80001 12.2803 10.0858L12.2847 15.3872L19.0745 11.4671L19.0752 11.4682L19.3973 11.2822L24.0476 13.966C24.4977 14.2252 24.8966 14.5603 25.2306 14.953L26.3217 13.8062C26.8621 12.1609 26.6712 10.3636 25.7989 8.86878ZM24.4421 9.65211L24.4312 9.64918C24.9625 10.5695 25.1557 11.6373 24.9766 12.6845C24.9461 12.6636 24.8776 12.6277 24.8328 12.5981L20.0323 9.81943C19.7896 9.6763 19.4899 9.67995 19.2428 9.82261L13.616 13.0713L13.6143 10.6843L18.2654 7.99901C20.4252 6.75053 23.1894 7.49021 24.4421 9.65211Z" fill="white"/>
<path d="M27.0749 20.9208C28.3949 18.6345 28.0976 15.7547 26.3355 13.7935L24.9921 12.6777L20.0511 9.825C19.804 9.68233 19.5113 9.68268 19.2616 9.82182L14.6727 12.4763L21.4625 16.3964L21.4618 16.3976L21.784 16.5836L21.7849 21.9527C21.7855 22.4721 21.6947 22.9851 21.5216 23.4707L23.0603 23.8422C24.7554 23.4876 26.2165 22.4236 27.0749 20.9208ZM25.7181 20.1374L25.7152 20.1265C25.1839 21.0468 24.3556 21.748 23.3592 22.1165C23.362 22.0796 23.3589 22.0024 23.3621 21.9488L23.3683 16.4021C23.3709 16.1203 23.2179 15.8626 22.9708 15.72L17.3439 12.4713L19.4102 11.2763L24.0614 13.9617C26.2225 15.2078 26.964 17.9715 25.7181 20.1374Z" fill="white"/>
<path d="M17.2755 28.0518C19.9155 28.0518 22.2608 26.3545 23.0782 23.8478L23.3728 22.1265V16.4212C23.3728 16.1358 23.2262 15.8825 22.9808 15.7358L18.3875 13.089V20.9292H18.3862V21.3012L13.7368 23.9865C13.2873 24.2468 12.7976 24.4246 12.2906 24.5175L12.7382 26.0358C13.8928 27.3265 15.5448 28.0598 17.2755 28.0518ZM17.2755 26.4852L17.2835 26.4772C16.2208 26.4772 15.1995 26.1105 14.3822 25.4318C14.4155 25.4158 14.4808 25.3745 14.5288 25.3505L19.3355 22.5825C19.5808 22.4438 19.7275 22.1825 19.7275 21.8972V15.3998L21.7955 16.5918V21.9625C21.7968 24.4571 19.7742 26.4812 17.2755 26.4852Z" fill="white"/>
<path d="M6.20014 23.1309C7.52013 25.4172 10.1627 26.5996 12.7422 26.0541L14.3803 25.4486L19.3213 22.596C19.5684 22.4533 19.7144 22.1996 19.7188 21.9138L19.7144 16.6125L12.9245 20.5326L12.9239 20.5314L12.6017 20.7174L7.95148 18.0336C7.50132 17.7745 7.10248 17.4393 6.76846 17.0466L5.67738 18.1934C5.13696 19.8387 5.32787 21.6361 6.20014 23.1309ZM7.55691 22.3475L7.56784 22.3505C7.03651 21.4302 6.84338 20.3623 7.02246 19.3152C7.05298 19.336 7.12144 19.3719 7.16623 19.4015L11.9667 22.1802C12.2095 22.3233 12.5091 22.3197 12.7562 22.177L18.3831 18.9284L18.3848 21.3153L13.7337 24.0006C11.5739 25.2491 8.8097 24.5094 7.55691 22.3475Z" fill="white"/>
<path d="M4.92416 11.0789C3.60417 13.3652 3.90143 16.245 5.6636 18.2061L7.00698 19.322L11.9479 22.1746C12.1951 22.3173 12.4878 22.317 12.7375 22.1778L17.3264 19.5233L10.5366 15.6032L10.5372 15.6021L10.2151 15.4161L10.2142 10.047C10.2135 9.52752 10.3044 9.01454 10.4774 8.52893L8.93874 8.15742C7.24365 8.51206 5.78257 9.57606 4.92416 11.0789ZM6.28094 11.8622L6.28386 11.8731C6.81519 10.9528 7.64341 10.2517 8.63981 9.88316C8.637 9.92003 8.64013 9.99728 8.63692 10.0508L8.63074 15.5975C8.62817 15.8793 8.78115 16.137 9.02826 16.2797L14.6551 19.5284L12.5888 20.7233L7.93768 18.038C5.77658 16.7918 5.03507 14.0281 6.28094 11.8622Z" fill="white"/>
</svg>
