<svg width="32" height="32" viewBox="0 0 32 32" fill="none" xmlns="http://www.w3.org/2000/svg">
<g clip-path="url(#clip0_5055_1132)">
<path d="M24.1976 10.5323V6.72221C25.1923 6.25267 25.8889 5.24611 25.8889 4.0791V3.99066C25.8889 2.37963 24.5705 1.06126 22.9595 1.06126H22.872C21.2609 1.06126 19.9426 2.37963 19.9426 3.99066V4.0791C19.9426 5.24703 20.6391 6.25267 21.6338 6.72221V10.5323C20.1532 10.7612 18.8002 11.372 17.6842 12.2701L7.2239 4.13289C7.29228 3.86757 7.3406 3.59497 7.34151 3.30868C7.34242 1.48339 5.86541 0.00273899 4.04012 3.79042e-06C2.21483 -0.00273141 0.734182 1.47519 0.731447 3.30048C0.729624 5.12577 2.20663 6.60642 4.03192 6.60915C4.62637 6.60915 5.17705 6.4414 5.65936 6.16696L15.9492 14.1711C15.0739 15.4922 14.5615 17.074 14.5615 18.7771C14.5615 20.4803 15.125 22.2098 16.0768 23.5665L12.9478 26.6955C12.7007 26.6217 12.4436 26.5697 12.1719 26.5697C10.6721 26.5697 9.45673 27.7851 9.45673 29.2849C9.45673 30.7847 10.673 32 12.1719 32C13.6708 32 14.887 30.7847 14.887 29.2849C14.887 29.0132 14.835 28.7561 14.7612 28.509L17.8565 25.4136C19.2615 26.4858 21.0111 27.1304 22.9157 27.1304C27.5291 27.1304 31.269 23.3905 31.269 18.7771C31.269 14.6005 28.201 11.1505 24.1976 10.5323ZM22.9148 23.0595C20.5498 23.0595 18.6315 21.1422 18.6315 18.7771C18.6315 16.4121 20.5489 14.4947 22.9148 14.4947C25.2808 14.4947 27.1972 16.4121 27.1972 18.7771C27.1972 21.1422 25.2798 23.0595 22.9148 23.0595Z" fill="#FF4800"/>
</g>
<defs>
<clipPath id="clip0_5055_1132">
<rect width="32" height="32" fill="white"/>
</clipPath>
</defs>
</svg>
