<svg width="32" height="32" viewBox="0 0 32 32" fill="none" xmlns="http://www.w3.org/2000/svg">
<g clip-path="url(#clip0_5055_1541)">
<path d="M32 3.84002e-05V21.3334H21.3333V31.9995H0.000251371L0 10.6665H10.6667V3.84002e-05H32Z" fill="#99E1F4"/>
<path d="M0.000251371 31.9995L10.6667 31.9995V21.3328H4.96578e-05L0.000251371 31.9995Z" fill="#1982E2"/>
<path d="M21.3333 21.3334H32L31.9997 10.6664H21.3331L21.3333 21.3334Z" fill="#00B2E3"/>
<path d="M10.6667 10.6665L21.3331 10.6664L21.3331 0L10.6667 3.84002e-05V10.6665Z" fill="#00B2E3"/>
<path d="M10.6667 21.3328L21.3333 21.3334L21.3331 10.6664L10.6667 10.6665L10.6667 21.3328Z" fill="#019ED8"/>
<path d="M21.3331 10.6664H31.9997L32 3.84002e-05L21.3331 0L21.3331 10.6664Z" fill="#1982E2"/>
</g>
<defs>
<clipPath id="clip0_5055_1541">
<rect width="32" height="32" fill="white"/>
</clipPath>
</defs>
</svg>
