<svg width="32" height="32" viewBox="0 0 32 32" fill="none" xmlns="http://www.w3.org/2000/svg">
<g clip-path="url(#clip0_5055_1106)">
<path d="M16.0001 31.939C24.803 31.939 31.939 24.803 31.939 16C31.939 7.19716 24.803 0.0610352 16.0001 0.0610352C7.19716 0.0610352 0.0610352 7.19716 0.0610352 16C0.0610352 24.803 7.19716 31.939 16.0001 31.939Z" fill="#1AB4D7"/>
<path d="M7.69079 15.954L10.4109 13.2271C10.5011 13.1352 10.5514 13.0135 10.5514 12.8845C10.5514 12.6155 10.3328 12.3971 10.0638 12.3971C9.93279 12.3971 9.80997 12.4484 9.71735 12.5422L6.99967 15.2586L4.26984 12.5381C4.1776 12.4472 4.05537 12.3971 3.92577 12.3971C3.65713 12.3971 3.43844 12.6154 3.43844 12.8841C3.43844 13.0151 3.49076 13.1381 3.58468 13.2308L6.30443 15.9502L3.58609 18.6736C3.49055 18.7677 3.43844 18.8909 3.43844 19.0226C3.43844 19.2915 3.65713 19.5097 3.92577 19.5097C4.05559 19.5097 4.17793 19.4593 4.26984 19.3673L6.99544 16.6454L9.71068 19.3574C9.80699 19.457 9.93122 19.51 10.0638 19.51C10.3325 19.51 10.5511 19.2915 10.5511 19.0226C10.5511 18.8928 10.5009 18.7709 10.4094 18.679L7.69079 15.954Z" fill="white"/>
<path d="M23.8615 15.9531C23.8615 16.4415 24.2586 16.8388 24.7475 16.8388C25.2354 16.8388 25.6326 16.4415 25.6326 15.9531C25.6326 15.4647 25.2354 15.0675 24.7475 15.0675C24.2586 15.0675 23.8615 15.4647 23.8615 15.9531Z" fill="white"/>
<path d="M22.1817 15.9536C22.1817 14.5394 23.3322 13.3887 24.7466 13.3887C26.1603 13.3887 27.311 14.5394 27.311 15.9536C27.311 17.3675 26.1603 18.5177 24.7466 18.5177C23.3322 18.5177 22.1817 17.3675 22.1817 15.9536ZM21.1728 15.9536C21.1728 17.9239 22.776 19.5269 24.7466 19.5269C26.7172 19.5269 28.3212 17.9239 28.3212 15.9536C28.3212 13.983 26.7172 12.3796 24.7466 12.3796C22.776 12.3796 21.1728 13.983 21.1728 15.9536Z" fill="white"/>
<path d="M20.9191 12.4407L20.7692 12.4403C20.3191 12.4403 19.8849 12.5823 19.5223 12.8617C19.4745 12.643 19.2791 12.4785 19.0463 12.4785C18.7784 12.4785 18.5637 12.6932 18.563 12.9617L18.5647 18.9808C18.5654 19.2488 18.784 19.4667 19.0521 19.4667C19.3201 19.4667 19.5386 19.2488 19.5393 18.9803L19.5396 15.2792C19.5396 14.0457 19.6524 13.5475 20.709 13.4155C20.8067 13.4033 20.9133 13.4052 20.9133 13.4052C21.2025 13.3953 21.4079 13.1966 21.4079 12.9281C21.4079 12.6594 21.1886 12.4407 20.9191 12.4407Z" fill="white"/>
<path d="M11.561 15.3652C11.561 15.3519 11.562 15.338 11.5627 15.3243C11.8456 14.2057 12.8587 13.378 14.0651 13.378C15.2861 13.378 16.3084 14.2261 16.5769 15.3652H11.561ZM17.5749 15.2732C17.3649 14.2788 16.8205 13.4621 15.9915 12.9375C14.7798 12.1682 13.1797 12.2108 12.0092 13.0431C11.0545 13.7223 10.5034 14.8334 10.5034 15.9779C10.5034 16.2648 10.538 16.5545 10.61 16.8396C10.9705 18.2578 12.1897 19.3313 13.6432 19.5092C14.0745 19.5614 14.4943 19.5365 14.929 19.4239C15.3026 19.333 15.6641 19.1815 15.9971 18.968C16.3428 18.7458 16.6316 18.4528 16.9113 18.102C16.917 18.0955 16.9227 18.0898 16.9283 18.0831C17.1224 17.8423 17.0864 17.4999 16.8731 17.3365C16.6932 17.1986 16.3911 17.1427 16.1535 17.447C16.1024 17.5198 16.0454 17.5947 15.9827 17.6696C15.7937 17.8784 15.5592 18.0807 15.2783 18.2377C14.9207 18.4287 14.5133 18.5378 14.0802 18.5403C12.6626 18.5245 11.904 17.5349 11.6342 16.8286C11.5871 16.6968 11.5508 16.5599 11.5254 16.4191C11.5221 16.3927 11.5197 16.3673 11.5187 16.3439C11.8118 16.3439 16.6058 16.343 16.6058 16.343C17.3032 16.3284 17.6786 15.8361 17.5749 15.2732Z" fill="white"/>
</g>
<defs>
<clipPath id="clip0_5055_1106">
<rect width="32" height="32" fill="white"/>
</clipPath>
</defs>
</svg>
