<svg width="32" height="32" viewBox="0 0 32 32" fill="none" xmlns="http://www.w3.org/2000/svg">
<g clip-path="url(#clip0_5055_932)">
<path d="M9.42596 30.4106C10.0301 30.9963 9.60318 31.9997 8.74528 31.9997H3.37631C2.31701 31.9997 1.45508 31.1642 1.45508 30.1373V24.9325C1.45508 24.1008 2.49021 23.6869 3.09436 24.2726L9.42596 30.4106Z" fill="#0A1551"/>
<path d="M17.8188 30.8158C16.2296 29.2371 16.2296 26.6771 17.8188 25.0983L23.5544 19.4001C25.1437 17.8212 27.7203 17.8212 29.3096 19.4001C30.8988 20.979 30.8988 23.5389 29.3096 25.1178L23.574 30.8158C21.9847 32.3947 19.4081 32.3947 17.8188 30.8158Z" fill="#FFB629"/>
<path d="M2.66523 16.4979C1.076 14.919 1.076 12.3592 2.66523 10.7803L12.3176 1.18416C13.9068 -0.394718 16.4834 -0.39472 18.0727 1.18416C19.6619 2.76304 19.6619 5.3229 18.0727 6.90178L8.42036 16.4979C6.83112 18.0768 4.25447 18.0768 2.66523 16.4979Z" fill="#0099FF"/>
<path d="M10.5568 23.3368C8.96754 21.758 8.96754 19.1981 10.5568 17.6193L23.5988 4.66222C25.188 3.08335 27.7647 3.08334 29.3539 4.66222C30.9431 6.2411 30.9431 8.80097 29.3539 10.3798L16.3119 23.3368C14.7227 24.9157 12.146 24.9157 10.5568 23.3368Z" fill="#FF6100"/>
</g>
<defs>
<clipPath id="clip0_5055_932">
<rect width="32" height="32" fill="white"/>
</clipPath>
</defs>
</svg>
