<svg width="40" height="40" viewBox="0 0 40 40" fill="none" xmlns="http://www.w3.org/2000/svg">
<g clip-path="url(#clip0_3015_17855)">
<circle cx="10.4285" cy="10.4285" r="10.4285" fill="#FF7A64"/>
<rect y="23.5018" width="40" height="16.604" rx="1.66667" fill="#FF7A64"/>
<path d="M30.9629 6.18628C33.5637 6.18628 35.6719 8.2945 35.6719 10.8953V14.4353H39.4766C40.0702 14.4357 40.3671 15.1531 39.9473 15.573L34.8584 20.6619C34.598 20.9219 34.1763 20.9221 33.916 20.6619L28.8271 15.573C28.4074 15.153 28.705 14.4353 29.2988 14.4353H33.1035V10.8953C33.1035 9.7131 32.1451 8.75464 30.9629 8.75464H24.6553C23.946 8.75464 23.3711 8.17976 23.3711 7.47046C23.3711 6.76116 23.946 6.18628 24.6553 6.18628H30.9629Z" fill="#FF7A64"/>
</g>
<defs>
<clipPath id="clip0_3015_17855">
<rect width="40" height="40" fill="white"/>
</clipPath>
</defs>
</svg>
