<svg width="121" height="83" viewBox="0 0 121 83" fill="none" xmlns="http://www.w3.org/2000/svg">
<path d="M16.6897 80.8871C16.6897 81.9039 15.9188 82.7165 14.902 82.7165C14.3352 82.7165 13.8477 82.554 13.481 82.1081L6.70089 74.107L3.65466 76.9491V80.8871C3.65466 81.9039 2.80037 82.7165 1.78774 82.7165C0.7751 82.7165 0 81.9039 0 80.8871V57.0506C0 56.0338 0.812608 55.2212 1.82941 55.2212C2.84621 55.2212 3.65466 56.0338 3.65466 57.0506V72.8485L13.5226 63.1431C13.8477 62.818 14.2519 62.6972 14.702 62.6972C15.6354 62.6972 16.3688 63.5098 16.3688 64.4016C16.3688 64.8058 16.1647 65.2559 15.8396 65.5809L9.38041 71.8776L16.2438 79.6745C16.5272 79.9995 16.6897 80.4871 16.6897 80.8913V80.8871Z" fill="black"/>
<path d="M18.6483 56.6463C18.6483 55.3461 19.7443 54.3335 21.0028 54.3335C22.2613 54.3335 23.3573 55.3503 23.3573 56.6463C23.3573 57.9423 22.303 59.0008 21.0028 59.0008C19.7026 59.0008 18.6483 57.9465 18.6483 56.6463ZM19.2151 80.887V64.5224C19.2151 63.5056 20.0277 62.6929 21.0403 62.6929C22.0529 62.6929 22.8655 63.5056 22.8655 64.5224V80.887C22.8655 81.9038 22.0113 82.7164 20.9986 82.7164C19.986 82.7164 19.2109 81.9038 19.2109 80.887H19.2151Z" fill="black"/>
<path d="M44.0267 68.7482V80.8915C44.0267 81.9083 43.1725 82.7209 42.1598 82.7209C41.1472 82.7209 40.3721 81.9083 40.3721 80.8915V69.9692C40.3721 66.723 38.7052 65.6645 36.1882 65.6645C33.9129 65.6645 31.8418 67.0438 30.7875 68.5065V80.8915C30.7875 81.9083 29.9332 82.7209 28.9622 82.7209C27.9913 82.7209 27.1328 81.9083 27.1328 80.8915V64.5268C27.1328 63.51 27.9454 62.6974 28.9206 62.6974C29.8957 62.6974 30.7875 63.51 30.7875 64.5268V65.6228C32.1293 64.081 34.7255 62.4141 37.7301 62.4141C41.8723 62.4141 44.0226 64.606 44.0226 68.7482H44.0267Z" fill="black"/>
<path d="M57.4994 81.0499C57.4994 81.7417 57.1326 82.2292 56.5659 82.4293C55.8741 82.7543 54.9407 82.996 53.7655 82.996C50.6776 82.996 49.0941 81.2499 49.0941 78.162V66.1021H47.2271C46.3729 66.1021 45.6019 65.3728 45.6019 64.4769C45.6019 63.5809 46.3729 62.8933 47.2271 62.8933H49.0941V59.1595C49.0941 58.1427 49.9067 57.3301 50.9193 57.3301C51.9319 57.3301 52.7446 58.1427 52.7446 59.1595V62.8933H55.3032C56.195 62.8933 56.9284 63.6226 56.9284 64.4769C56.9284 65.3311 56.1992 66.1021 55.3032 66.1021H52.7446V77.3494C52.7446 78.7288 53.3946 79.7456 54.6531 79.7456C55.3449 79.7456 55.5866 79.4997 55.9533 79.4997C56.8868 79.4997 57.4952 80.1498 57.4952 81.0416L57.4994 81.0499Z" fill="black"/>
<path d="M57.6077 72.6863C57.6077 67.0397 61.4248 62.4141 67.5173 62.4141C73.6098 62.4141 77.427 67.0438 77.427 72.6863C77.427 78.3287 73.6515 83.0001 67.5173 83.0001C61.3832 83.0001 57.6077 78.3704 57.6077 72.6863ZM73.6056 72.6863C73.6056 68.9899 71.4512 65.6603 67.5132 65.6603C63.5751 65.6603 61.4207 68.9899 61.4207 72.6863C61.4207 76.3826 63.6126 79.7539 67.5132 79.7539C71.4137 79.7539 73.6056 76.4243 73.6056 72.6863Z" fill="black"/>
<path d="M97.5256 68.7482V80.8915C97.5256 81.9083 96.6713 82.7209 95.6587 82.7209C94.6461 82.7209 93.871 81.9083 93.871 80.8915V69.9692C93.871 66.723 92.2041 65.6645 89.6871 65.6645C87.4118 65.6645 85.3407 67.0438 84.2864 68.5065V80.8915C84.2864 81.9083 83.4321 82.7209 82.4611 82.7209C81.4901 82.7209 80.6359 81.9083 80.6359 80.8915V64.5268C80.6359 63.51 81.4485 62.6974 82.4236 62.6974C83.3987 62.6974 84.2905 63.51 84.2905 64.5268V65.6228C85.6324 64.081 88.2285 62.4141 91.2331 62.4141C95.3753 62.4141 97.5298 64.606 97.5298 68.7482H97.5256Z" fill="black"/>
<path d="M110.469 62.4097C116.357 62.4097 120.012 66.9978 120.012 72.1568C120.012 73.2528 119.241 73.9029 117.857 73.9029H104.497C104.781 77.2325 107.218 79.9953 111.156 79.9953C112.823 79.9953 114.569 79.4661 116.028 78.4118C116.232 78.2493 116.516 78.2076 116.841 78.2076C117.653 78.2076 118.303 78.8577 118.303 79.6703C118.303 80.1995 118.062 80.6038 117.653 80.8871C115.703 82.3082 113.39 82.9999 110.79 82.9999C104.943 82.9999 100.638 78.8577 100.638 72.686C100.638 67.0019 104.739 62.4138 110.465 62.4138L110.469 62.4097ZM104.46 71.265H116.441C116.361 68.6647 114.615 65.4184 110.473 65.4184C106.331 65.4184 104.664 68.5855 104.464 71.265H104.46Z" fill="black"/>
<path d="M46.5402 37.4189L58.1717 30.3769C58.5535 30.1445 59.0473 30.4225 59.0473 30.8707V44.9463C59.0473 45.3945 58.5576 45.6725 58.1758 45.4402L46.5443 38.4065C46.175 38.1824 46.175 37.6471 46.5443 37.423L46.5402 37.4189Z" fill="#EF3F24"/>
<path d="M42.0587 35.6799L29.0536 27.8163C28.8254 27.6794 28.6885 27.4345 28.6885 27.1689V11.2176C28.6885 10.7819 29.1657 10.5163 29.535 10.7404L42.5359 18.6082C42.76 18.7451 42.9052 18.99 42.9052 19.2555V35.2068C42.9052 35.6426 42.4322 35.9081 42.0587 35.6841V35.6799Z" fill="#EF3F24"/>
<path d="M43.4818 16.9275L30.3771 8.99751C30.0203 8.78173 30.0161 8.25887 30.3771 8.04309L43.461 0.108929C43.7017 -0.0363096 44.0046 -0.0363096 44.2453 0.108929L57.3458 8.03894C57.7027 8.25472 57.7027 8.77758 57.3458 8.99336L44.266 16.9234C44.0254 17.0686 43.7224 17.0686 43.4818 16.9234V16.9275Z" fill="#EF3F24"/>
<path d="M57.4081 28.5881L45.706 35.6674C45.3243 35.8998 44.8346 35.6218 44.8346 35.1736V21.0191C44.8346 20.571 45.3243 20.2929 45.706 20.5253L57.4081 27.6046C57.7774 27.8287 57.7774 28.364 57.4081 28.5881Z" fill="#EF3F24"/>
<path d="M58.1717 25.8079L46.536 18.7825C46.1667 18.5585 46.1667 18.0232 46.536 17.7991L58.1717 10.7529C58.5535 10.5206 59.0473 10.7944 59.0473 11.2468V25.3183C59.0473 25.7664 58.5576 26.0445 58.1717 25.8121V25.8079Z" fill="#EF3F24"/>
<path d="M73.4714 37.4189L61.8399 30.3769C61.4582 30.1445 60.9644 30.4225 60.9644 30.8707V44.9463C60.9644 45.3945 61.454 45.6725 61.8358 45.4402L73.4673 38.4065C73.8366 38.1824 73.8366 37.6471 73.4673 37.423L73.4714 37.4189Z" fill="#EF3F24"/>
<path d="M77.9489 35.6799L90.9581 27.8121C91.1864 27.6752 91.3233 27.4304 91.3233 27.1648V11.2176C91.3233 10.7819 90.8461 10.5163 90.4768 10.7404L77.4759 18.6082C77.2518 18.7451 77.1066 18.99 77.1066 19.2555V35.2068C77.1066 35.6426 77.5796 35.9081 77.9531 35.6841L77.9489 35.6799Z" fill="#EF3F24"/>
<path d="M76.5256 16.9275L89.6344 8.99751C89.9913 8.78173 89.9954 8.25887 89.6344 8.04309L76.5505 0.108929C76.3098 -0.0363096 76.0069 -0.0363096 75.7662 0.108929L62.6657 8.03894C62.3089 8.25472 62.3089 8.77758 62.6657 8.99336L75.7455 16.9234C75.9861 17.0686 76.2891 17.0686 76.5298 16.9234L76.5256 16.9275Z" fill="#EF3F24"/>
<path d="M62.6034 28.5881L74.3055 35.6674C74.6872 35.8998 75.1769 35.6218 75.1769 35.1736V21.0191C75.1769 20.571 74.6872 20.2929 74.3055 20.5253L62.6034 27.6046C62.2341 27.8287 62.2341 28.364 62.6034 28.5881Z" fill="#EF3F24"/>
<path d="M61.8359 25.8079L73.4716 18.7825C73.8409 18.5585 73.8409 18.0232 73.4716 17.7991L61.8359 10.7529C61.4541 10.5206 60.9603 10.7944 60.9603 11.2468V25.3183C60.9603 25.7664 61.45 26.0445 61.8359 25.8121V25.8079Z" fill="#EF3F24"/>
</svg>
