<svg width="140" height="32" viewBox="0 0 140 32" fill="none" xmlns="http://www.w3.org/2000/svg">
<path d="M68.83 23.1276C68.8339 23.2916 68.8049 23.4547 68.7447 23.6073C68.6846 23.7599 68.5945 23.8989 68.4799 24.0162C68.3652 24.1336 68.2282 24.2267 68.077 24.2903C67.9258 24.3539 67.7634 24.3866 67.5994 24.3866C67.4147 24.398 67.23 24.366 67.06 24.2931C66.89 24.2203 66.7394 24.1085 66.6204 23.9669L61.9491 18.4566L59.851 20.4149V23.1276C59.846 23.4647 59.708 23.7862 59.467 24.022C59.226 24.2579 58.9016 24.3889 58.5644 24.3866C58.2346 24.3819 57.92 24.2468 57.6894 24.0109C57.4589 23.775 57.3311 23.4574 57.3341 23.1276V6.70856C57.3334 6.54313 57.3655 6.37919 57.4284 6.22621C57.4914 6.07323 57.584 5.93422 57.701 5.8172C57.8179 5.70017 57.9569 5.60743 58.1098 5.54434C58.2627 5.48124 58.4266 5.44903 58.5921 5.44956C58.9249 5.45294 59.2433 5.58667 59.4787 5.82204C59.7141 6.05741 59.8479 6.37567 59.8514 6.70856V17.5889L66.6484 10.9042C66.7556 10.8004 66.8828 10.7196 67.0223 10.6668C67.1618 10.6139 67.3107 10.5901 67.4597 10.5969C67.7662 10.6046 68.0576 10.7317 68.2717 10.9511C68.4858 11.1706 68.6056 11.465 68.6057 11.7716C68.5929 12.0786 68.4627 12.369 68.2421 12.5829L63.7964 16.9186L68.5224 22.2896C68.7174 22.526 68.8259 22.8218 68.83 23.1282" fill="#231F20"/>
<path d="M70.1804 6.42824C70.1864 6.00242 70.3602 5.59619 70.6639 5.29769C70.9677 4.9992 71.3769 4.83255 71.8027 4.83391C72.0142 4.83104 72.2241 4.87013 72.4204 4.9489C72.6166 5.02767 72.7953 5.14455 72.9461 5.29281C73.0969 5.44107 73.2169 5.61776 73.299 5.81265C73.381 6.00754 73.4237 6.21676 73.4244 6.42824C73.4243 6.85836 73.2535 7.27086 72.9494 7.57507C72.6453 7.87928 72.2329 8.05031 71.8027 8.05057C71.374 8.04564 70.9642 7.87313 70.661 7.56995C70.3578 7.26677 70.1853 6.85697 70.1804 6.42824ZM70.5717 23.1282V11.8562C70.5711 11.6908 70.6032 11.5268 70.6662 11.3738C70.7292 11.2208 70.8219 11.0818 70.9389 10.9648C71.0559 10.8477 71.1949 10.7551 71.3479 10.692C71.501 10.629 71.6649 10.5969 71.8304 10.5976C72.1633 10.6009 72.4816 10.7345 72.717 10.9698C72.9524 11.2051 73.0863 11.5234 73.0897 11.8562V23.1282C73.0847 23.4654 72.9467 23.7869 72.7057 24.0227C72.4647 24.2585 72.1402 24.3896 71.8031 24.3872C71.4731 24.3828 71.1584 24.2478 70.9277 24.0118C70.697 23.7759 70.5688 23.4582 70.5717 23.1282Z" fill="#231F20"/>
<path d="M87.6624 14.7636V23.1266C87.6577 23.4637 87.5198 23.7854 87.2789 24.0213C87.038 24.2573 86.7136 24.3885 86.3764 24.3862C86.0463 24.3817 85.7315 24.2467 85.5008 24.0106C85.2701 23.7745 85.1423 23.4566 85.1454 23.1266V15.6039C85.1454 13.3662 83.9984 12.6392 82.2637 12.6392C81.5362 12.6638 80.8237 12.8527 80.1795 13.1917C79.5353 13.5307 78.9762 14.0111 78.5441 14.5969V23.1279C78.541 23.4607 78.4075 23.7791 78.1723 24.0146C77.937 24.2501 77.6189 24.384 77.2861 24.3876C77.1204 24.3883 76.9563 24.3562 76.8031 24.2931C76.6499 24.2301 76.5108 24.1373 76.3936 24.0202C76.2765 23.9031 76.1837 23.764 76.1206 23.6108C76.0575 23.4577 76.0254 23.2935 76.0261 23.1279V11.8566C76.023 11.5265 76.1509 11.2087 76.3816 10.9727C76.6123 10.7367 76.927 10.6017 77.257 10.5972C77.5943 10.5947 77.919 10.7257 78.16 10.9617C78.4011 11.1976 78.539 11.5193 78.5437 11.8566V12.6109C79.1477 11.9353 79.8838 11.3907 80.7064 11.0106C81.529 10.6305 82.4208 10.423 83.3267 10.4009C86.1804 10.4009 87.6624 11.9116 87.6624 14.7649" fill="#231F20"/>
<path d="M96.9407 23.2389C96.9518 23.4458 96.895 23.6507 96.7791 23.8224C96.6632 23.9942 96.4944 24.1234 96.2984 24.1906C95.6915 24.4613 95.0324 24.5949 94.368 24.5819C92.2424 24.5819 91.1514 23.3796 91.1514 21.2539V12.9456H89.8647C89.5697 12.94 89.2884 12.8202 89.0799 12.6115C88.8714 12.4027 88.7519 12.1212 88.7467 11.8262C88.7576 11.5357 88.8798 11.2605 89.0879 11.0576C89.2959 10.8546 89.574 10.7393 89.8647 10.7356H91.1514V8.16289C91.1507 7.99734 91.1827 7.83329 91.2457 7.68018C91.3086 7.52708 91.4013 7.38797 91.5183 7.27086C91.6353 7.15375 91.7744 7.06097 91.9274 6.99787C92.0805 6.93477 92.2445 6.90261 92.4101 6.90323C92.7429 6.90662 93.0611 7.04048 93.2963 7.27604C93.5315 7.5116 93.6649 7.83004 93.6677 8.16289V10.7356H95.4317C95.7236 10.7352 96.0041 10.8492 96.2131 11.053C96.422 11.2569 96.5428 11.5344 96.5497 11.8262C96.5489 12.1226 96.4308 12.4066 96.2214 12.6163C96.012 12.826 95.7281 12.9443 95.4317 12.9456H93.6677V20.6932C93.6677 21.6439 94.1157 22.3439 94.9841 22.3439C95.4591 22.3439 95.6267 22.1772 95.8784 22.1772C96.0198 22.17 96.1612 22.1926 96.2933 22.2435C96.4255 22.2944 96.5455 22.3724 96.6456 22.4725C96.7458 22.5727 96.8238 22.6927 96.8746 22.8249C96.9254 22.9571 96.9479 23.0985 96.9407 23.2399" fill="#231F20"/>
<path d="M97.0164 17.4769C97.0164 13.5892 99.6444 10.4002 103.841 10.4002C108.064 10.4002 110.665 13.5896 110.665 17.4769C110.665 21.3936 108.065 24.5822 103.841 24.5822C99.6444 24.5822 97.0164 21.3936 97.0164 17.4769ZM108.036 17.4769C108.036 14.9322 106.553 12.6389 103.841 12.6389C101.154 12.6389 99.6444 14.9322 99.6444 17.4769C99.6444 20.0502 101.154 22.3436 103.841 22.3436C106.553 22.3436 108.036 20.0496 108.036 17.4769Z" fill="#231F20"/>
<path d="M124.512 14.7636V23.1266C124.507 23.4638 124.369 23.7854 124.128 24.0214C123.887 24.2573 123.562 24.3885 123.225 24.3862C122.895 24.3817 122.58 24.2466 122.349 24.0105C122.119 23.7745 121.991 23.4566 121.994 23.1266V15.6039C121.994 13.3662 120.847 12.6392 119.113 12.6392C118.385 12.6639 117.673 12.8528 117.028 13.1918C116.384 13.5308 115.825 14.0112 115.392 14.5969V23.1279C115.389 23.4608 115.256 23.7792 115.02 24.0147C114.785 24.2502 114.467 24.3841 114.134 24.3876C113.969 24.3882 113.804 24.3561 113.651 24.293C113.498 24.2299 113.359 24.1371 113.242 24.02C113.125 23.9029 113.033 23.7638 112.97 23.6107C112.907 23.4575 112.875 23.2934 112.875 23.1279V11.8566C112.872 11.5266 113 11.2088 113.231 10.9728C113.461 10.7367 113.776 10.6017 114.106 10.5972C114.443 10.5947 114.768 10.7257 115.009 10.9617C115.25 11.1976 115.388 11.5193 115.393 11.8566V12.6109C115.997 11.9353 116.733 11.3907 117.555 11.0106C118.378 10.6305 119.27 10.423 120.176 10.4009C123.028 10.4009 124.512 11.9116 124.512 14.7649" fill="#231F20"/>
<path d="M133.428 10.4002C137.483 10.4002 140.001 13.5612 140.001 17.1139C140.001 17.8689 139.469 18.3166 138.519 18.3166H129.316C129.512 20.6099 131.19 22.5122 133.903 22.5122C135.109 22.5067 136.282 22.1253 137.26 21.4212C137.426 21.3127 137.623 21.2632 137.82 21.2806C137.952 21.2801 138.083 21.3059 138.206 21.3564C138.328 21.4069 138.44 21.4812 138.533 21.5749C138.627 21.6686 138.701 21.7799 138.751 21.9024C138.802 22.0249 138.827 22.1561 138.827 22.2886C138.829 22.4548 138.789 22.6189 138.71 22.7656C138.632 22.9122 138.518 23.0366 138.378 23.1272C137.001 24.1098 135.343 24.62 133.651 24.5816C129.624 24.5816 126.659 21.7286 126.659 17.4769C126.659 13.5612 129.483 10.4002 133.428 10.4002ZM129.288 16.4979H137.539C137.483 14.7079 136.281 12.4702 133.429 12.4702C130.715 12.4702 129.428 14.6522 129.288 16.4979Z" fill="#231F20"/>
<path d="M12.0771 25.8816L19.9477 21.0116C20.0073 20.9755 20.0756 20.9561 20.1452 20.9554C20.2149 20.9547 20.2835 20.9727 20.3438 21.0076C20.4041 21.0424 20.454 21.0928 20.4882 21.1535C20.5225 21.2142 20.5398 21.2829 20.5384 21.3526V31.0876C20.5399 31.1572 20.5225 31.226 20.4883 31.2867C20.4541 31.3474 20.4042 31.3978 20.3438 31.4326C20.2835 31.4674 20.2149 31.4854 20.1452 31.4846C20.0755 31.4838 20.0073 31.4644 19.9477 31.4282L12.0771 26.5616C12.0196 26.5253 11.9722 26.475 11.9394 26.4155C11.9065 26.3559 11.8893 26.289 11.8893 26.2211C11.8893 26.1531 11.9065 26.0862 11.9394 26.0267C11.9722 25.9671 12.0196 25.9169 12.0771 25.8806" fill="#EF3F24"/>
<path d="M9.04674 24.6809L0.24673 19.2386C0.170872 19.1914 0.108374 19.1256 0.065191 19.0474C0.0220084 18.9692 -0.000413816 18.8812 6.6454e-05 18.7919V7.75856C-0.00120091 7.69099 0.01568 7.62432 0.0489353 7.56548C0.0821905 7.50664 0.130608 7.4578 0.189153 7.42403C0.247698 7.39027 0.31422 7.37281 0.381801 7.37349C0.449382 7.37417 0.515556 7.39296 0.57341 7.4279L9.36809 12.8699C9.44418 12.9171 9.50699 12.9829 9.55066 13.0611C9.59434 13.1393 9.61741 13.2273 9.61772 13.3169V24.3502C9.61899 24.4178 9.60215 24.4845 9.56889 24.5433C9.53564 24.6021 9.48718 24.651 9.42864 24.6848C9.37009 24.7185 9.30359 24.736 9.23601 24.7353C9.16843 24.7346 9.10225 24.7158 9.0444 24.6809" fill="#EF3F24"/>
<path d="M10.0104 11.7082L1.14372 6.22256C1.08788 6.18741 1.04187 6.13867 1.00998 6.0809C0.978079 6.02313 0.96133 5.95822 0.96133 5.89223C0.96133 5.82624 0.978079 5.76133 1.00998 5.70356C1.04187 5.64579 1.08788 5.59705 1.14372 5.5619L9.99571 0.0758972C10.0751 0.0262975 10.1669 0 10.2606 0C10.3542 0 10.4459 0.0262975 10.5254 0.0758972L19.3877 5.5619C19.4435 5.59715 19.4894 5.64595 19.5213 5.70373C19.5531 5.76152 19.5698 5.82642 19.5698 5.89239C19.5698 5.95837 19.5531 6.02328 19.5213 6.08106C19.4894 6.13885 19.4435 6.18765 19.3877 6.2229L10.5401 11.7082C10.4607 11.7578 10.369 11.784 10.2754 11.784C10.1818 11.784 10.0898 11.7578 10.0104 11.7082Z" fill="#EF3F24"/>
<path d="M19.4297 19.7739L11.5137 24.6702C11.4541 24.7063 11.386 24.7256 11.3163 24.7264C11.2467 24.7271 11.1781 24.7091 11.1178 24.6743C11.0575 24.6395 11.0076 24.5892 10.9734 24.5285C10.9391 24.4679 10.9217 24.3992 10.9231 24.3296V14.5376C10.9216 14.4679 10.9388 14.3991 10.973 14.3383C11.0072 14.2776 11.0571 14.2271 11.1175 14.1923C11.1779 14.1574 11.2465 14.1394 11.3162 14.1402C11.3859 14.1409 11.4541 14.1604 11.5137 14.1966L19.4297 19.0926C19.4872 19.1289 19.5346 19.1791 19.5674 19.2387C19.6002 19.2982 19.6175 19.3651 19.6175 19.4331C19.6175 19.5011 19.6002 19.5679 19.5674 19.6275C19.5346 19.687 19.4872 19.7373 19.4297 19.7736" fill="#EF3F24"/>
<path d="M19.9477 17.8502L12.0764 12.9899C12.019 12.9536 11.9717 12.9033 11.9389 12.8437C11.9062 12.7842 11.889 12.7174 11.889 12.6494C11.889 12.5814 11.9062 12.5146 11.9389 12.4551C11.9717 12.3955 12.019 12.3453 12.0764 12.3089L19.9477 7.43524C20.0073 7.39917 20.0755 7.37974 20.1452 7.37897C20.2148 7.37821 20.2834 7.39614 20.3438 7.43089C20.4042 7.46564 20.4542 7.51595 20.4885 7.57657C20.5229 7.63719 20.5403 7.70591 20.5391 7.77557V17.5089C20.5404 17.5786 20.523 17.6474 20.4887 17.7081C20.4544 17.7687 20.4044 17.8191 20.344 17.8539C20.2836 17.8887 20.2149 17.9066 20.1452 17.9058C20.0755 17.9049 20.0073 17.8854 19.9477 17.8492" fill="#EF3F24"/>
<path d="M30.2961 25.8816L22.4261 21.0116C22.3665 20.9755 22.2983 20.9561 22.2286 20.9554C22.159 20.9547 22.0904 20.9727 22.0301 21.0075C21.9698 21.0424 21.9199 21.0928 21.8857 21.1535C21.8515 21.2141 21.8343 21.2829 21.8358 21.3526V31.0876C21.8342 31.1572 21.8515 31.226 21.8856 31.2867C21.9198 31.3474 21.9697 31.3978 22.0301 31.4327C22.0904 31.4675 22.159 31.4855 22.2287 31.4847C22.2983 31.4839 22.3665 31.4644 22.4261 31.4282L30.2954 26.5616C30.353 26.5253 30.4004 26.4751 30.4333 26.4155C30.4662 26.356 30.4834 26.2891 30.4834 26.2211C30.4834 26.153 30.4662 26.0861 30.4333 26.0266C30.4004 25.967 30.353 25.9168 30.2954 25.8806" fill="#EF3F24"/>
<path d="M33.3264 24.6809L42.1264 19.2386C42.202 19.1912 42.2643 19.1253 42.3075 19.0471C42.3506 18.969 42.3732 18.8812 42.373 18.7919V7.75857C42.3743 7.69094 42.3575 7.62421 42.3242 7.56532C42.2909 7.50643 42.2425 7.45756 42.1839 7.42378C42.1253 7.39 42.0587 7.37257 41.9911 7.37329C41.9234 7.37402 41.8572 7.39288 41.7994 7.4279L33.003 12.8706C32.9269 12.9178 32.8641 12.9836 32.8205 13.0618C32.7768 13.14 32.7537 13.228 32.7534 13.3176V24.3509C32.7521 24.4185 32.769 24.4852 32.8022 24.544C32.8355 24.6028 32.8839 24.6517 32.9425 24.6854C33.001 24.7192 33.0675 24.7366 33.1351 24.736C33.2027 24.7353 33.2689 24.7165 33.3267 24.6816" fill="#EF3F24"/>
<path d="M32.3641 11.7082L41.2307 6.22256C41.2866 6.18741 41.3326 6.13867 41.3645 6.0809C41.3964 6.02313 41.4131 5.95822 41.4131 5.89223C41.4131 5.82624 41.3964 5.76133 41.3645 5.70356C41.3326 5.64579 41.2866 5.59705 41.2307 5.5619L32.3787 0.0758972C32.2993 0.0262975 32.2075 0 32.1139 0C32.0202 0 31.9285 0.0262975 31.8491 0.0758972L22.9864 5.5619C22.9307 5.59721 22.8848 5.64603 22.8531 5.70381C22.8213 5.76159 22.8046 5.82645 22.8046 5.89239C22.8046 5.95834 22.8213 6.02321 22.8531 6.08099C22.8848 6.13877 22.9307 6.18759 22.9864 6.2229L31.8341 11.7082C31.9135 11.7578 32.0053 11.7841 32.0989 11.7841C32.1925 11.7841 32.2843 11.7578 32.3637 11.7082" fill="#EF3F24"/>
<path d="M22.9431 19.7739L30.8587 24.6702C30.9183 24.7063 30.9865 24.7256 31.0561 24.7264C31.1258 24.7271 31.1943 24.7091 31.2546 24.6743C31.315 24.6395 31.3649 24.5892 31.3991 24.5285C31.4334 24.4679 31.4507 24.3992 31.4494 24.3296V14.5376C31.4509 14.4679 31.4337 14.3991 31.3995 14.3383C31.3653 14.2776 31.3153 14.2271 31.255 14.1923C31.1946 14.1574 31.126 14.1394 31.0563 14.1402C30.9866 14.1409 30.9183 14.1604 30.8587 14.1966L22.9431 19.0926C22.8857 19.129 22.8385 19.1793 22.8058 19.2388C22.7731 19.2983 22.7559 19.3651 22.7559 19.4331C22.7559 19.501 22.7731 19.5678 22.8058 19.6273C22.8385 19.6869 22.8857 19.7372 22.9431 19.7736" fill="#EF3F24"/>
<path d="M22.4257 17.8502L30.2971 12.9899C30.3544 12.9535 30.4016 12.9032 30.4343 12.8437C30.4671 12.7841 30.4842 12.7173 30.4842 12.6494C30.4842 12.5815 30.4671 12.5147 30.4343 12.4551C30.4016 12.3956 30.3544 12.3453 30.2971 12.3089L22.4257 7.43524C22.3662 7.3992 22.298 7.37979 22.2284 7.37905C22.1588 7.37831 22.0903 7.39626 22.03 7.43102C21.9697 7.46579 21.9199 7.51609 21.8856 7.57669C21.8514 7.6373 21.834 7.70598 21.8354 7.77557V17.5089C21.8339 17.5785 21.8512 17.6473 21.8854 17.7079C21.9196 17.7686 21.9695 17.819 22.0299 17.8538C22.0902 17.8885 22.1588 17.9065 22.2284 17.9057C22.298 17.9049 22.3662 17.8854 22.4257 17.8492" fill="#EF3F24"/>
</svg>
