<svg width="312" height="70" viewBox="0 0 312 70" fill="none" xmlns="http://www.w3.org/2000/svg">
<path d="M199.479 0C200.657 0 201.582 0.294359 202.255 0.883077C202.956 1.44487 203.306 2.22923 203.306 3.24154C203.306 4.25205 202.956 5.05077 202.255 5.63949C201.582 6.20128 200.657 6.48308 199.479 6.48308C198.303 6.48308 197.363 6.20128 196.662 5.63949C195.99 5.05077 195.653 4.25205 195.653 3.24154C195.653 2.23103 195.99 1.44667 196.662 0.883077C197.363 0.294359 198.303 0 199.479 0ZM202.759 10.3959V28.7054C202.759 29.8846 202.956 30.6851 203.349 31.1051C203.768 31.5269 204.469 31.7369 205.45 31.7369V32.62C204.667 32.5816 203.881 32.5536 203.096 32.5356C202.018 32.4791 200.937 32.4511 199.858 32.4513C198.766 32.4513 197.657 32.48 196.537 32.5356C195.696 32.5541 194.855 32.5823 194.014 32.62V31.7369C194.995 31.7369 195.681 31.5269 196.074 31.1051C196.494 30.6851 196.705 29.8846 196.705 28.7054V15.4467C196.705 14.1849 196.508 13.2569 196.115 12.67C195.751 12.0526 195.05 11.7438 194.014 11.7438V10.859C194.91 10.9433 195.78 10.9846 196.621 10.9846C197.797 10.9846 198.891 10.9433 199.901 10.859C200.937 10.7477 201.891 10.5933 202.759 10.3959Z" fill="#2F2352"/>
<path fill-rule="evenodd" clip-rule="evenodd" d="M214.593 10.3959C213.725 10.5933 212.772 10.7477 211.735 10.8589C210.697 10.9433 209.603 10.9846 208.454 10.9846C207.613 10.9846 206.745 10.9433 205.847 10.8589V11.7438C206.856 11.7438 207.557 12.0525 207.95 12.67C208.343 13.2587 208.538 14.1848 208.538 15.4466V36.4933C208.538 37.6151 208.343 38.3725 207.95 38.7656C207.586 39.1587 206.94 39.3543 206.015 39.3543V40.2392L208.244 40.1136C209.268 40.085 210.29 40.0707 211.314 40.0705C212.743 40.0705 214.089 40.0848 215.35 40.1118C216.639 40.1692 217.649 40.2105 218.379 40.2374V39.3543C217.2 39.3543 216.275 39.13 215.603 38.6813C214.93 38.2613 214.593 37.3907 214.593 36.0715V31.8536C214.963 32.1623 215.397 32.4171 215.897 32.62C216.793 33.0148 217.789 33.2105 218.882 33.2105C220.369 33.2105 221.699 32.943 222.877 32.41C224.075 31.8828 225.128 31.0744 225.947 30.0533C226.815 28.9871 227.475 27.6823 227.923 26.1387C228.4 24.5951 228.639 22.8002 228.639 20.7505C228.639 18.4225 228.302 16.4859 227.629 14.9423C226.957 13.37 226.058 12.2069 224.938 11.4495C223.817 10.6637 222.479 10.2511 221.111 10.2702C219.485 10.2702 218.056 10.6902 216.822 11.532C215.852 12.1872 215.11 13.0954 214.593 14.2602V10.3959ZM214.593 15.7051V30.9633C214.826 31.2397 215.108 31.4695 215.434 31.6525C215.967 31.9325 216.569 32.0725 217.244 32.0725C218.504 32.0725 219.499 31.6525 220.229 30.8107C220.957 29.9402 221.475 28.7341 221.784 27.1905C222.121 25.62 222.289 23.7533 222.289 21.5923C222.289 19.18 222.135 17.2846 221.827 15.9097C221.518 14.5348 221.097 13.553 220.564 12.9643C220.032 12.3738 219.388 12.0795 218.63 12.0795C217.622 12.0795 216.697 12.4743 215.856 13.2587C215.223 13.8689 214.801 14.6856 214.593 15.7051Z" fill="#2F2352"/>
<path d="M238.295 10.2701C239.473 10.2701 240.495 10.4245 241.364 10.7332C242.261 11.0132 242.906 11.295 243.299 11.575C244.251 12.2211 244.841 11.7994 245.065 10.3114H245.947C245.892 11.0976 245.849 12.0668 245.822 13.2155C245.793 14.3391 245.779 15.8396 245.779 17.7206H244.897C244.751 16.6682 244.484 15.6367 244.097 14.6478C243.74 13.6881 243.147 12.8338 242.374 12.1637C241.644 11.5176 240.692 11.1945 239.514 11.1945C238.702 11.1945 238.015 11.435 237.454 11.9124C236.892 12.3611 236.613 13.0199 236.613 13.8904C236.613 14.7322 236.865 15.4752 237.369 16.1214C237.875 16.7388 238.519 17.3419 239.304 17.9306C240.116 18.4924 240.957 19.0955 241.827 19.7398C242.752 20.4416 243.593 21.1434 244.35 21.8452C245.074 22.4801 245.686 23.2346 246.157 24.0763C246.607 24.8893 246.832 25.8568 246.832 26.9804C246.832 28.2422 246.466 29.3496 245.738 30.3045C245.008 31.2306 244.041 31.9468 242.836 32.4511C241.658 32.9573 240.34 33.2104 238.884 33.2104C238.119 33.219 237.357 33.1341 236.613 32.9573C236.028 32.8119 235.465 32.5999 234.931 32.3255C234.567 32.1568 234.215 32.0024 233.88 31.8624C233.593 31.705 233.297 31.5646 232.996 31.4424C232.716 31.3581 232.463 31.455 232.239 31.7368C232.044 32.0168 231.89 32.4098 231.777 32.9142H230.894C230.95 32.0168 230.993 30.9219 231.02 29.6314C231.049 28.3409 231.063 26.6286 231.063 24.4981H231.945C232.114 26.0129 232.422 27.3591 232.87 28.5365C233.319 29.6888 233.921 30.6006 234.678 31.2737C235.463 31.9198 236.444 32.2429 237.622 32.2429C238.099 32.2429 238.562 32.1442 239.01 31.9468C239.458 31.7493 239.822 31.4263 240.104 30.9775C240.412 30.5288 240.566 29.9545 240.566 29.2545C240.566 28.0178 240.159 26.9929 239.345 26.1798C238.562 25.3668 237.552 24.4819 236.319 23.5288C235.422 22.7983 234.567 22.0839 233.754 21.3822C233.001 20.6924 232.349 19.8989 231.82 19.0255C231.307 18.1289 231.045 17.1109 231.063 16.0783C231.063 14.8165 231.398 13.7504 232.071 12.8799C232.756 12.0003 233.674 11.3296 234.721 10.9432C235.858 10.4914 237.07 10.2629 238.295 10.2701ZM290.494 10.7332C289.764 10.4245 288.812 10.2701 287.634 10.2701C286.314 10.2567 285.014 10.5752 283.85 11.1963C282.701 11.785 281.79 12.7811 281.116 14.1847V10.3976C280.248 10.5932 279.294 10.7476 278.257 10.8588C277.248 10.9432 276.154 10.9845 274.978 10.9845C274.137 10.9845 273.267 10.9432 272.371 10.8588V11.7437C273.407 11.7437 274.108 12.0524 274.472 12.6699C274.865 13.2586 275.06 14.1847 275.06 15.4465V28.7052C275.06 29.8845 274.851 30.685 274.431 31.105C274.038 31.5268 273.352 31.7368 272.371 31.7368V32.6198C273.21 32.5822 274.051 32.554 274.894 32.5355C275.986 32.48 277.079 32.452 278.173 32.4511C279.154 32.4511 280.108 32.4798 281.031 32.5355C281.985 32.5642 282.686 32.5929 283.135 32.6198V31.7368C282.407 31.7368 281.887 31.5268 281.578 31.105C281.27 30.685 281.116 29.8845 281.116 28.7052V17.0045C281.116 16.0783 281.299 15.2509 281.663 14.5204C282.055 13.7629 282.559 13.1742 283.176 12.7542C283.768 12.3411 284.472 12.1205 285.195 12.1224C285.84 12.1224 286.316 12.2768 286.624 12.5855C286.961 12.8655 287.185 13.2729 287.298 13.806C287.409 14.3104 287.465 14.9135 287.465 15.6152V28.7052C287.465 29.8845 287.311 30.685 287.002 31.105C286.723 31.5268 286.204 31.7368 285.448 31.7368V32.6198C285.952 32.5929 286.694 32.5642 287.677 32.5355C289.665 32.4219 291.657 32.4219 293.648 32.5355C294.684 32.5642 295.455 32.5929 295.959 32.6198V31.7368C295.062 31.7368 294.431 31.5268 294.067 31.105C293.703 30.685 293.52 29.8845 293.52 28.7052V17.1911L293.519 17.0601L293.511 16.6347C293.576 15.9311 293.762 15.2445 294.067 14.6065C294.46 13.8473 294.964 13.2442 295.581 12.7955C296.197 12.3468 296.872 12.1224 297.6 12.1224C298.328 12.1224 298.862 12.2768 299.197 12.5855C299.561 12.8655 299.8 13.2729 299.913 13.806C300.053 14.3104 300.123 14.9135 300.123 15.6152V28.7052C300.123 29.8845 299.968 30.685 299.66 31.105C299.38 31.5268 298.862 31.7368 298.104 31.7368V32.6198C298.609 32.5929 299.351 32.5642 300.332 32.5355C301.326 32.4789 302.321 32.4509 303.318 32.4511C304.356 32.4511 305.407 32.4798 306.472 32.5355C307.537 32.5642 308.337 32.5929 308.869 32.6198V31.7368C307.888 31.7368 307.187 31.5268 306.766 31.105C306.373 30.685 306.178 29.8845 306.178 28.7052V17.3832C306.178 15.9796 306.079 14.8578 305.884 14.016C305.687 13.1455 305.366 12.4455 304.915 11.9124C304.467 11.4063 303.879 11.015 303.149 10.7332C302.421 10.4245 301.467 10.2701 300.291 10.2701C298.862 10.2701 297.515 10.5645 296.255 11.1532C295.046 11.7311 294.067 12.8332 293.316 14.4594C293.289 14.3108 293.26 14.1629 293.226 14.016C293.031 13.1455 292.708 12.4455 292.26 11.9124C291.811 11.4063 291.222 11.015 290.494 10.7332ZM269.071 10.3958C268.202 10.5932 267.25 10.7476 266.211 10.8588C265.204 10.9432 264.11 10.9845 262.932 10.9845C262.091 10.9845 261.223 10.9432 260.325 10.8588V11.7437C261.363 11.7437 262.064 12.0524 262.428 12.6699C262.821 13.2586 263.016 14.1847 263.016 15.4465V26.4742C263.016 27.4004 262.821 28.2422 262.428 28.9996C262.094 29.6931 261.587 30.2881 260.956 30.7263C260.368 31.1475 259.659 31.369 258.937 31.358C258.237 31.358 257.705 31.2163 257.339 30.9363C256.961 30.6053 256.695 30.1639 256.582 29.6745C256.462 29.0644 256.407 28.4437 256.414 27.8222V10.3958C255.546 10.5932 254.592 10.7476 253.556 10.8588C252.546 10.9432 251.452 10.9845 250.276 10.9845C249.435 10.9845 248.565 10.9432 247.669 10.8588V11.7437C248.705 11.7437 249.406 12.0524 249.77 12.6699C250.163 13.2586 250.359 14.1847 250.359 15.4465V26.0955C250.359 27.4704 250.457 28.5939 250.654 29.4627C250.85 30.3332 251.187 31.035 251.662 31.5681C252.084 32.0455 252.657 32.4386 253.387 32.7473C254.115 33.0542 255.069 33.2104 256.247 33.2104C257.705 33.2104 259.021 32.9142 260.199 32.3255C261.404 31.708 262.344 30.6975 263.016 29.2957V33.0829C263.954 32.8516 264.911 32.6967 265.876 32.6198C266.886 32.5355 267.978 32.4942 269.156 32.4942C270.025 32.4942 270.893 32.5355 271.763 32.6198V31.7368C270.753 31.7368 270.052 31.4424 269.659 30.8519C269.267 30.2345 269.071 29.2957 269.071 28.0339V10.3958Z" fill="#2F2352"/>
<path fill-rule="evenodd" clip-rule="evenodd" d="M187.731 11.4064C186.189 10.649 184.394 10.2703 182.348 10.2703C180.358 10.2703 178.577 10.649 177.008 11.4064C175.466 12.1638 174.247 13.3844 173.35 15.0679C172.48 16.7515 172.045 18.9826 172.045 21.761C172.045 24.5395 172.48 26.7687 173.348 28.4541C174.245 30.109 175.464 31.3151 177.006 32.0726C178.577 32.83 180.358 33.2105 182.348 33.2105C184.394 33.2105 186.189 32.83 187.731 32.0726C189.271 31.3151 190.478 30.109 191.346 28.4541C192.215 26.7705 192.649 24.5395 192.649 21.761C192.649 18.9826 192.215 16.7533 191.346 15.0679C190.478 13.3844 189.271 12.1638 187.731 11.4064ZM179.531 13.6374C180.288 11.9538 181.227 11.112 182.348 11.112C183.497 11.112 184.437 11.9538 185.165 13.6374C185.922 15.2923 186.3 18.0008 186.3 21.761C186.3 25.5213 185.922 28.2297 185.165 29.8846C184.437 31.5395 183.497 32.3687 182.348 32.3687C181.227 32.3687 180.288 31.5395 179.531 29.8846C178.774 28.2297 178.396 25.5213 178.396 21.761C178.396 18.0008 178.772 15.2923 179.531 13.6374ZM158.333 40.5336C156.594 40.5336 155.039 40.3792 153.665 40.0705C152.321 39.7905 151.255 39.3418 150.47 38.7244C149.713 38.1338 149.335 37.4051 149.335 36.5346C149.335 35.6641 149.726 34.8797 150.511 34.1779C151.297 33.5049 152.46 32.9718 154.002 32.5787L154.379 33.2518C153.898 33.6136 153.497 34.0722 153.203 34.5979C152.979 35.1041 152.866 35.6228 152.866 36.1559C152.866 37.3351 153.398 38.2326 154.465 38.8482C155.559 39.4944 157.029 39.8174 158.88 39.8174C160.14 39.8174 161.263 39.6487 162.244 39.3131C163.253 38.9756 164.037 38.4695 164.598 37.7982C165.188 37.1233 165.482 36.2959 165.482 35.3141C165.482 34.4723 165.174 33.7561 164.557 33.1674C163.94 32.6056 162.706 32.3256 160.856 32.3256H158.249C157.101 32.3256 156.09 32.2 155.222 31.9469C154.379 31.6956 153.721 31.3008 153.244 30.7677C152.769 30.2077 152.53 29.5059 152.53 28.6641C152.53 27.4849 152.993 26.4474 153.918 25.5482C154.643 24.8446 155.643 24.1751 156.92 23.5415C156.081 23.4371 155.256 23.2353 154.463 22.9403C153.203 22.4628 152.208 21.7323 151.48 20.7505C150.75 19.7687 150.386 18.5069 150.386 16.9633C150.386 15.4197 150.75 14.1562 151.48 13.1744C152.208 12.1638 153.203 11.4333 154.465 10.9846C155.726 10.509 157.155 10.2703 158.752 10.2703C160.352 10.2703 161.781 10.509 163.042 10.9864C163.874 11.2808 164.587 11.699 165.188 12.2374C165.545 11.7223 165.979 11.2628 166.49 10.859C167.444 10.1303 168.467 9.7641 169.559 9.7641C170.456 9.7641 171.13 10.0172 171.579 10.5233C172.055 10.999 172.294 11.6308 172.294 12.4169C172.294 13.2587 172.068 13.8887 171.62 14.3105C171.171 14.7054 170.668 14.901 170.106 14.901C169.613 14.8945 169.137 14.7154 168.762 14.3949C168.367 14.0574 168.145 13.5531 168.089 12.88C168.041 12.2769 168.209 11.5303 168.595 10.6364C167.777 10.9846 167.146 11.3813 166.701 11.8282C166.366 12.1517 166.073 12.5166 165.83 12.9141C165.898 12.9985 165.964 13.0864 166.027 13.1744C166.757 14.1562 167.121 15.4179 167.121 16.9615C167.121 18.5051 166.757 19.7687 166.027 20.7505C165.299 21.7323 164.304 22.4628 163.042 22.9403C161.781 23.4159 160.352 23.6546 158.752 23.6546C158.513 23.6548 158.274 23.6494 158.035 23.6385C157.657 23.8951 157.293 24.1679 156.945 24.4551C156.729 24.6244 156.556 24.8419 156.439 25.0903C156.322 25.3387 156.265 25.6112 156.273 25.8856C156.273 26.7831 156.834 27.2318 157.954 27.2318H162.538C164.08 27.2318 165.453 27.4149 166.658 27.7792C167.892 28.1454 168.858 28.7485 169.559 29.5903C170.289 30.4033 170.653 31.4695 170.653 32.7887C170.653 34.1636 170.205 35.4397 169.308 36.619C168.439 37.7982 167.094 38.7369 165.27 39.4387C163.449 40.1692 161.135 40.5336 158.333 40.5336ZM158.752 22.8972C159.511 22.8972 160.097 22.4772 160.519 21.6354C160.94 20.7649 161.15 19.2069 161.15 16.9633C161.15 14.7179 160.94 13.1744 160.519 12.3326C160.099 11.462 159.511 11.0277 158.754 11.0277C158.024 11.0277 157.436 11.462 156.988 12.3326C156.567 13.1744 156.357 14.7179 156.357 16.9633C156.357 19.2069 156.567 20.7649 156.988 21.6354C157.436 22.4772 158.024 22.8972 158.752 22.8972ZM143.891 11.4064C142.349 10.649 140.556 10.2703 138.51 10.2703C136.52 10.2703 134.739 10.649 133.17 11.4064C131.628 12.1638 130.409 13.3844 129.512 15.0679C128.643 16.7515 128.207 18.9826 128.207 21.761C128.207 24.5395 128.643 26.7687 129.51 28.4541C130.407 30.109 131.626 31.3151 133.168 32.0726C134.739 32.83 136.52 33.2105 138.51 33.2105C140.556 33.2105 142.351 32.83 143.891 32.0726C145.433 31.3151 146.638 30.109 147.508 28.4541C148.378 26.7705 148.811 24.5395 148.811 21.761C148.811 18.9826 148.378 16.7533 147.508 15.0679C146.64 13.3844 145.433 12.1638 143.891 11.4064ZM135.691 13.6374C136.45 11.9538 137.388 11.112 138.51 11.112C139.658 11.112 140.597 11.9538 141.325 13.6374C142.084 15.2923 142.462 18.0008 142.462 21.761C142.462 25.5213 142.084 28.2297 141.327 29.8846C140.597 31.5395 139.659 32.3687 138.51 32.3687C137.388 32.3687 136.448 31.5395 135.691 29.8846C134.935 28.2297 134.556 25.5213 134.556 21.761C134.556 18.0008 134.935 15.2923 135.691 13.6374Z" fill="#2F2352"/>
<path d="M116.883 2.8194V3.66299C115.931 3.68991 115.201 3.80119 114.697 3.99863C114.467 4.07679 114.258 4.20944 114.09 4.38535C113.921 4.56125 113.798 4.77522 113.729 5.00914C113.562 5.48478 113.478 6.24401 113.478 7.28145V28.6638C113.478 29.5325 113.534 30.1786 113.647 30.6004C113.786 31.0204 114.039 31.3004 114.403 31.4422C114.796 31.5822 115.372 31.6522 116.126 31.6522H118.189C119.139 31.6522 120.037 31.4279 120.878 30.9791C121.721 30.5304 122.476 29.8986 123.148 29.0838C123.858 28.1788 124.425 27.1711 124.832 26.0953C125.28 24.9466 125.616 23.6686 125.84 22.265H126.808C126.724 23.2199 126.682 24.4548 126.682 25.9697C126.682 26.6158 126.695 27.5545 126.724 28.7894C126.752 30.0243 126.835 31.3022 126.975 32.6197C125.364 32.5602 123.752 32.5321 122.141 32.5353C120.347 32.5084 118.748 32.494 117.346 32.494H114.656C113.562 32.494 112.384 32.5084 111.124 32.5353C109.861 32.5353 108.586 32.5497 107.297 32.5784C106.006 32.5784 104.787 32.5927 103.639 32.6197V31.7779C104.536 31.7222 105.208 31.6091 105.657 31.4422C106.105 31.2735 106.399 30.9361 106.541 30.4317C106.707 29.9256 106.792 29.1681 106.792 28.1576V7.28145C106.792 6.24222 106.707 5.48658 106.541 5.00914C106.485 4.77565 106.371 4.56021 106.209 4.38332C106.047 4.20644 105.843 4.07399 105.615 3.99863C105.167 3.80119 104.507 3.68991 103.639 3.66119V2.8194C105.853 2.90149 108.068 2.94339 110.283 2.94504C111.516 2.94504 112.721 2.93247 113.898 2.90376C115.104 2.87504 116.1 2.84811 116.883 2.8194Z" fill="#2F2352"/>
<path fill-rule="evenodd" clip-rule="evenodd" d="M304.596 67.4032C304.537 67.1016 304.577 66.7085 304.718 66.2239L310.641 44.7447C309.694 45.134 308.711 45.4373 307.709 45.6511C306.682 45.8539 305.504 45.9634 304.173 45.9849L303.961 46.6203C304.949 46.6203 305.565 46.7819 305.807 47.1049C306.047 47.428 306.077 47.9306 305.896 48.6162L304.494 53.9093C304.406 53.6539 304.256 53.4254 304.053 53.2452C303.71 52.9221 303.237 52.7606 302.633 52.7606C301.424 52.7606 300.305 53.0334 299.278 53.5773C298.245 54.1425 297.314 54.8793 296.527 55.7562C295.701 56.6449 295 57.6425 294.442 58.7214C293.893 59.7712 293.457 60.8765 293.142 62.0185C292.857 63.0023 292.704 64.0202 292.688 65.0447C292.688 66.0121 292.841 66.8091 293.142 67.4337C293.445 68.0385 293.857 68.4926 294.381 68.7942C294.905 69.0778 295.489 69.2178 296.135 69.2178C297.121 69.2178 298.008 68.927 298.794 68.3419C299.579 67.737 300.314 66.8091 301.001 65.558C301.288 65.0483 301.577 64.4757 301.864 63.8403L301.665 64.5906C301.483 65.1816 301.361 65.7896 301.302 66.4052C301.263 66.9293 301.302 67.3744 301.424 67.737C301.665 68.7242 302.41 69.2196 303.66 69.2196C304.123 69.2196 304.596 69.128 305.08 68.9467C305.565 68.7655 306.016 68.4532 306.44 68.008C306.884 67.5647 307.236 66.9311 307.497 66.1019L308.224 63.8942H307.65L307.166 65.2547C306.804 66.285 306.461 66.9796 306.138 67.3421C305.835 67.6867 305.523 67.8573 305.201 67.8573C304.858 67.8573 304.657 67.7065 304.596 67.4032ZM302.984 59.6134C302.757 60.3511 302.509 61.0529 302.24 61.7152C301.736 63.0075 301.202 64.1167 300.637 65.0447C300.094 65.9511 299.559 66.6565 299.036 67.1626C298.512 67.6455 298.048 67.8878 297.646 67.8878C297.262 67.8878 296.981 67.7065 296.8 67.3439C296.638 66.9598 296.558 66.3855 296.558 65.6191C296.558 64.5296 296.678 63.4203 296.92 62.2914C297.162 61.1426 297.494 60.0424 297.917 58.9942C298.308 58.0104 298.794 57.0677 299.368 56.1798C299.913 55.3326 300.486 54.6667 301.091 54.1821C301.715 53.6975 302.33 53.457 302.934 53.457C303.337 53.457 303.66 53.5988 303.902 53.8806C304.071 54.0637 304.2 54.3293 304.29 54.6811L302.984 59.6134Z" fill="#2F2352"/>
<path d="M284.485 68.7938H280.768L284.393 55.7559C284.576 55.151 284.635 54.7274 284.576 54.4851C284.515 54.2428 284.334 54.1225 284.031 54.1225C283.649 54.1225 283.296 54.3146 282.973 54.6969C282.65 55.0792 282.319 55.7559 281.976 56.7251L281.462 58.1449H280.888L281.673 55.8761C281.957 55.0684 282.308 54.4456 282.731 54.0005C283.154 53.5374 283.619 53.2143 284.123 53.0331C284.626 52.8518 285.139 52.7602 285.663 52.7602C286.308 52.7602 286.782 52.8913 287.083 53.1551C287.406 53.4172 287.608 53.76 287.689 54.1836C287.791 54.64 287.811 55.1112 287.748 55.5746C287.709 56.0592 287.628 56.5331 287.506 56.9961L287.02 58.8933L287.144 58.5702C287.709 57.1379 288.252 55.9982 288.776 55.151C289.321 54.2841 289.895 53.6684 290.499 53.3059C291.091 52.9456 291.772 52.7568 292.464 52.7602C293.189 52.7602 293.743 52.972 294.126 53.3956C294.53 53.8192 294.731 54.3433 294.731 54.9697C294.731 55.4723 294.609 55.9479 294.368 56.3913C294.134 56.8073 293.802 57.1602 293.4 57.4197C293.018 57.662 292.575 57.7823 292.071 57.7823C291.568 57.7823 291.164 57.6513 290.861 57.3892C290.58 57.1272 290.438 56.7431 290.438 56.2405C290.438 55.7954 290.54 55.3933 290.741 55.029C290.935 54.6743 291.204 54.3652 291.526 54.1225C291.849 53.8605 292.202 53.6792 292.584 53.5769C292.541 53.5353 292.491 53.5046 292.434 53.4872C292.365 53.4658 292.294 53.4556 292.222 53.4566C291.779 53.4566 291.325 53.6182 290.861 53.9413C290.398 54.2428 289.914 54.7382 289.41 55.4238C288.907 56.1095 288.394 57.0159 287.87 58.1449C287.278 59.4799 286.755 60.8433 286.298 62.23C286.07 62.9013 285.84 63.6228 285.611 64.3964L284.485 68.7938Z" fill="#2F2352"/>
<path fill-rule="evenodd" clip-rule="evenodd" d="M273.192 64.12L273.065 64.5903C272.875 65.2734 272.742 65.9718 272.672 66.6777C272.611 67.3239 272.711 67.8677 272.973 68.311C273.377 68.9159 274.062 69.2193 275.028 69.2193C275.492 69.2193 275.955 69.1277 276.42 68.9464C276.902 68.7651 277.356 68.4528 277.779 68.0077C278.202 67.5446 278.555 66.8985 278.837 66.0728L279.593 63.8652H279.018L278.564 65.2257C278.202 66.2739 277.85 66.9703 277.508 67.3131C277.165 67.6541 276.832 67.8264 276.509 67.8264C276.247 67.8264 276.077 67.7457 275.996 67.5841C275.934 67.3786 275.912 67.1625 275.935 66.9487C275.975 66.6923 276.036 66.4395 276.117 66.1931L280.016 52.7603C279.409 52.9055 278.794 53.0069 278.171 53.0636C277.547 53.1246 276.873 53.1641 276.147 53.1839L275.709 54.8028C275.692 54.3918 275.571 53.9916 275.362 53.638C275.204 53.3623 274.974 53.1349 274.698 52.9802C274.42 52.8254 274.106 52.7495 273.789 52.7603C272.903 52.7603 272.017 53.0331 271.13 53.5769C270.187 54.1703 269.34 54.9052 268.621 55.7559C267.807 56.6837 267.099 57.6978 266.505 58.7803C265.912 59.8658 265.435 61.0122 265.085 62.1995C264.755 63.2678 264.583 64.3785 264.573 65.4967C264.573 66.6275 264.834 67.5339 265.358 68.2195C265.881 68.8854 266.687 69.2175 267.775 69.2175C268.541 69.2175 269.276 68.9967 269.982 68.5534C270.707 68.1082 271.392 67.3723 272.037 66.3457C272.437 65.7264 272.821 64.9852 273.192 64.12ZM270.587 67.1911C270.122 67.6146 269.71 67.8264 269.348 67.8264C269.044 67.8264 268.813 67.6757 268.652 67.3723C268.51 67.0493 268.44 66.5162 268.44 65.7695C268.44 64.6998 268.56 63.6013 268.802 62.4723C269.044 61.3416 269.367 60.2539 269.771 59.2057C270.194 58.1557 270.657 57.2187 271.16 56.3913C271.664 55.5657 272.168 54.9087 272.672 54.4241C273.196 53.9395 273.689 53.699 274.153 53.699C274.635 53.699 274.978 53.9413 275.181 54.4241C275.381 54.8621 275.433 55.449 275.336 56.1831L274.444 59.4893L274.546 58.9634C274.223 60.2539 273.839 61.4439 273.396 62.5334C273.011 63.5074 272.546 64.448 272.007 65.3459C271.523 66.1321 271.049 66.7477 270.587 67.1911ZM260.509 66.2236C260.368 66.7082 260.328 67.1013 260.389 67.4028C260.448 67.7062 260.651 67.8569 260.993 67.8569C261.316 67.8569 261.628 67.6864 261.929 67.3436C262.252 66.9793 262.595 66.2846 262.957 65.2544L263.441 63.8939H264.015L263.29 66.1016C263.029 66.929 262.675 67.5644 262.232 68.0077C261.856 68.42 261.39 68.7409 260.872 68.9464C260.418 69.1225 259.937 69.2149 259.451 69.2193C258.203 69.2193 257.457 68.7239 257.215 67.7367C257.088 67.305 257.047 66.8524 257.095 66.4049C257.135 65.8808 257.255 65.2741 257.457 64.5903L257.656 63.84C257.368 64.4754 257.079 65.048 256.792 65.5577C256.107 66.8087 255.372 67.7367 254.587 68.3398C253.821 68.9188 252.885 69.2279 251.926 69.2193C251.282 69.2193 250.697 69.0757 250.174 68.7957C249.634 68.476 249.202 68.0014 248.935 67.4334C248.632 66.8087 248.481 66.0118 248.481 65.0444C248.481 64.1164 248.632 63.1059 248.935 62.0182C249.236 60.909 249.67 59.8105 250.233 58.721C250.791 57.6425 251.492 56.6451 252.318 55.7559C253.145 54.8477 254.061 54.1226 255.069 53.5769C256.102 53.0309 257.255 52.7504 258.424 52.7603C259.028 52.7603 259.502 52.9218 259.844 53.2449C260.041 53.419 260.19 53.6398 260.287 53.909L261.687 48.6159C261.87 47.9303 261.84 47.4259 261.598 47.1028C261.356 46.7798 260.741 46.6182 259.754 46.6182L259.966 45.9846C261.153 45.9778 262.335 45.8662 263.502 45.6508C264.504 45.437 265.485 45.1337 266.434 44.7444L260.509 66.2236ZM258.031 61.7149C258.3 61.0508 258.549 60.3508 258.775 59.6131L260.083 54.6808C260.02 54.3863 259.885 54.1116 259.693 53.8803C259.575 53.7412 259.426 53.631 259.26 53.5576C259.091 53.4842 258.91 53.4497 258.727 53.4567C258.123 53.4567 257.508 53.699 256.884 54.1818C256.278 54.6664 255.704 55.3323 255.16 56.1795C254.585 57.0665 254.099 58.0087 253.71 58.9921C253.28 60.0598 252.946 61.1639 252.713 62.2911C252.474 63.3843 252.353 64.4998 252.349 65.6187C252.349 66.3851 252.43 66.9595 252.591 67.3418C252.772 67.7062 253.055 67.8875 253.437 67.8875C253.841 67.8875 254.303 67.6452 254.827 67.1605C255.352 66.658 255.885 65.9508 256.43 65.0426C257.058 63.9813 257.594 62.8679 258.031 61.7149Z" fill="#2F2352"/>
<path d="M231.839 68.7938H235.556L235.906 67.4262L235.888 67.5249C236.272 66.1123 236.704 64.7518 237.188 63.4397C237.658 62.1876 238.182 60.9564 238.759 59.7495C239.304 58.6187 239.847 57.6315 240.392 56.7844C240.936 55.9372 241.459 55.282 241.963 54.8172C242.467 54.3326 242.93 54.092 243.353 54.092C243.695 54.092 243.907 54.2123 243.988 54.4546C244.072 54.7296 244.081 55.0216 244.018 55.3018C243.957 55.6297 243.876 55.9533 243.776 56.271L241.027 64.5903C240.744 65.4374 240.583 66.1626 240.543 66.7674C240.502 67.3723 240.613 67.8677 240.875 68.25C241.077 68.5533 241.359 68.7849 241.721 68.9464C242.105 69.1259 242.559 69.2192 243.082 69.2192C243.564 69.2192 244.049 69.1277 244.533 68.9464C245.037 68.7849 245.499 68.4815 245.922 68.0382C246.365 67.5949 246.729 66.9487 247.011 66.1015L247.766 63.8938H247.192L246.708 65.2544C246.326 66.3044 245.964 66.999 245.621 67.3418C245.298 67.6864 244.986 67.8569 244.683 67.8569C244.361 67.8569 244.16 67.7259 244.079 67.462C243.998 67.182 244.049 66.7674 244.23 66.2236L247.192 57.3282C247.454 56.542 247.585 55.8061 247.585 55.1205C247.604 54.4151 247.414 53.8497 247.011 53.4262C246.627 52.9828 245.942 52.762 244.956 52.762C244.21 52.762 243.495 52.9236 242.81 53.2449C242.125 53.5679 241.459 54.1315 240.816 54.9392C240.17 55.7254 239.505 56.7951 238.82 58.1449C238.364 59.0554 237.948 59.9841 237.57 60.9287L238.578 56.9961C238.7 56.5115 238.789 56.0269 238.85 55.5441C238.911 55.0415 238.89 54.5856 238.789 54.1818C238.693 53.7648 238.445 53.3983 238.095 53.1533C237.753 52.8913 237.249 52.7603 236.584 52.7603C235.777 52.7603 235.042 52.9828 234.377 53.4262C233.713 53.8695 233.168 54.6862 232.745 55.8762L231.959 58.1449H232.533L233.048 56.7233C233.41 55.7362 233.742 55.0595 234.045 54.6969C234.368 54.3146 234.719 54.1226 235.103 54.1226C235.384 54.1226 235.556 54.2033 235.617 54.3649C235.696 54.5264 235.718 54.7274 235.677 54.9697C235.632 55.235 235.571 55.4976 235.495 55.7559L231.839 68.7938Z" fill="#2F2352"/>
<path fill-rule="evenodd" clip-rule="evenodd" d="M224.136 64.5903L224.263 64.12C223.941 64.8925 223.553 65.637 223.109 66.3456C222.463 67.3723 221.778 68.11 221.052 68.5533C220.347 68.9967 219.612 69.2174 218.846 69.2174C217.758 69.2174 216.953 68.8854 216.429 68.2195C215.904 67.5338 215.642 66.6274 215.642 65.4967C215.642 64.4485 215.814 63.35 216.157 62.1995C216.506 61.0122 216.982 59.8658 217.577 58.7803C218.169 57.6974 218.879 56.6831 219.693 55.7559C220.412 54.9053 221.258 54.1703 222.201 53.5769C223.087 53.0331 223.975 52.7603 224.861 52.7603C225.546 52.7603 226.069 53.0528 226.433 53.6397C226.627 53.9395 226.743 54.3272 226.781 54.8028L227.218 53.1838C227.943 53.1641 228.619 53.1246 229.243 53.0636C229.888 53.0026 230.502 52.902 231.086 52.7603L227.188 66.1949C227.106 66.4411 227.045 66.6938 227.007 66.9505C226.984 67.1643 227.003 67.3804 227.068 67.5859C227.149 67.7474 227.319 67.8282 227.581 67.8282C227.903 67.8282 228.235 67.6577 228.578 67.3149C228.92 66.9721 229.273 66.2738 229.636 65.2274L230.089 63.8651H230.663L229.908 66.0728C229.627 66.9003 229.273 67.5446 228.85 68.0113C228.474 68.4225 228.009 68.7429 227.491 68.9482C227.048 69.1259 226.577 69.2183 226.1 69.221C225.133 69.221 224.448 68.9177 224.045 68.3128C223.783 67.8695 223.682 67.3256 223.743 66.6795C223.813 65.9737 223.944 65.2734 224.136 64.5903ZM220.417 67.8264C220.781 67.8264 221.194 67.6146 221.658 67.191C222.121 66.7477 222.594 66.1321 223.078 65.3459C223.561 64.5597 224.025 63.6228 224.468 62.5333C224.911 61.4438 225.294 60.2538 225.617 58.9615L225.515 59.4892L226.408 56.1849C226.503 55.449 226.451 54.862 226.252 54.4259C226.049 53.9413 225.707 53.699 225.223 53.699C224.76 53.699 224.267 53.9413 223.743 54.4241C223.24 54.9087 222.736 55.5638 222.232 56.3913C221.728 57.2169 221.264 58.1556 220.84 59.2038C220.433 60.2662 220.111 61.3582 219.874 62.4705C219.637 63.5543 219.515 64.6601 219.512 65.7695C219.512 66.5162 219.582 67.051 219.723 67.3723C219.885 67.6756 220.116 67.8264 220.417 67.8264Z" fill="#2F2352"/>
<path d="M217.737 53.7891L217.828 53.1842H214.227L215.651 48.2232C215.054 48.37 214.448 48.4714 213.838 48.5265C213.214 48.5857 212.538 48.627 211.814 48.6468L210.514 53.1842H207.763L207.613 53.7891H210.342L207.249 64.5906C206.987 65.4773 206.897 66.2742 206.978 66.9796C207.078 67.6652 207.36 68.2109 207.824 68.6129C208.307 69.0167 209.002 69.2196 209.91 69.2196C210.937 69.2196 211.823 68.9467 212.569 68.4011C213.315 67.8573 213.899 66.9598 214.323 65.7088L214.927 63.8942H214.351L213.899 65.1344C213.535 66.1432 213.134 66.8485 212.689 67.2524C212.266 67.6562 211.843 67.8573 211.419 67.8573C211.253 67.8626 211.088 67.83 210.935 67.7616C210.783 67.693 210.65 67.5907 210.544 67.4624C210.342 67.2021 210.322 66.7893 210.483 66.2239L214.054 53.7891H217.737ZM207.727 47.1642C207.527 47.6883 207.254 48.4565 206.912 49.4634C206.589 50.4506 206.268 51.7429 205.945 53.335H205.341C205.4 53.0532 205.441 52.7606 205.461 52.4591C205.499 52.1884 205.518 51.9156 205.522 51.6424C205.522 50.8544 205.361 50.1706 205.038 49.5855C204.728 48.9718 204.229 48.4732 203.618 48.1621C202.994 47.7996 202.187 47.6183 201.201 47.6183C200.132 47.6183 199.225 47.9001 198.48 48.4655C197.735 49.0093 197.362 49.887 197.362 51.0968C197.362 51.8434 197.532 52.5506 197.874 53.2147C198.238 53.8609 198.692 54.4962 199.235 55.1209C199.8 55.7257 200.394 56.3414 201.018 56.966C201.644 57.5709 202.228 58.1973 202.771 58.8416C203.315 59.4878 203.759 60.1734 204.102 60.8985C204.464 61.6057 204.645 62.3811 204.645 63.2283C204.645 64.298 204.383 65.2152 203.86 65.9816C203.349 66.7344 202.676 67.3646 201.895 67.8268C201.073 68.2966 200.187 68.6432 199.266 68.8552C198.378 69.0925 197.464 69.2149 196.546 69.2196C195.638 69.2196 194.883 69.1478 194.279 69.0078C193.761 68.9103 193.263 68.7367 192.798 68.4926C192.402 68.2755 192.009 68.0542 191.618 67.8285C191.439 67.679 191.235 67.5656 191.014 67.4947C190.872 67.4238 190.718 67.3823 190.562 67.3727C190.299 67.3727 190.078 67.5037 189.897 67.7675C189.658 68.1615 189.456 68.5759 189.293 69.006H188.687C189.185 67.7758 189.599 66.5127 189.927 65.226C190.168 64.298 190.44 63.1385 190.743 61.7457H191.347C191.261 62.1463 191.191 62.5498 191.136 62.9555C191.075 63.3593 191.055 63.7632 191.075 64.167C191.136 65.5778 191.568 66.6673 192.375 67.4337C193.202 68.2001 194.41 68.5824 196.001 68.5824C197.351 68.5824 198.369 68.3006 199.054 67.737C199.739 67.1519 200.082 66.3047 200.082 65.1955C200.082 64.3483 199.92 63.5801 199.598 62.8962C199.293 62.1849 198.886 61.5221 198.389 60.9291C197.876 60.3154 197.342 59.7202 196.788 59.145C196.23 58.5695 195.696 57.9738 195.185 57.3591C194.69 56.7481 194.272 56.0777 193.946 55.3632C193.616 54.5993 193.451 53.774 193.463 52.9419C193.463 51.935 193.675 51.0573 194.098 50.3106C194.523 49.5822 195.1 48.9533 195.789 48.4655C196.494 47.9611 197.281 47.5822 198.116 47.3455C198.927 47.0888 199.773 46.9563 200.625 46.9524C201.713 46.9524 202.61 47.0834 203.315 47.3473C204.021 47.6075 204.625 47.9216 205.129 48.2842L205.703 48.6468C205.884 48.7275 206.026 48.767 206.126 48.767C206.408 48.767 206.741 48.2339 207.123 47.1642H207.727Z" fill="#2F2352"/>
<path fill-rule="evenodd" clip-rule="evenodd" d="M178.555 67.4032C178.494 67.1016 178.535 66.7085 178.677 66.2239L184.6 44.7447C183.651 45.134 182.671 45.4373 181.668 45.6511C180.641 45.8539 179.463 45.9634 178.131 45.9849L177.92 46.6203C178.906 46.6203 179.524 46.7819 179.764 47.1049C180.006 47.428 180.037 47.9306 179.856 48.6162L178.452 53.9093C178.364 53.6539 178.212 53.4252 178.011 53.2452C177.669 52.9221 177.195 52.7606 176.591 52.7606C175.381 52.7606 174.264 53.0334 173.236 53.5773C172.203 54.1425 171.273 54.8793 170.486 55.7562C169.659 56.6449 168.957 57.6425 168.4 58.7214C167.851 59.7712 167.416 60.8765 167.1 62.0185C166.813 63.0021 166.661 64.0202 166.647 65.0447C166.647 66.0121 166.799 66.8091 167.1 67.4337C167.403 68.0385 167.816 68.4926 168.339 68.7942C168.863 69.0778 169.447 69.2178 170.093 69.2178C171.079 69.2178 171.967 68.927 172.752 68.3419C173.538 67.737 174.273 66.8091 174.958 65.558C175.245 65.0483 175.533 64.4757 175.822 63.8403L175.625 64.5906C175.441 65.1813 175.319 65.7894 175.261 66.4052C175.212 66.8527 175.253 67.3053 175.381 67.737C175.623 68.7242 176.367 69.2196 177.619 69.2196C178.081 69.2196 178.555 69.128 179.039 68.9467C179.524 68.7655 179.976 68.4532 180.399 68.008C180.844 67.5647 181.195 66.9311 181.457 66.1019L182.183 63.8942H181.609L181.125 65.2547C180.763 66.285 180.42 66.9796 180.098 67.3421C179.795 67.6867 179.483 67.8573 179.159 67.8573C178.818 67.8573 178.616 67.7065 178.555 67.4032ZM176.941 59.6134C176.715 60.3511 176.467 61.0529 176.197 61.7152C175.695 63.0075 175.16 64.1167 174.595 65.0447C174.052 65.9511 173.518 66.6565 172.994 67.1626C172.471 67.6455 172.008 67.8878 171.603 67.8878C171.221 67.8878 170.939 67.7065 170.758 67.3439C170.597 66.9598 170.516 66.3855 170.516 65.6191C170.516 64.5296 170.636 63.4203 170.878 62.2914C171.12 61.1426 171.452 60.0424 171.875 58.9942C172.265 58.0102 172.752 57.0676 173.328 56.1798C173.871 55.3326 174.445 54.6667 175.049 54.1821C175.673 53.6975 176.288 53.457 176.892 53.457C177.296 53.457 177.619 53.5988 177.861 53.8806C178.029 54.0637 178.158 54.3293 178.248 54.6811L176.941 59.6134Z" fill="#2F2352"/>
<path d="M153.718 68.7938H150.001L153.659 55.7559C153.739 55.4741 153.799 55.212 153.838 54.9697C153.883 54.7669 153.862 54.5551 153.779 54.3649C153.718 54.2033 153.546 54.1226 153.264 54.1226C152.882 54.1226 152.529 54.3146 152.206 54.6969C151.905 55.0595 151.572 55.7362 151.209 56.7251L150.697 58.1449H150.123L150.908 55.8762C151.331 54.6862 151.876 53.8695 152.54 53.4262C153.203 52.9828 153.939 52.762 154.745 52.762C155.411 52.762 155.915 52.8913 156.257 53.1533C156.608 53.398 156.856 53.7645 156.953 54.1818C157.053 54.5856 157.073 55.0397 157.014 55.5441C156.952 56.0332 156.861 56.518 156.741 56.9961L155.733 60.9305C156.16 59.8733 156.576 58.9472 156.983 58.1449C157.668 56.7951 158.332 55.7254 158.977 54.9392C159.623 54.1315 160.286 53.5679 160.971 53.2449C161.658 52.9218 162.371 52.7603 163.117 52.7603C164.104 52.7603 164.79 52.9828 165.172 53.4262C165.576 53.8497 165.768 54.4133 165.746 55.1205C165.746 55.8061 165.617 56.542 165.353 57.3282L162.393 66.2236C162.21 66.7674 162.16 67.182 162.241 67.462C162.321 67.7259 162.524 67.8569 162.847 67.8569C163.148 67.8569 163.46 67.6864 163.783 67.3436C164.125 66.999 164.487 66.3026 164.871 65.2544L165.355 63.8938H165.929L165.172 66.1015C164.891 66.9487 164.527 67.5949 164.086 68.04C163.706 68.4552 163.227 68.7669 162.694 68.9464C162.231 69.1243 161.74 69.2167 161.244 69.2192C160.72 69.2192 160.266 69.1277 159.884 68.9464C159.52 68.7849 159.239 68.5515 159.038 68.25C158.776 67.8677 158.665 67.3723 158.705 66.7674C158.746 66.1626 158.907 65.4374 159.189 64.5903L161.939 56.271C162.04 55.9479 162.12 55.6249 162.181 55.3018C162.245 55.0216 162.234 54.7296 162.151 54.4546C162.07 54.2123 161.859 54.092 161.516 54.092C161.093 54.092 160.629 54.3344 160.127 54.8172C159.623 55.282 159.097 55.9372 158.554 56.7844C157.951 57.7389 157.406 58.7291 156.922 59.7495C156.379 60.8803 155.854 62.1079 155.35 63.4397C154.866 64.75 154.435 66.1123 154.051 67.5249L154.069 67.4262L153.718 68.7938Z" fill="#2F2352"/>
<path fill-rule="evenodd" clip-rule="evenodd" d="M142.426 64.12L142.301 64.5902C142.11 65.2736 141.978 65.9719 141.906 66.6777C141.845 67.3238 141.946 67.8677 142.207 68.311C142.611 68.9159 143.296 69.2192 144.264 69.2192C144.781 69.2154 145.291 69.1061 145.764 68.8978C146.237 68.6896 146.663 68.3866 147.015 68.0077C147.438 67.5446 147.789 66.8985 148.073 66.0728L148.826 63.8651H148.252L147.8 65.2256C147.436 66.2738 147.083 66.9702 146.742 67.3131C146.4 67.6541 146.066 67.8264 145.745 67.8264C145.482 67.8264 145.311 67.7456 145.231 67.5841C145.168 67.3786 145.147 67.1625 145.17 66.9487C145.211 66.6867 145.27 66.4354 145.353 66.1931L149.251 52.7602C148.644 52.9055 148.028 53.0067 147.407 53.0636C146.782 53.1246 146.107 53.1641 145.381 53.1838L144.944 54.8028C144.925 54.3918 144.806 53.9917 144.596 53.6379C144.439 53.3624 144.209 53.1352 143.932 52.9805C143.656 52.8259 143.342 52.7497 143.025 52.7602C142.138 52.7602 141.25 53.0331 140.364 53.5769C139.478 54.1226 138.643 54.8477 137.856 55.7559C137.042 56.6831 136.332 57.6974 135.74 58.7802C135.145 59.8658 134.669 61.0122 134.32 62.1995C133.99 63.2678 133.817 64.3785 133.807 65.4967C133.807 66.6274 134.069 67.5338 134.592 68.2195C135.116 68.8854 135.923 69.2174 137.009 69.2174C137.775 69.2174 138.512 68.9967 139.215 68.5533C139.941 68.1082 140.628 67.3723 141.271 66.3456C141.671 65.7264 142.055 64.9851 142.426 64.12ZM139.821 67.191C139.358 67.6146 138.944 67.8264 138.582 67.8264C138.279 67.8264 138.047 67.6756 137.886 67.3723C137.746 67.0492 137.674 66.5161 137.674 65.7695C137.674 64.6997 137.796 63.6013 138.038 62.4723C138.279 61.3415 138.602 60.2538 139.005 59.2056C139.428 58.1556 139.891 57.2187 140.395 56.3913C140.898 55.5656 141.402 54.9087 141.906 54.4241C142.43 53.9395 142.923 53.699 143.387 53.699C143.871 53.699 144.212 53.9413 144.415 54.4241C144.616 54.862 144.666 55.449 144.571 56.1831L143.678 59.4892L143.78 58.9633C143.457 60.2538 143.075 61.4438 142.632 62.5333C142.188 63.621 141.725 64.5597 141.241 65.3459C140.757 66.132 140.283 66.7477 139.821 67.191Z" fill="#2F2352"/>
<path d="M125.725 68.7938H122.008L125.634 55.7559C125.815 55.151 125.876 54.7274 125.815 54.4851C125.756 54.2428 125.575 54.1225 125.272 54.1225C124.89 54.1225 124.536 54.3146 124.214 54.6969C123.891 55.0792 123.559 55.7559 123.217 56.7251L122.702 58.1449H122.128L122.914 55.8761C123.197 55.0684 123.548 54.4456 123.972 54.0005C124.395 53.5374 124.859 53.2143 125.363 53.0331C125.865 52.8518 126.38 52.7602 126.905 52.7602C127.549 52.7602 128.022 52.8913 128.323 53.1551C128.644 53.4127 128.859 53.7783 128.93 54.1836C129.03 54.6072 129.05 55.0702 128.989 55.5746C128.949 56.0592 128.869 56.5331 128.747 56.9961L128.263 58.8933L128.311 58.7623L128.384 58.5702C128.949 57.1379 129.493 55.9982 130.016 55.151C130.561 54.2841 131.135 53.6684 131.739 53.3059C132.331 52.9456 133.012 52.7568 133.705 52.7602C134.429 52.7602 134.983 52.972 135.367 53.3956C135.768 53.8192 135.971 54.3433 135.971 54.9697C135.971 55.4723 135.849 55.9479 135.607 56.3913C135.373 56.8073 135.041 57.1602 134.641 57.4197C134.241 57.6663 133.779 57.7922 133.31 57.7823C132.808 57.7823 132.405 57.6513 132.102 57.3892C131.82 57.1272 131.678 56.7431 131.678 56.2405C131.678 55.7954 131.779 55.3933 131.981 55.029C132.182 54.6664 132.444 54.3649 132.767 54.1225C133.09 53.8605 133.441 53.6792 133.825 53.5769C133.782 53.5356 133.731 53.5049 133.674 53.4872C133.634 53.4737 133.593 53.4645 133.55 53.4602C133.52 53.4575 133.491 53.4563 133.461 53.4566C133.02 53.4566 132.564 53.6182 132.102 53.9413C131.639 54.2428 131.155 54.7382 130.651 55.4238C130.149 56.1095 129.634 57.0159 129.109 58.1449C128.518 59.4799 127.994 60.8433 127.538 62.23C127.31 62.8995 127.081 63.6228 126.851 64.3964L125.725 68.7938Z" fill="#2F2352"/>
<path fill-rule="evenodd" clip-rule="evenodd" d="M120.071 48.4956C119.063 47.7687 117.452 47.4061 115.235 47.4061C114.55 47.4061 113.865 47.4169 113.179 47.4366C112.515 47.4564 111.749 47.4671 110.883 47.4671H109.372C108.827 47.4456 108.314 47.4366 107.83 47.4366C107.427 47.4189 107.024 47.3986 106.621 47.3756L106.471 47.9805C107.256 47.9805 107.79 48.081 108.072 48.2838C108.375 48.4633 108.515 48.7469 108.495 49.131C108.454 49.6208 108.373 50.1065 108.253 50.583L104.263 65.5882C104.084 66.3133 103.881 66.8589 103.659 67.2215C103.458 67.5683 103.135 67.8276 102.753 67.9484C102.37 68.0687 101.835 68.1495 101.15 68.1889L101.03 68.7938C101.371 68.7759 101.785 68.7651 102.268 68.7651C102.752 68.7436 103.266 68.7346 103.81 68.7346C105.33 68.6883 106.853 68.6985 108.373 68.7651C109.2 68.783 109.956 68.7956 110.641 68.7956C111.95 68.7956 113.189 68.6628 114.358 68.4007C115.436 68.1561 116.467 67.7379 117.41 67.1623C118.254 66.659 118.969 65.9642 119.496 65.1341C120.019 64.3264 120.281 63.3805 120.281 62.291C120.281 61.0597 119.779 60.0007 118.771 59.1141C117.785 58.2256 116.221 57.7015 114.086 57.54C115.418 57.3485 116.713 56.9507 117.923 56.3607C119.053 55.7756 119.939 55.0595 120.584 54.2123C121.234 53.408 121.586 52.4036 121.581 51.3692C121.581 50.1595 121.081 49.201 120.071 48.4956ZM110.424 57.9348L108.404 65.5882C108.283 66.0907 108.203 66.5359 108.163 66.9182C108.142 67.3023 108.242 67.5948 108.464 67.7977C108.687 67.9987 109.099 68.0992 109.704 68.0992C111.134 68.0992 112.303 67.8264 113.209 67.2825C114.096 66.7602 114.803 65.9795 115.235 65.0443C115.678 64.0751 115.899 62.9856 115.899 61.7777C115.899 61.0292 115.768 60.3741 115.506 59.8105C115.275 59.2379 114.861 58.7587 114.328 58.4482C113.785 58.1054 113.058 57.9348 112.151 57.9348H110.424ZM110.561 57.4197H111.941C113.089 57.4197 114.066 57.1271 114.871 56.542C115.698 55.9371 116.324 55.151 116.747 54.1836C117.187 53.2251 117.414 52.1819 117.41 51.1269C117.41 50.1182 117.209 49.3428 116.806 48.7971C116.424 48.2533 115.748 47.9805 114.78 47.9805C114.077 47.9805 113.573 48.1223 113.27 48.4041C112.969 48.6661 112.707 49.2405 112.485 50.1271L110.561 57.4197Z" fill="#2F2352"/>
<path d="M90.0192 32.8135C90.0812 34.0092 90.0812 35.2073 90.0192 36.4032H69.9777C70.053 35.8163 70.0888 35.2168 70.0888 34.6083H41.3992C41.399 35.2084 41.4361 35.8077 41.5103 36.4032H21.9745C21.9566 36.1053 21.9458 35.8073 21.9386 35.5058H7.68524L7.67448 35.0571H0V34.1596H7.67628L7.68345 33.7109H21.9386C21.9458 33.4112 21.9583 33.1114 21.9727 32.8135H90.0192Z" fill="#2F2352"/>
<path d="M69.6388 31.0186H89.8775C89.752 29.8017 89.5601 28.6045 89.3091 27.4288H22.6846C22.62 27.7268 22.559 28.0265 22.5052 28.3263H8.25007L8.16759 28.7858H0V29.6832H8.02593L7.96497 30.1211H22.2201C22.1807 30.4191 22.1448 30.7188 22.1126 31.0186H41.8546C42.0124 30.4029 42.2115 29.8052 42.4463 29.2237H69.047C69.2837 29.8081 69.4813 30.4078 69.6388 31.0186Z" fill="#2F2352"/>
<path d="M66.9437 25.634H88.8734C88.5399 24.4099 88.14 23.2091 87.6774 22.0425H24.3145C24.1961 22.3404 24.0814 22.6384 23.9738 22.9399H9.71862L9.57876 23.333H0V24.2322H9.27931L9.12152 24.7366H23.3767C23.287 25.0345 23.201 25.3343 23.1203 25.634H44.5479C45.0643 24.9879 45.6381 24.3884 46.2567 23.8391H65.2349C65.8548 24.3873 66.4266 24.9877 66.9437 25.634Z" fill="#2F2352"/>
<path d="M25.0855 20.2494H86.9063C86.3326 19.0109 85.6835 17.8119 84.9698 16.6595H27.0221C26.8392 16.9557 26.6599 17.2554 26.4859 17.557H12.2308L12.003 17.9591H0V18.8565H11.5171L11.2643 19.3519H25.5177C25.3688 19.6499 25.2254 19.9478 25.0855 20.2494Z" fill="#2F2352"/>
<path d="M89.8793 38.1981H22.1126C22.1445 38.4977 22.1803 38.7969 22.2201 39.0956H7.96497C7.98383 39.2368 8.00355 39.3781 8.02414 39.5191H0V40.4166H8.16579C8.19278 40.5747 8.22086 40.7327 8.25007 40.8904H22.5034C22.5592 41.1904 22.6189 41.4896 22.6828 41.7879H43.3178C42.9861 41.2135 42.6938 40.614 42.4428 39.993H69.0488C68.7978 40.614 68.5037 41.2135 68.172 41.7879H89.3091C89.5601 40.614 89.752 39.415 89.8793 38.1981Z" fill="#2F2352"/>
<path d="M88.8716 43.5827H23.1185C23.201 43.8842 23.287 44.1822 23.3767 44.4801H9.12331C9.17004 44.6354 9.21784 44.7903 9.26676 44.945H0V45.8424H9.56441L9.71862 46.275H23.9738C24.0832 46.5757 24.1969 46.8749 24.3145 47.1724H48.7957C47.8872 46.6675 47.0358 46.0657 46.2567 45.3776H65.2349C64.4558 46.0657 63.6044 46.6675 62.6959 47.1724H87.6774C88.14 46.0058 88.5399 44.8086 88.8716 43.5827Z" fill="#2F2352"/>
<path d="M86.9063 48.9673H25.0855V48.9691C25.2257 49.2703 25.3704 49.5695 25.5194 49.8666H11.2643L11.4848 50.2973H0V51.1948H11.9672C12.0532 51.3509 12.1411 51.5053 12.2308 51.6597H26.4841C26.6588 51.9616 26.8381 52.2606 27.0221 52.5571H84.9698C85.6865 51.4003 86.3331 50.2015 86.9063 48.9673Z" fill="#2F2352"/>
<path d="M31.1498 57.9417C30.8737 57.6473 30.6029 57.3494 30.3393 57.0442H16.0841C15.9568 56.8989 15.8313 56.7535 15.7076 56.6045H0V55.7071H14.9742L14.6192 55.2494H28.8743C28.6484 54.955 28.4297 54.6553 28.2145 54.3519H83.7774C82.881 55.6134 81.9004 56.8127 80.8421 57.9417H31.1498Z" fill="#2F2352"/>
<path d="M37.6139 63.3263C37.1657 63.0391 36.7228 62.7394 36.287 62.4289H22.0337C21.8436 62.2943 21.6535 62.1561 21.467 62.0161H0V61.1186H20.3105C20.1132 60.9607 19.9178 60.7991 19.7241 60.634H33.9793C33.635 60.3414 33.2961 60.0417 32.9644 59.7366H79.0292C77.5845 61.0642 76.0283 62.2654 74.3779 63.3263H37.6139Z" fill="#2F2352"/>
<path d="M55.995 68.7109C53.551 68.7109 51.168 68.4542 48.8692 67.9642C46.5705 68.4542 44.1857 68.7109 41.7417 68.7109C38.2774 68.7109 34.9332 68.194 31.7828 67.2319H0V66.3345H29.2186C28.9622 66.2322 28.7058 66.1263 28.4512 66.0186H42.7063C42.0483 65.7404 41.401 65.4406 40.7626 65.1212H71.2274C66.6443 67.4186 61.4712 68.7109 55.995 68.7109Z" fill="#2F2352"/>
<path d="M83.7774 14.8647H28.2145C28.4297 14.5632 28.6484 14.2634 28.8743 13.9673H14.621C14.7554 13.7896 14.8917 13.6137 15.0298 13.4396H0V12.5421H15.7686L16.0841 12.1724H30.3375C30.6029 11.8673 30.8737 11.5693 31.1498 11.275H80.8421C81.9004 12.4038 82.881 13.6031 83.7774 14.8647Z" fill="#2F2352"/>
<path d="M79.0275 9.48006H32.9626C33.2961 9.17494 33.635 8.87519 33.9793 8.58263H19.7259C19.9124 8.42468 20.1007 8.26853 20.2908 8.11417H0V7.21673H21.4455C21.6392 7.07138 21.8362 6.92962 22.0335 6.78786L36.287 6.78776C36.7228 6.47904 37.1657 6.17929 37.6139 5.89032H74.3779C76.0278 6.9513 77.5833 8.15231 79.0275 9.48006Z" fill="#2F2352"/>
<path d="M71.2292 4.09546H40.7644C41.402 3.77592 42.0497 3.47662 42.7063 3.19802H0V2.30059H30.8037C34.2375 1.13751 37.9152 0.505715 41.7417 0.505715C44.1371 0.504697 46.5262 0.755561 48.8692 1.25418C51.168 0.764176 53.551 0.505715 55.9968 0.505715C61.2843 0.497728 66.5006 1.72701 71.2292 4.09546Z" fill="#2F2352"/>
</svg>
