<svg width="155" height="29" viewBox="0 0 155 29" fill="none" xmlns="http://www.w3.org/2000/svg">
<g clip-path="url(#clip0_5006_41664)">
<path d="M10.4469 23.968C7.46073 26.9542 2.40329 26.9423 0.990883 22.9624C0.714354 22.1832 0.493259 21.382 0.330644 20.5645C-0.333309 17.2265 0.00745547 13.7667 1.30985 10.6224C2.61224 7.4782 4.81776 4.79076 7.64751 2.89998C10.4773 1.0092 13.8042 -1.45785e-07 17.2075 0C20.6108 1.45785e-07 23.9377 1.0092 26.7674 2.89998C29.5972 4.79076 31.8027 7.4782 33.1051 10.6225C34.4075 13.7667 34.7482 17.2265 34.0843 20.5645C33.9217 21.382 33.7006 22.1832 33.424 22.9624C32.0116 26.9423 26.9542 26.9542 23.968 23.968L19.3584 19.3584C18.918 18.918 18.9635 18.1917 19.085 17.5809C19.1588 17.2096 19.1209 16.8247 18.976 16.4749C18.8311 16.1251 18.5858 15.8261 18.271 15.6158C17.9562 15.4055 17.5861 15.2932 17.2075 15.2932C16.8289 15.2932 16.4588 15.4055 16.144 15.6158C15.8291 15.8261 15.5838 16.1251 15.4389 16.4749C15.294 16.8247 15.2561 17.2096 15.33 17.5809C15.4515 18.1917 15.4969 18.918 15.0565 19.3584L10.4469 23.968Z" fill="url(#paint0_linear_5006_41664)"/>
<path d="M48.4138 19.8368H53.0391V22.5625H44.8828V8.06689H48.4138V19.8368Z" fill="#3A3B7B"/>
<path d="M59.3492 22.7275C58.2204 22.7275 57.2017 22.4866 56.2931 22.0048C55.3984 21.523 54.6894 20.8347 54.1663 19.9399C53.657 19.0451 53.4023 17.9989 53.4023 16.8012C53.4023 15.6174 53.6638 14.578 54.1869 13.6832C54.7101 12.7747 55.4259 12.0795 56.3344 11.5977C57.243 11.1159 58.2617 10.875 59.3905 10.875C60.5193 10.875 61.538 11.1159 62.4465 11.5977C63.3551 12.0795 64.0709 12.7747 64.594 13.6832C65.1171 14.578 65.3787 15.6174 65.3787 16.8012C65.3787 17.9851 65.1102 19.0313 64.5734 19.9399C64.0503 20.8347 63.3276 21.523 62.4052 22.0048C61.4967 22.4866 60.478 22.7275 59.3492 22.7275ZM59.3492 19.6714C60.0237 19.6714 60.595 19.4237 61.0631 18.9281C61.5449 18.4325 61.7858 17.7236 61.7858 16.8012C61.7858 15.8789 61.5517 15.17 61.0837 14.6744C60.6294 14.1788 60.065 13.931 59.3905 13.931C58.7022 13.931 58.1309 14.1788 57.6766 14.6744C57.2223 15.1562 56.9952 15.8651 56.9952 16.8012C56.9952 17.7236 57.2155 18.4325 57.656 18.9281C58.1103 19.4237 58.6747 19.6714 59.3492 19.6714Z" fill="#3A3B7B"/>
<path d="M71.0093 10.875C71.8215 10.875 72.5305 11.0402 73.1362 11.3706C73.7556 11.7009 74.2306 12.1346 74.561 12.6714V11.0402H78.0919V22.5416C78.0919 23.6016 77.8786 24.5584 77.4518 25.4118C77.0388 26.2791 76.3987 26.9674 75.5315 27.4767C74.678 27.9861 73.6111 28.2408 72.3309 28.2408C70.6239 28.2408 69.2404 27.8347 68.1804 27.0225C67.1205 26.224 66.5147 25.1365 66.3633 23.7599H69.853C69.9631 24.2004 70.2247 24.5446 70.6377 24.7924C71.0506 25.0539 71.56 25.1847 72.1657 25.1847C72.8953 25.1847 73.4734 24.9713 73.9002 24.5446C74.3407 24.1316 74.561 23.464 74.561 22.5416V20.9104C74.2168 21.4472 73.7419 21.8878 73.1362 22.2319C72.5305 22.5623 71.8215 22.7275 71.0093 22.7275C70.0595 22.7275 69.1991 22.4866 68.4282 22.0048C67.6573 21.5092 67.0447 20.814 66.5905 19.9192C66.15 19.0107 65.9297 17.9645 65.9297 16.7806C65.9297 15.5967 66.15 14.5574 66.5905 13.6626C67.0447 12.7678 67.6573 12.0795 68.4282 11.5977C69.1991 11.1159 70.0595 10.875 71.0093 10.875ZM74.561 16.8012C74.561 15.9202 74.3132 15.225 73.8176 14.7157C73.3358 14.2064 72.7438 13.9517 72.0418 13.9517C71.3397 13.9517 70.7409 14.2064 70.2453 14.7157C69.7635 15.2113 69.5226 15.8996 69.5226 16.7806C69.5226 17.6616 69.7635 18.3637 70.2453 18.8868C70.7409 19.3961 71.3397 19.6508 72.0418 19.6508C72.7438 19.6508 73.3358 19.3961 73.8176 18.8868C74.3132 18.3774 74.561 17.6823 74.561 16.8012Z" fill="#3A3B7B"/>
<path d="M85.2731 22.7275C84.1443 22.7275 83.1256 22.4866 82.2171 22.0048C81.3223 21.523 80.6133 20.8347 80.0902 19.9399C79.5809 19.0451 79.3262 17.9989 79.3262 16.8012C79.3262 15.6174 79.5877 14.578 80.1109 13.6832C80.634 12.7747 81.3498 12.0795 82.2583 11.5977C83.1669 11.1159 84.1856 10.875 85.3144 10.875C86.4432 10.875 87.4619 11.1159 88.3704 11.5977C89.279 12.0795 89.9948 12.7747 90.5179 13.6832C91.041 14.578 91.3026 15.6174 91.3026 16.8012C91.3026 17.9851 91.0342 19.0313 90.4973 19.9399C89.9742 20.8347 89.2515 21.523 88.3291 22.0048C87.4206 22.4866 86.4019 22.7275 85.2731 22.7275ZM85.2731 19.6714C85.9476 19.6714 86.5189 19.4237 86.987 18.9281C87.4688 18.4325 87.7097 17.7236 87.7097 16.8012C87.7097 15.8789 87.4756 15.17 87.0076 14.6744C86.5533 14.1788 85.9889 13.931 85.3144 13.931C84.6261 13.931 84.0548 14.1788 83.6005 14.6744C83.1463 15.1562 82.9191 15.8651 82.9191 16.8012C82.9191 17.7236 83.1394 18.4325 83.5799 18.9281C84.0342 19.4237 84.5986 19.6714 85.2731 19.6714Z" fill="#3A3B7B"/>
<path d="M94.3328 9.84252C93.7133 9.84252 93.204 9.66356 92.8048 9.30565C92.4193 8.93397 92.2266 8.47969 92.2266 7.94282C92.2266 7.39218 92.4193 6.9379 92.8048 6.57998C93.204 6.2083 93.7133 6.02246 94.3328 6.02246C94.9385 6.02246 95.4341 6.2083 95.8195 6.57998C96.2187 6.9379 96.4183 7.39218 96.4183 7.94282C96.4183 8.47969 96.2187 8.93397 95.8195 9.30565C95.4341 9.66356 94.9385 9.84252 94.3328 9.84252ZM96.0879 11.0402V22.5623H92.557V11.0402H96.0879Z" fill="#3A3B7B"/>
<path d="M101.556 12.6714C101.9 12.1346 102.375 11.7009 102.981 11.3706C103.587 11.0402 104.296 10.875 105.108 10.875C106.058 10.875 106.918 11.1159 107.689 11.5977C108.46 12.0795 109.066 12.7678 109.506 13.6626C109.96 14.5574 110.188 15.5967 110.188 16.7806C110.188 17.9645 109.96 19.0107 109.506 19.9192C109.066 20.814 108.46 21.5092 107.689 22.0048C106.918 22.4866 106.058 22.7275 105.108 22.7275C104.309 22.7275 103.601 22.5623 102.981 22.2319C102.375 21.9015 101.9 21.4748 101.556 20.9517V28.0549H98.0254V11.0402H101.556V12.6714ZM106.595 16.7806C106.595 15.8996 106.347 15.2113 105.851 14.7157C105.369 14.2064 104.771 13.9517 104.055 13.9517C103.353 13.9517 102.754 14.2064 102.258 14.7157C101.777 15.225 101.536 15.9202 101.536 16.8012C101.536 17.6823 101.777 18.3774 102.258 18.8868C102.754 19.3961 103.353 19.6508 104.055 19.6508C104.757 19.6508 105.356 19.3961 105.851 18.8868C106.347 18.3637 106.595 17.6616 106.595 16.7806Z" fill="#3A3B7B"/>
<path d="M116.11 22.7275C115.105 22.7275 114.21 22.5554 113.425 22.2113C112.641 21.8671 112.021 21.3991 111.567 20.8071C111.113 20.2014 110.858 19.5269 110.803 18.7835H114.293C114.334 19.1827 114.52 19.5062 114.85 19.754C115.181 20.0018 115.587 20.1257 116.069 20.1257C116.509 20.1257 116.846 20.0431 117.08 19.8779C117.328 19.699 117.452 19.4718 117.452 19.1965C117.452 18.8661 117.28 18.6252 116.936 18.4738C116.592 18.3086 116.034 18.1297 115.263 17.9369C114.437 17.7442 113.749 17.5446 113.198 17.3381C112.648 17.1179 112.173 16.7806 111.774 16.3263C111.374 15.8583 111.175 15.2319 111.175 14.4473C111.175 13.7865 111.354 13.1877 111.712 12.6508C112.083 12.1002 112.62 11.6665 113.322 11.3499C114.038 11.0333 114.885 10.875 115.862 10.875C117.307 10.875 118.443 11.2329 119.269 11.9487C120.109 12.6646 120.591 13.6144 120.715 14.7983H117.452C117.397 14.3991 117.218 14.0825 116.915 13.8484C116.626 13.6144 116.241 13.4974 115.759 13.4974C115.346 13.4974 115.029 13.58 114.809 13.7452C114.589 13.8966 114.479 14.11 114.479 14.3853C114.479 14.7157 114.651 14.9635 114.995 15.1287C115.353 15.2939 115.903 15.4591 116.647 15.6242C117.5 15.8445 118.195 16.0648 118.732 16.285C119.269 16.4915 119.737 16.8356 120.136 17.3175C120.549 17.7855 120.763 18.4187 120.777 19.2172C120.777 19.8917 120.584 20.4974 120.198 21.0343C119.827 21.5574 119.283 21.9704 118.567 22.2732C117.865 22.5761 117.046 22.7275 116.11 22.7275Z" fill="#3A3B7B"/>
<path d="M133.694 11.0405V22.5626H130.163V20.9933C129.805 21.5026 129.316 21.9156 128.697 22.2322C128.091 22.5351 127.417 22.6865 126.673 22.6865C125.792 22.6865 125.014 22.4938 124.34 22.1083C123.665 21.7091 123.142 21.1378 122.771 20.3945C122.399 19.6511 122.213 18.777 122.213 17.772V11.0405H125.723V17.2971C125.723 18.068 125.923 18.6668 126.322 19.0936C126.721 19.5203 127.258 19.7337 127.933 19.7337C128.621 19.7337 129.165 19.5203 129.564 19.0936C129.963 18.6668 130.163 18.068 130.163 17.2971V11.0405H133.694Z" fill="#3A3B7B"/>
<path d="M150.313 10.9165C151.744 10.9165 152.88 11.3501 153.72 12.2174C154.573 13.0846 155 14.2891 155 15.8309V22.5625H151.49V16.3059C151.49 15.5625 151.29 14.9912 150.891 14.592C150.505 14.179 149.969 13.9725 149.28 13.9725C148.592 13.9725 148.048 14.179 147.649 14.592C147.264 14.9912 147.071 15.5625 147.071 16.3059V22.5625H143.56V16.3059C143.56 15.5625 143.361 14.9912 142.962 14.592C142.576 14.179 142.039 13.9725 141.351 13.9725C140.663 13.9725 140.119 14.179 139.72 14.592C139.334 14.9912 139.142 15.5625 139.142 16.3059V22.5625H135.611V11.0404H139.142V12.4858C139.5 12.004 139.968 11.6254 140.546 11.3501C141.124 11.061 141.778 10.9165 142.507 10.9165C143.375 10.9165 144.146 11.1023 144.82 11.474C145.508 11.8457 146.045 12.3757 146.431 13.064C146.83 12.4307 147.374 11.9145 148.062 11.5153C148.75 11.1161 149.501 10.9165 150.313 10.9165Z" fill="#3A3B7B"/>
</g>
<defs>
<linearGradient id="paint0_linear_5006_41664" x1="32.8486" y1="8.60374" x2="2.30537" y2="8.60374" gradientUnits="userSpaceOnUse">
<stop stop-color="#64C2DB"/>
<stop offset="0.510417" stop-color="#7476ED"/>
<stop offset="1" stop-color="#E56F8C"/>
</linearGradient>
<clipPath id="clip0_5006_41664">
<rect width="155" height="29" fill="white"/>
</clipPath>
</defs>
</svg>
