<svg width="138" height="55" viewBox="0 0 138 55" fill="none" xmlns="http://www.w3.org/2000/svg">
<g clip-path="url(#clip0_5006_41564)">
<path d="M6.58271 5.82313C6.94151 4.12638 8.63891 2.75 10.3681 2.75H19.7686L11.9509 39.6316H2.55035C0.819831 39.6316 -0.29245 38.2566 0.0677304 36.5585L6.58271 5.82313ZM37.9184 5.82313C38.2786 4.12638 39.9746 2.75 41.7037 2.75H51.1043L43.2866 39.6316H33.886C32.1555 39.6316 31.0432 38.2566 31.4034 36.5585L37.9184 5.82313ZM100.591 5.82313C100.95 4.12638 102.645 2.75 104.376 2.75H113.777L105.959 39.6316H96.5574C94.8268 39.6316 93.7159 38.2566 94.0761 36.5585L100.591 5.82313ZM54.2383 2.75H63.6388C65.3694 2.75 66.4816 4.125 66.1215 5.82313L59.6065 36.5585C59.2477 38.2566 57.5517 39.6316 55.8211 39.6316H46.4206L54.2383 2.75ZM116.911 2.75H126.312C128.042 2.75 129.154 4.125 128.794 5.82313L122.278 36.5585C121.919 38.2566 120.224 39.6316 118.494 39.6316H109.092L116.911 2.75ZM69.2554 5.82313C69.6142 4.12638 71.3089 2.75 73.0394 2.75H82.4413L74.6223 39.6316H65.2217C63.4912 39.6316 62.3789 38.2566 62.7405 36.5585L69.2554 5.82313ZM85.5739 2.75H94.9759C96.7064 2.75 97.8173 4.125 97.4571 5.82313L87.6853 51.9269C87.3238 53.6236 85.6291 55 83.8986 55H74.4967L85.5739 2.75ZM17.6904 27.3377H30.2249L28.2708 36.5585C27.9106 38.2566 26.2146 39.6316 24.4855 39.6316H15.0835L17.689 27.3391L17.6904 27.3377ZM61.4377 42.7061H73.9709L71.3655 55H61.9649C60.233 55 59.1221 53.625 59.4823 51.9269L61.4377 42.7061ZM95.4603 45.5648L93.8733 53.053C93.8043 53.3747 93.6966 53.4627 93.3682 53.4627H92.6464C92.318 53.4627 92.2462 53.3747 92.3152 53.053L93.9022 45.5648C93.9712 45.2444 94.0789 45.155 94.4073 45.155H95.1291C95.4575 45.155 95.5293 45.2444 95.4603 45.5648ZM97.5468 50.6165H97.3992C97.2418 50.6165 97.1866 50.6605 97.1549 50.8159L96.6802 53.053C96.6112 53.3747 96.5022 53.4627 96.1751 53.4627H95.452C95.1249 53.4627 95.0532 53.3747 95.1208 53.053L96.7078 45.5648C96.7768 45.2444 96.8872 45.155 97.2142 45.155H98.7046C100.421 45.155 101.071 45.7641 100.754 47.2587L100.489 48.5114C100.172 50.0074 99.2635 50.6165 97.5468 50.6165ZM97.9829 46.9054L97.5689 48.8661C97.5344 49.0215 97.5703 49.0655 97.729 49.0655H97.9663C98.5183 49.0655 98.815 48.8441 98.9351 48.279L99.1007 47.4925C99.2208 46.9288 99.0193 46.706 98.4659 46.706H98.2285C98.0712 46.706 98.016 46.75 97.9829 46.9054ZM103.141 48.1126L104.314 49.3982C104.93 50.0624 105.015 50.4611 104.858 51.2036L104.817 51.403C104.52 52.7986 103.813 53.5741 102.175 53.5741C100.539 53.5741 100.134 52.921 100.512 51.1362L100.559 50.9162C100.628 50.5945 100.737 50.5051 101.064 50.5051H101.832C102.16 50.5051 102.232 50.5945 102.163 50.9149L102.059 51.403C101.966 51.8457 102.109 52.0231 102.504 52.0231C102.9 52.0231 103.115 51.8581 103.201 51.4594L103.245 51.2476C103.311 50.9369 103.275 50.7829 102.936 50.4171L101.832 49.2319C101.213 48.5788 101.135 48.2006 101.292 47.4581L101.343 47.2161C101.64 45.8205 102.346 45.0436 103.983 45.0436C105.621 45.0436 106.026 45.6981 105.647 47.4815L105.601 47.7029C105.532 48.0246 105.422 48.1126 105.095 48.1126H104.327C104 48.1126 103.928 48.0246 103.996 47.7029L104.099 47.2161C104.193 46.772 104.051 46.596 103.655 46.596C103.26 46.596 103.043 46.761 102.959 47.1598L102.919 47.3481C102.85 47.6699 102.886 47.8253 103.141 48.1126ZM109.754 45.5648C109.823 45.2444 109.931 45.155 110.259 45.155H110.981C111.31 45.155 111.381 45.2444 111.312 45.5648L110.131 51.1376C109.753 52.921 109.073 53.5741 107.435 53.5741C105.798 53.5741 105.394 52.921 105.772 51.1362L106.953 45.5648C107.022 45.2444 107.131 45.155 107.458 45.155H108.181C108.508 45.155 108.58 45.2444 108.512 45.5648L107.274 51.403C107.181 51.8457 107.335 52.0231 107.764 52.0231C108.181 52.0231 108.423 51.8457 108.516 51.403L109.754 45.5648ZM114.455 50.0734C114.459 50.1627 114.488 50.1834 114.544 50.1834C114.599 50.1834 114.639 50.1627 114.681 50.0734L116.632 45.4437C116.727 45.21 116.841 45.155 117.123 45.155H118.219C118.546 45.155 118.618 45.2444 118.55 45.5648L116.963 53.053C116.894 53.3747 116.784 53.4627 116.457 53.4627H115.938C115.611 53.4627 115.538 53.3747 115.607 53.053L116.369 49.4642C116.389 49.3652 116.371 49.3419 116.304 49.3419C116.258 49.3419 116.207 49.3653 116.18 49.4423L114.604 53.0984C114.49 53.3638 114.346 53.4627 114.018 53.4627H113.712C113.373 53.4627 113.271 53.3638 113.271 53.0984L113.232 49.4409C113.225 49.3639 113.207 49.3419 113.15 49.3419C113.083 49.3419 113.055 49.3652 113.035 49.4642L112.274 53.053C112.205 53.3747 112.098 53.4627 111.769 53.4627H111.25C110.922 53.4627 110.85 53.3747 110.919 53.053L112.506 45.5648C112.575 45.2444 112.684 45.155 113.011 45.155H113.949C114.344 45.155 114.471 45.2444 114.468 45.6321L114.455 50.0734ZM138 2.75C138 4.26938 136.772 5.5 135.258 5.5C134.897 5.49891 134.539 5.42692 134.206 5.28811C133.872 5.14932 133.57 4.94642 133.315 4.69105C133.061 4.43567 132.859 4.1328 132.722 3.79974C132.585 3.46669 132.515 3.10999 132.516 2.75C132.516 1.23062 133.744 0 135.258 0C136.772 0 138 1.23062 138 2.75Z" fill="#1D2633"/>
</g>
<defs>
<clipPath id="clip0_5006_41564">
<rect width="138" height="55" fill="white"/>
</clipPath>
</defs>
</svg>
