<svg width="123" height="61" viewBox="0 0 123 61" fill="none" xmlns="http://www.w3.org/2000/svg">
<g clip-path="url(#clip0_5006_41646)">
<path d="M0.0371094 54.0002H11.3898V50.7675H3.49893V35.6729H0.0371094V54.0002Z" fill="#333268"/>
<path d="M18.2108 54.3817C19.5854 54.3817 20.7945 54.0762 21.8381 53.4653C22.8902 52.8459 23.709 51.9932 24.2945 50.9072C24.8884 49.8126 25.1854 48.5526 25.1854 47.1272C25.1854 45.7102 24.8926 44.4587 24.3072 43.3726C23.7217 42.2781 22.9029 41.4211 21.8508 40.8017C20.8072 40.1823 19.5939 39.8726 18.2108 39.8726C16.8532 39.8726 15.6526 40.1781 14.609 40.789C13.5654 41.3999 12.7466 42.2526 12.1526 43.3472C11.5587 44.4332 11.2617 45.6932 11.2617 47.1272C11.2617 48.5441 11.5502 49.7999 12.1272 50.8944C12.7126 51.9805 13.5272 52.8332 14.5708 53.4526C15.6145 54.072 16.8278 54.3817 18.2108 54.3817ZM18.2108 51.149C17.1332 51.149 16.3145 50.7884 15.7545 50.0672C15.2029 49.3375 14.9272 48.3575 14.9272 47.1272C14.9272 45.9308 15.1902 44.9635 15.7163 44.2253C16.2508 43.4787 17.0823 43.1053 18.2108 43.1053C19.3054 43.1053 20.1284 43.4702 20.6799 44.1999C21.2399 44.9296 21.5199 45.9053 21.5199 47.1272C21.5199 48.3066 21.2442 49.2738 20.6926 50.029C20.1496 50.7756 19.3223 51.149 18.2108 51.149Z" fill="#333268"/>
<path d="M32.0315 54.3817C32.6764 54.3817 33.2703 54.3053 33.8134 54.1526C34.3649 53.9999 34.8655 53.7835 35.3152 53.5035V54.8908C35.3322 55.3999 35.2006 55.8241 34.9206 56.1635C34.6491 56.5114 34.2843 56.7702 33.8261 56.9399C33.3679 57.1181 32.88 57.2072 32.3625 57.2072C31.8788 57.2072 31.4291 57.1011 31.0134 56.889C30.6061 56.6769 30.2921 56.3672 30.0715 55.9599L26.8643 57.5126C27.3903 58.4035 28.1412 59.1205 29.117 59.6635C30.0928 60.215 31.1661 60.4908 32.337 60.4908C33.3467 60.4908 34.2843 60.355 35.1497 60.0835C36.0152 59.8205 36.7449 59.4175 37.3388 58.8744C37.9412 58.3314 38.3528 57.6399 38.5734 56.7999C38.6497 56.5029 38.7006 56.2017 38.7261 55.8962C38.76 55.5993 38.777 55.2811 38.777 54.9417V40.2544H35.7479V41.0181C35.2812 40.6532 34.7509 40.3732 34.157 40.1781C33.5715 39.9744 32.9225 39.8726 32.2097 39.8726C30.8946 39.8726 29.7491 40.1866 28.7734 40.8144C27.7976 41.4423 27.0382 42.3035 26.4952 43.3981C25.9606 44.4841 25.6934 45.7272 25.6934 47.1272C25.6934 48.5017 25.9564 49.7362 26.4825 50.8308C27.017 51.9253 27.7594 52.7908 28.7097 53.4272C29.66 54.0635 30.7673 54.3817 32.0315 54.3817ZM32.5915 51.3017C31.8449 51.3017 31.234 51.115 30.7588 50.7417C30.2837 50.3684 29.9315 49.8678 29.7025 49.2399C29.4734 48.6035 29.3588 47.8993 29.3588 47.1272C29.3588 46.3635 29.4776 45.6678 29.7152 45.0399C29.9528 44.4035 30.3176 43.8987 30.8097 43.5253C31.3103 43.1435 31.9467 42.9526 32.7188 42.9526C33.8049 42.9526 34.5812 43.3387 35.0479 44.1108C35.5146 44.8744 35.7479 45.8799 35.7479 47.1272C35.7479 48.3744 35.5103 49.3841 35.0352 50.1562C34.5685 50.9199 33.754 51.3017 32.5915 51.3017Z" fill="#333268"/>
<path d="M46.9999 54.3817C48.3745 54.3817 49.5836 54.0762 50.6272 53.4653C51.6793 52.8459 52.4981 51.9932 53.0836 50.9072C53.6775 49.8126 53.9745 48.5526 53.9745 47.1272C53.9745 45.7102 53.6817 44.4587 53.0963 43.3726C52.5108 42.2781 51.692 41.4211 50.6399 40.8017C49.5963 40.1823 48.3829 39.8726 46.9999 39.8726C45.6423 39.8726 44.4417 40.1781 43.3981 40.789C42.3545 41.3999 41.5357 42.2526 40.9417 43.3472C40.3478 44.4332 40.0508 45.6932 40.0508 47.1272C40.0508 48.5441 40.3393 49.7999 40.9163 50.8944C41.5017 51.9805 42.3163 52.8332 43.3599 53.4526C44.4036 54.072 45.6169 54.3817 46.9999 54.3817ZM46.9999 51.149C45.9223 51.149 45.1035 50.7884 44.5435 50.0672C43.992 49.3375 43.7163 48.3575 43.7163 47.1272C43.7163 45.9308 43.9793 44.9635 44.5054 44.2253C45.0399 43.4787 45.8714 43.1053 46.9999 43.1053C48.0945 43.1053 48.9175 43.4702 49.469 44.1999C50.029 44.9296 50.309 45.9053 50.309 47.1272C50.309 48.3066 50.0332 49.2738 49.4817 50.029C48.9387 50.7756 48.1114 51.149 46.9999 51.149Z" fill="#333268"/>
<path d="M55.5 38.3455H58.9618V35.291H55.5V38.3455ZM55.5 54.0001H58.9618V40.2546H55.5V54.0001Z" fill="#333268"/>
<path d="M61.2246 60.109H64.7119V53.5035C65.1616 53.7835 65.658 53.9999 66.201 54.1526C66.7525 54.3053 67.3507 54.3817 67.9955 54.3817C69.2598 54.3817 70.3671 54.0635 71.3174 53.4272C72.2677 52.7908 73.0058 51.9253 73.5319 50.8308C74.0664 49.7362 74.3337 48.5017 74.3337 47.1272C74.3337 45.7272 74.0622 44.4841 73.5192 43.3981C72.9846 42.3035 72.2295 41.4423 71.2537 40.8144C70.278 40.1866 69.1325 39.8726 67.8174 39.8726C67.1046 39.8726 66.4513 39.9744 65.8573 40.1781C65.2719 40.3732 64.7458 40.6532 64.2792 41.0181V40.2544H61.2246V60.109ZM67.4355 51.3017C66.2816 51.3017 65.4671 50.9199 64.9919 50.1562C64.5167 49.3841 64.2792 48.3744 64.2792 47.1272C64.2792 45.8799 64.5125 44.8744 64.9792 44.1108C65.4543 43.3387 66.2307 42.9526 67.3083 42.9526C68.0804 42.9526 68.7125 43.1435 69.2046 43.5253C69.7052 43.8987 70.0743 44.4035 70.3119 45.0399C70.5495 45.6678 70.6683 46.3635 70.6683 47.1272C70.6683 47.8993 70.5537 48.6035 70.3246 49.2399C70.0955 49.8678 69.7434 50.3684 69.2683 50.7417C68.7931 51.115 68.1822 51.3017 67.4355 51.3017Z" fill="#333268"/>
<path d="M80.6053 54.3817C82.4041 54.3817 83.8125 53.9787 84.8307 53.1726C85.8489 52.3665 86.358 51.2593 86.358 49.8508C86.358 48.7817 86.0271 47.9375 85.3653 47.3181C84.7119 46.6987 83.6004 46.1853 82.0307 45.7781C80.9616 45.5065 80.1641 45.2859 79.638 45.1162C79.1204 44.9466 78.7768 44.7811 78.6071 44.6199C78.4459 44.4587 78.3653 44.2593 78.3653 44.0217C78.3653 43.6229 78.5562 43.3175 78.938 43.1053C79.3283 42.8932 79.8416 42.8084 80.478 42.8508C81.8271 42.9526 82.5653 43.5296 82.6925 44.5817L86.2307 43.9453C86.0526 42.6981 85.4416 41.7096 84.398 40.9799C83.3544 40.2417 82.0222 39.8726 80.4016 39.8726C78.7386 39.8726 77.4107 40.2629 76.418 41.0435C75.4253 41.8241 74.9289 42.8762 74.9289 44.1999C74.9289 45.252 75.2725 46.0835 75.9598 46.6944C76.6471 47.2969 77.8307 47.8144 79.5107 48.2472C80.5035 48.5102 81.2332 48.7223 81.6998 48.8835C82.175 49.0447 82.4804 49.2102 82.6162 49.3799C82.7519 49.5411 82.8198 49.7575 82.8198 50.029C82.8198 50.4617 82.6501 50.8011 82.3107 51.0472C81.9713 51.2847 81.4877 51.4035 80.8598 51.4035C80.0962 51.4035 79.4641 51.2211 78.9635 50.8562C78.4713 50.4914 78.1532 49.9866 78.0089 49.3417L74.4707 49.8762C74.6998 51.3102 75.3447 52.4217 76.4053 53.2108C77.4744 53.9914 78.8744 54.3817 80.6053 54.3817Z" fill="#333268"/>
<path d="M92.7439 54.4072C93.7366 54.4072 94.6021 54.2417 95.3403 53.9108C96.0785 53.5799 96.6979 53.1387 97.1985 52.5872V53.9999H100.253V40.2544H96.7657V47.229C96.7657 48.0775 96.6682 48.7647 96.473 49.2908C96.2863 49.8084 96.0446 50.2029 95.7476 50.4744C95.4507 50.7375 95.1324 50.9156 94.793 51.009C94.4536 51.1023 94.1354 51.149 93.8385 51.149C93.1003 51.149 92.5275 50.9835 92.1203 50.6526C91.7215 50.3217 91.433 49.9102 91.2548 49.4181C91.0766 48.9259 90.9706 48.4381 90.9366 47.9544C90.9027 47.4623 90.8857 47.0593 90.8857 46.7453V40.2544H87.373V47.9672C87.373 48.1962 87.3901 48.5611 87.424 49.0617C87.4579 49.5623 87.5555 50.1181 87.7167 50.729C87.878 51.3314 88.1451 51.9126 88.5185 52.4726C88.9003 53.0326 89.4307 53.495 90.1095 53.8599C90.7883 54.2247 91.6663 54.4072 92.7439 54.4072Z" fill="#333268"/>
<path d="M102.258 54.0002H105.745V45.6765C105.745 44.8875 105.961 44.2469 106.394 43.7547C106.835 43.2541 107.416 43.0038 108.138 43.0038C108.893 43.0038 109.483 43.2584 109.907 43.7675C110.339 44.2681 110.556 44.9723 110.556 45.8802V54.0002H114.018V45.6765C114.018 44.8875 114.234 44.2469 114.667 43.7547C115.108 43.2541 115.689 43.0038 116.41 43.0038C117.166 43.0038 117.755 43.2584 118.179 43.7675C118.612 44.2681 118.829 44.9723 118.829 45.8802V54.0002H122.29V44.9638C122.29 43.462 121.887 42.2487 121.081 41.3238C120.284 40.3905 119.1 39.9238 117.53 39.9238C116.648 39.9238 115.838 40.1147 115.099 40.4965C114.361 40.8784 113.772 41.4002 113.33 42.062C112.974 41.4172 112.465 40.8996 111.803 40.5093C111.141 40.119 110.318 39.9238 109.334 39.9238C108.502 39.9238 107.739 40.0893 107.043 40.4202C106.347 40.7426 105.77 41.1881 105.312 41.7565V40.2547H102.258V54.0002Z" fill="#333268"/>
<path d="M0 14.5C7.00093e-07 6.49187 6.49187 -7.0009e-07 14.5 0C18.8417 3.7957e-07 22.7378 1.90824 25.3952 4.93177C30.2168 10.345 34.2038 10.0602 38.4379 6.06395C40.5154 4.10244 43.3173 2.9 46.4 2.9C52.8065 2.90001 58 8.0935 58 14.5C58 20.9065 52.8065 26.1 46.4 26.1C43.3173 26.1 40.5154 24.8975 38.4379 22.936C34.2048 18.9407 30.2187 18.655 25.3987 24.0642C22.7412 27.0901 18.8436 29 14.5 29C6.49187 29 -7.00091e-07 22.5081 0 14.5Z" fill="#F2F5FA"/>
<path d="M0 14.5C7.00093e-07 6.49187 6.49187 -7.0009e-07 14.5 0C18.8417 3.7957e-07 22.7378 1.90824 25.3952 4.93177C30.2168 10.345 34.2038 10.0602 38.4379 6.06395C40.5154 4.10244 43.3173 2.9 46.4 2.9C52.8065 2.90001 58 8.0935 58 14.5C58 20.9065 52.8065 26.1 46.4 26.1C43.3173 26.1 40.5154 24.8975 38.4379 22.936C34.2048 18.9407 30.2187 18.655 25.3987 24.0642C22.7412 27.0901 18.8436 29 14.5 29C6.49187 29 -7.00091e-07 22.5081 0 14.5Z" fill="url(#paint0_linear_5006_41646)"/>
<path d="M0 14.5C7.00093e-07 6.49187 6.49187 -7.0009e-07 14.5 0C18.8417 3.7957e-07 22.7378 1.90824 25.3952 4.93177C30.2168 10.345 34.2038 10.0602 38.4379 6.06395C40.5154 4.10244 43.3173 2.9 46.4 2.9C52.8065 2.90001 58 8.0935 58 14.5C58 20.9065 52.8065 26.1 46.4 26.1C43.3173 26.1 40.5154 24.8975 38.4379 22.936C34.2048 18.9407 30.2187 18.655 25.3987 24.0642C22.7412 27.0901 18.8436 29 14.5 29C6.49187 29 -7.00091e-07 22.5081 0 14.5Z" fill="url(#paint1_linear_5006_41646)"/>
<path d="M0 14.5C7.00093e-07 6.49187 6.49187 -7.0009e-07 14.5 0C18.8417 3.7957e-07 22.7378 1.90824 25.3952 4.93177C30.2168 10.345 34.2038 10.0602 38.4379 6.06395C40.5154 4.10244 43.3173 2.9 46.4 2.9C52.8065 2.90001 58 8.0935 58 14.5C58 20.9065 52.8065 26.1 46.4 26.1C43.3173 26.1 40.5154 24.8975 38.4379 22.936C34.2048 18.9407 30.2187 18.655 25.3987 24.0642C22.7412 27.0901 18.8436 29 14.5 29C6.49187 29 -7.00091e-07 22.5081 0 14.5Z" fill="url(#paint2_radial_5006_41646)"/>
<path d="M0 14.5C7.00093e-07 6.49187 6.49187 -7.0009e-07 14.5 0C18.8417 3.7957e-07 22.7378 1.90824 25.3952 4.93177C30.2168 10.345 34.2038 10.0602 38.4379 6.06395C40.5154 4.10244 43.3173 2.9 46.4 2.9C52.8065 2.90001 58 8.0935 58 14.5C58 20.9065 52.8065 26.1 46.4 26.1C43.3173 26.1 40.5154 24.8975 38.4379 22.936C34.2048 18.9407 30.2187 18.655 25.3987 24.0642C22.7412 27.0901 18.8436 29 14.5 29C6.49187 29 -7.00091e-07 22.5081 0 14.5Z" fill="url(#paint3_radial_5006_41646)"/>
<path d="M0 14.5C7.00093e-07 6.49187 6.49187 -7.0009e-07 14.5 0C18.8417 3.7957e-07 22.7378 1.90824 25.3952 4.93177C30.2168 10.345 34.2038 10.0602 38.4379 6.06395C40.5154 4.10244 43.3173 2.9 46.4 2.9C52.8065 2.90001 58 8.0935 58 14.5C58 20.9065 52.8065 26.1 46.4 26.1C43.3173 26.1 40.5154 24.8975 38.4379 22.936C34.2048 18.9407 30.2187 18.655 25.3987 24.0642C22.7412 27.0901 18.8436 29 14.5 29C6.49187 29 -7.00091e-07 22.5081 0 14.5Z" fill="url(#paint4_radial_5006_41646)"/>
</g>
<defs>
<linearGradient id="paint0_linear_5006_41646" x1="43.6961" y1="21.7069" x2="10.3036" y2="-4.24328" gradientUnits="userSpaceOnUse">
<stop stop-color="#FF557E"/>
<stop offset="0.841052" stop-color="#FF5555" stop-opacity="0"/>
</linearGradient>
<linearGradient id="paint1_linear_5006_41646" x1="14.5023" y1="27.0553" x2="23.4238" y2="-3.84997" gradientUnits="userSpaceOnUse">
<stop stop-color="#58CCDC"/>
<stop offset="1" stop-color="#58CCDC" stop-opacity="0"/>
</linearGradient>
<radialGradient id="paint2_radial_5006_41646" cx="0" cy="0" r="1" gradientUnits="userSpaceOnUse" gradientTransform="translate(45.4879 35.041) rotate(-122.928) scale(37.051 30.3393)">
<stop stop-color="#8263DB"/>
<stop offset="0.568731" stop-color="#8172DA" stop-opacity="0.26"/>
<stop offset="1" stop-color="#8172DA" stop-opacity="0"/>
</radialGradient>
<radialGradient id="paint3_radial_5006_41646" cx="0" cy="0" r="1" gradientUnits="userSpaceOnUse" gradientTransform="translate(18.3021 -4.19503) rotate(77.6745) scale(24.9567 39.2264)">
<stop stop-color="#41D1B7"/>
<stop offset="0.492704" stop-color="#41D1B7" stop-opacity="0.35"/>
<stop offset="1" stop-color="#41D1B7" stop-opacity="0"/>
</radialGradient>
<radialGradient id="paint4_radial_5006_41646" cx="0" cy="0" r="1" gradientUnits="userSpaceOnUse" gradientTransform="translate(59.6446 -10.7446) rotate(125.113) scale(27.1121 57.4261)">
<stop stop-color="#FFEC45"/>
<stop offset="0.549191" stop-color="#FFEC45" stop-opacity="0.3"/>
<stop offset="0.961144" stop-color="#FFEC45" stop-opacity="0"/>
</radialGradient>
<clipPath id="clip0_5006_41646">
<rect width="123" height="61" fill="white"/>
</clipPath>
</defs>
</svg>
