<svg width="257" height="309" viewBox="0 0 257 309" fill="none" xmlns="http://www.w3.org/2000/svg">
<path d="M124.266 1.06061C126.593 -0.353536 129.513 -0.353535 131.839 1.06061L252.603 74.4778C254.778 75.7999 256.105 78.1607 256.105 80.7059V228.205C256.105 230.75 254.778 233.111 252.603 234.433L131.839 307.85C129.513 309.264 126.593 309.264 124.266 307.85L3.50238 234.433C1.3276 233.111 0 230.75 0 228.205V80.7059C0 78.1607 1.32761 75.7999 3.50239 74.4778L124.266 1.06061Z" fill="white"/>
<path d="M31.8556 149.295L38.6978 161.742H46.6225L53.3874 149.295H56.7505V147.033H46.6031V149.295H49.5217L44.6316 158.379L39.6449 149.295H43.2207V147.033H28.4731V149.295H31.8556ZM119.201 149.295V147.033H132.788V149.295H129.406V159.461H132.537C135.436 159.461 137.369 157.529 137.369 154.919H139.592V161.742H119.201V159.461H122.622V149.275H119.201V149.295ZM86.2263 146.724C79.4034 146.724 75.789 150.126 75.789 154.397C75.789 158.669 79.2681 162.187 86.265 162.187C93.2812 162.187 96.7216 158.727 96.7216 154.397C96.7216 150.068 93.0493 146.724 86.2263 146.724ZM86.149 159.848C83.6557 159.809 82.5733 157.045 82.6119 154.32C82.6699 151.479 84.0229 149.005 86.3616 149.043C88.681 149.082 89.9181 151.595 89.8794 154.455C89.8214 157.103 88.7197 159.887 86.149 159.867V159.848ZM162.786 149.295L169.648 161.742H177.572L184.318 149.295H187.7V147.033H177.534V149.295H180.472L175.562 158.379L170.595 149.295H174.151V147.033H159.404V149.295H162.786ZM217.176 146.724C210.353 146.724 206.739 150.126 206.739 154.397C206.739 158.669 210.199 162.187 217.195 162.187C224.192 162.187 227.633 158.727 227.633 154.397C227.633 150.068 224.018 146.724 217.195 146.724H217.176ZM217.099 159.848C214.605 159.809 213.504 157.045 213.562 154.32C213.62 151.479 214.973 149.005 217.292 149.043C219.631 149.082 220.868 151.595 220.81 154.455C220.771 157.103 219.65 159.887 217.099 159.867V159.848Z" fill="black"/>
</svg>
