<svg width="72" height="72" viewBox="0 0 72 72" fill="none" xmlns="http://www.w3.org/2000/svg">
<path d="M48.3952 37.2924C48.3952 37.2924 47.998 37.3192 47.803 37.3501C47.0496 37.4714 46.8255 37.6754 46.8255 38.603V45.9199C46.8255 46.9176 47.4468 46.9771 48.3233 47.0264C50.4627 47.1477 51.7054 45.2474 51.7054 42.174C51.7054 39.0987 50.4709 37.2924 48.3952 37.2924C48.3952 37.2924 47.998 37.3192 47.803 37.3501C47.0496 37.4714 46.8255 37.6754 46.8255 38.603V45.9199C46.8255 46.9176 47.4468 46.9771 48.3233 47.0264C50.4627 47.1477 51.7054 45.2474 51.7054 42.174C51.7054 39.0987 50.4709 37.2924 48.3952 37.2924ZM25.9375 37.3997C24.0187 37.3997 22.8337 39.2305 22.8337 42.265C22.8337 45.2314 23.9996 47.027 25.9726 47.027C27.892 47.027 29.0954 45.1612 29.0954 42.2322C29.0954 39.2657 27.8735 37.3997 25.9375 37.3997ZM37.39 37.3997C35.4706 37.3997 34.2832 39.2305 34.2832 42.265C34.2832 45.2314 35.4522 47.027 37.4245 47.027C39.3421 47.027 40.5455 45.1612 40.5455 42.2322C40.5455 39.2657 39.3254 37.3997 37.39 37.3997ZM48.3952 37.2924C48.3952 37.2924 47.998 37.3192 47.803 37.3501C47.0496 37.4714 46.8255 37.6754 46.8255 38.603V45.9199C46.8255 46.9176 47.4468 46.9771 48.3233 47.0264C50.4627 47.1477 51.7054 45.2474 51.7054 42.174C51.7054 39.0987 50.4709 37.2924 48.3952 37.2924C48.3952 37.2924 47.998 37.3192 47.803 37.3501C47.0496 37.4714 46.8255 37.6754 46.8255 38.603V45.9199C46.8255 46.9176 47.4468 46.9771 48.3233 47.0264C50.4627 47.1477 51.7054 45.2474 51.7054 42.174C51.7054 39.0987 50.4711 37.2929 48.3954 37.2929M37.39 37.3997C35.4706 37.3997 34.2832 39.2305 34.2832 42.265C34.2832 45.2314 35.4522 47.027 37.4245 47.027C39.3421 47.027 40.5455 45.1612 40.5455 42.2322C40.5455 39.2657 39.3254 37.3997 37.39 37.3997ZM25.9375 37.3997C24.0187 37.3997 22.8337 39.2305 22.8337 42.265C22.8337 45.2314 23.9996 47.027 25.9726 47.027C27.892 47.027 29.0954 45.1612 29.0954 42.2322C29.0954 39.2657 27.8735 37.3997 25.9375 37.3997ZM27.5055 54.5958C27.4763 54.5423 27.0465 53.6534 26.9953 53.5422C26.9478 53.4435 26.8288 53.4375 26.7854 53.5465C26.7361 53.6678 26.3121 54.5198 26.2836 54.5811C26.236 54.6822 26.2895 54.7481 26.3865 54.7481H27.4002C27.4746 54.7481 27.5483 54.682 27.5055 54.5958ZM25.9375 37.3997C24.0187 37.3997 22.8337 39.2305 22.8337 42.265C22.8337 45.2314 23.9996 47.027 25.9726 47.027C27.892 47.027 29.0954 45.1612 29.0954 42.2322C29.0954 39.2657 27.8735 37.3997 25.9375 37.3997ZM37.39 37.3997C35.4706 37.3997 34.2832 39.2305 34.2832 42.265C34.2832 45.2314 35.4522 47.027 37.4245 47.027C39.3421 47.027 40.5455 45.1612 40.5455 42.2322C40.5455 39.2657 39.3254 37.3997 37.39 37.3997ZM48.3954 37.2929C48.3954 37.2929 47.9982 37.3198 47.8032 37.3507C47.0498 37.472 46.8256 37.676 46.8256 38.6036V45.9205C46.8256 46.9182 47.447 46.9777 48.3235 47.027C50.4628 47.1483 51.7056 45.248 51.7056 42.1746C51.7056 39.0993 50.4711 37.2929 48.3954 37.2929C48.3954 37.2929 47.9982 37.3198 47.8032 37.3507C47.0498 37.472 46.8256 37.676 46.8256 38.6036V45.9205C46.8256 46.9182 47.447 46.9777 48.3235 47.027C50.4628 47.1483 51.7056 45.248 51.7056 42.1746C51.7056 39.0993 50.4711 37.2929 48.3954 37.2929ZM37.3901 37.4003C35.4708 37.4003 34.2834 39.2311 34.2834 42.2656C34.2834 45.232 35.4523 47.0276 37.4247 47.0276C39.3422 47.0276 40.5457 45.1618 40.5457 42.2327C40.5457 39.2663 39.3256 37.4003 37.3901 37.4003ZM25.9376 37.4003C24.0188 37.4003 22.8338 39.2311 22.8338 42.2656C22.8338 45.232 23.9998 47.0276 25.9727 47.0276C27.8921 47.0276 29.0956 45.1618 29.0956 42.2327C29.0956 39.2663 27.8737 37.4003 25.9376 37.4003ZM27.5055 54.5958C27.4763 54.5423 27.0465 53.6534 26.9953 53.5422C26.9478 53.4435 26.8288 53.4375 26.7854 53.5465C26.7361 53.6678 26.3121 54.5198 26.2836 54.5811C26.236 54.6822 26.2895 54.7481 26.3865 54.7481H27.4002C27.4746 54.7481 27.5484 54.6825 27.5056 54.5963C27.4764 54.5428 27.0465 53.6539 26.9954 53.5427C26.9478 53.444 26.8289 53.438 26.7855 53.5469C26.7361 53.6682 26.3122 54.5203 26.2836 54.5815C26.2361 54.6826 26.2896 54.7486 26.3865 54.7486H27.4003C27.4746 54.7486 27.5484 54.6825 27.5056 54.5963M25.9376 37.4003C24.0188 37.4003 22.8338 39.2311 22.8338 42.2656C22.8338 45.232 23.9998 47.0276 25.9727 47.0276C27.8921 47.0276 29.0956 45.1618 29.0956 42.2327C29.0956 39.2663 27.8737 37.4003 25.9376 37.4003ZM34.1069 52.7836H32.8149C32.6811 52.7836 32.5414 52.8305 32.5414 52.9971V53.9395C32.5414 54.0875 32.6811 54.1737 32.8149 54.1737H34.1069C34.541 54.1737 34.8948 53.9454 34.8948 53.4787C34.8948 53.0119 34.541 52.7836 34.1069 52.7836ZM37.3901 37.4003C35.4708 37.4003 34.2834 39.2311 34.2834 42.2656C34.2834 45.232 35.4523 47.0276 37.4247 47.0276C39.3422 47.0276 40.5457 45.1618 40.5457 42.2327C40.5457 39.2663 39.3256 37.4003 37.3901 37.4003ZM48.3954 37.2929C48.3954 37.2929 47.9982 37.3198 47.8032 37.3507C47.0498 37.472 46.8256 37.676 46.8256 38.6036V45.9205C46.8256 46.9182 47.447 46.9777 48.3235 47.027C50.4628 47.1483 51.7056 45.248 51.7056 42.1746C51.7056 39.0993 50.4711 37.2929 48.3954 37.2929C48.3954 37.2929 47.9982 37.3198 47.8032 37.3507C47.0498 37.472 46.8256 37.676 46.8256 38.6036V45.9205C46.8256 46.9182 47.447 46.9777 48.3235 47.027C50.4628 47.1483 51.7056 45.248 51.7056 42.1746C51.7056 39.0993 50.4715 37.2933 48.3958 37.2933M37.3901 37.4003C35.4708 37.4003 34.2834 39.2311 34.2834 42.2656C34.2834 45.232 35.4523 47.0276 37.4247 47.0276C39.3422 47.0276 40.5457 45.1618 40.5457 42.2327C40.5457 39.2663 39.3256 37.4003 37.3901 37.4003ZM25.9376 37.4003C24.0188 37.4003 22.8338 39.2311 22.8338 42.2656C22.8338 45.232 23.9998 47.0276 25.9727 47.0276C27.8921 47.0276 29.0956 45.1618 29.0956 42.2327C29.0956 39.2663 27.8737 37.4003 25.9376 37.4003ZM34.1069 52.7836H32.8149C32.6811 52.7836 32.5414 52.8305 32.5414 52.9971V53.9395C32.5414 54.0875 32.6811 54.1737 32.8149 54.1737H34.1069C34.541 54.1737 34.8948 53.9454 34.8948 53.4787C34.8948 53.0119 34.541 52.7836 34.1069 52.7836ZM27.5056 54.5963C27.4764 54.5428 27.0465 53.6539 26.9954 53.5427C26.9478 53.444 26.8289 53.438 26.7855 53.5469C26.7361 53.6682 26.3122 54.5203 26.2836 54.5815C26.2361 54.6826 26.2896 54.7486 26.3865 54.7486H27.4003C27.4746 54.7486 27.5484 54.6825 27.5056 54.5963C27.4764 54.5428 27.0465 53.6539 26.9954 53.5427C26.9478 53.444 26.8289 53.438 26.7855 53.5469C26.7361 53.6682 26.3122 54.5203 26.2836 54.5815C26.2361 54.6826 26.2896 54.7486 26.3865 54.7486H27.4003C27.4746 54.7486 27.5484 54.6825 27.5056 54.5963ZM25.9376 37.4003C24.0188 37.4003 22.8338 39.2311 22.8338 42.2656C22.8338 45.232 23.9998 47.0276 25.9727 47.0276C27.8921 47.0276 29.0956 45.1618 29.0956 42.2327C29.0956 39.2663 27.8737 37.4003 25.9376 37.4003ZM34.1069 52.7836H32.8149C32.6811 52.7836 32.5414 52.8305 32.5414 52.9971V53.9395C32.5414 54.0875 32.6811 54.1737 32.8149 54.1737H34.1069C34.541 54.1737 34.8948 53.9454 34.8948 53.4787C34.8948 53.0119 34.541 52.7836 34.1069 52.7836ZM37.3901 37.4003C35.4708 37.4003 34.2834 39.2311 34.2834 42.2656C34.2834 45.232 35.4523 47.0276 37.4247 47.0276C39.3422 47.0276 40.5457 45.1618 40.5457 42.2327C40.5457 39.2663 39.3256 37.4003 37.3901 37.4003ZM48.3958 37.2933C48.3958 37.2933 47.9987 37.3198 47.8036 37.3508C47.0503 37.4721 46.8261 37.676 46.8261 38.6036V45.9206C46.8261 46.9183 47.4474 46.9778 48.3239 47.0271C50.4633 47.1484 51.706 45.248 51.706 42.1747C51.706 39.0994 50.4715 37.2933 48.3958 37.2933C48.3958 37.2933 47.9987 37.3198 47.8036 37.3508C47.0503 37.4721 46.8261 37.676 46.8261 38.6036V45.9206C46.8261 46.9183 47.4474 46.9778 48.3239 47.0271C50.4633 47.1484 51.706 45.248 51.706 42.1747C51.706 39.0994 50.4715 37.2933 48.3958 37.2933ZM37.3906 37.4004C35.4712 37.4004 34.2838 39.2312 34.2838 42.2656C34.2838 45.2321 35.4528 47.0277 37.4251 47.0277C39.3427 47.0277 40.5462 45.1618 40.5462 42.2328C40.5462 39.2664 39.3261 37.4004 37.3906 37.4004ZM25.9381 37.4004C24.0193 37.4004 22.8343 39.2312 22.8343 42.2656C22.8343 45.2321 24.0003 47.0277 25.9732 47.0277C27.8926 47.0277 29.0961 45.1618 29.0961 42.2328C29.0961 39.2664 27.8741 37.4004 25.9381 37.4004ZM34.1075 52.7839H32.8154C32.6816 52.7839 32.5419 52.8308 32.5419 52.9974V53.9398C32.5419 54.0878 32.6816 54.1741 32.8154 54.1741H34.1075C34.5415 54.1741 34.8953 53.9457 34.8953 53.479C34.8953 53.0122 34.5415 52.7839 34.1075 52.7839ZM27.5056 54.5963C27.4764 54.5428 27.0465 53.6539 26.9954 53.5427C26.9478 53.444 26.8289 53.438 26.7855 53.5469C26.7361 53.6682 26.3122 54.5203 26.2836 54.5815C26.2361 54.6826 26.2896 54.7486 26.3865 54.7486H27.4003C27.4746 54.7486 27.5484 54.6825 27.5056 54.5963ZM63.0655 47.9288C63.0655 47.8075 62.9442 47.7783 62.8246 47.7783H62.6605V48.0768H62.7836C62.934 48.0768 63.0655 48.0685 63.0655 47.9288ZM63.0655 48.6732L62.761 48.2433H62.6582V48.6732H62.4768V47.6119H62.8758C63.1249 47.6119 63.2379 47.7106 63.2379 47.9288C63.2379 48.1405 63.1208 48.2225 62.9668 48.2392L63.2748 48.6732L63.0655 48.6732ZM62.8205 47.4388C62.4108 47.4388 62.1064 47.7456 62.1064 48.169C62.1064 48.5929 62.4108 48.8974 62.8205 48.8974C63.2319 48.8974 63.534 48.5929 63.534 48.169C63.534 47.7456 63.2319 47.4388 62.8205 47.4388ZM26.9932 53.5423C26.9456 53.4436 26.8267 53.4376 26.7833 53.5466C26.7339 53.6679 26.31 54.5199 26.2814 54.5812C26.2339 54.6822 26.2874 54.7482 26.3843 54.7482H27.3981C27.4724 54.7482 27.5461 54.6822 27.5033 54.596C27.4741 54.5425 27.0443 53.6535 26.9932 53.5423ZM25.9353 37.4002C24.0165 37.4002 22.8315 39.231 22.8315 42.2654C22.8315 45.2319 23.9975 47.0275 25.9704 47.0275C27.8898 47.0275 29.0933 45.1616 29.0933 42.2326C29.0933 39.2662 27.8713 37.4002 25.9353 37.4002ZM34.1047 52.7837H32.8126C32.6788 52.7837 32.5391 52.8306 32.5391 52.9971V53.9396C32.5391 54.0876 32.6788 54.1738 32.8126 54.1738H34.1047C34.5387 54.1738 34.8925 53.9455 34.8925 53.4787C34.8925 53.012 34.5387 52.7837 34.1047 52.7837ZM37.388 37.4001C35.4687 37.4001 34.2813 39.2309 34.2813 42.2654C34.2813 45.2318 35.4503 47.0275 37.4226 47.0275C39.3401 47.0275 40.5436 45.1616 40.5436 42.2326C40.5436 39.2661 39.3235 37.4001 37.388 37.4001ZM51.7037 42.175C51.7037 39.0998 50.4693 37.2936 48.3935 37.2936C48.3935 37.2936 47.9963 37.3203 47.8013 37.3513C47.0479 37.4726 46.8238 37.6765 46.8238 38.6041V45.921C46.8238 46.9188 47.4451 46.9782 48.3216 47.0276C50.461 47.1489 51.7037 45.2484 51.7037 42.175ZM63.7479 33.708C63.6784 34.0285 63.4786 34.1463 63.1266 34.1463L62.6807 34.1482H55.8318C55.2438 34.1482 55.044 34.031 55.044 33.6421C55.044 33.3853 55.2438 33.173 55.478 33.173H55.8318C55.9531 33.173 56.075 33.066 56.1119 32.9488C56.1654 32.8067 56.1797 32.7205 56.1797 32.2496V24.4408C56.1797 23.9883 56.1654 23.8973 56.1119 23.7558C56.075 23.6012 55.9347 23.4966 55.8318 23.4966H55.478C55.2438 23.4966 55.0297 23.2682 55.0297 23.009C55.0297 22.6219 55.2438 22.4965 55.8318 22.4965H62.8034C63.1554 22.4965 63.3528 22.6142 63.4247 22.9347L63.6715 24.1488C63.766 24.5972 63.6079 24.838 63.2891 24.838C63.1203 24.838 62.958 24.7946 62.8402 24.5663C62.82 24.5312 62.7481 24.404 62.6678 24.1899C62.4971 23.741 62.1451 23.6857 61.3323 23.6857H59.687C58.7345 23.6857 58.6275 23.8111 58.6275 24.7387V26.8127C58.6275 27.2034 58.6828 27.374 58.788 27.4442C58.8683 27.4995 58.9979 27.512 59.4979 27.512H60.3102C61.0427 27.512 61.1474 27.4584 61.2009 27.1088L61.2134 27.0018C61.2669 26.7057 61.4233 26.5659 61.6867 26.5659C62.0524 26.5659 62.1743 26.7735 62.1743 27.3865V28.8534C62.1743 29.4641 62.0524 29.674 61.6867 29.674C61.4233 29.674 61.2669 29.5158 61.2134 29.2197L61.195 29.1043C61.1433 28.7547 61.0386 28.703 60.3043 28.703H59.498C58.998 28.703 58.8683 28.7155 58.788 28.7708C58.6828 28.8409 58.6275 29.0098 58.6275 29.4028V31.6159C58.6275 32.5399 58.6828 32.735 58.9587 32.842C59.1829 32.9264 59.4255 32.9633 59.9975 32.9633L61.7337 32.959C62.3569 32.959 62.7974 32.764 63.0133 32.3115C63.112 32.1058 63.1429 32.0273 63.1637 31.9922C63.2809 31.7639 63.4658 31.6634 63.6364 31.6634C63.9534 31.6634 64.1097 31.9042 64.017 32.3526L63.7479 33.708ZM62.8204 49.0792C62.3161 49.0792 61.913 48.6719 61.913 48.1694C61.913 47.6634 62.3161 47.2585 62.8204 47.2585C63.3222 47.2585 63.7277 47.6634 63.7277 48.1694C63.7277 48.6719 63.3222 49.0792 62.8204 49.0792ZM58.7533 48.2914C58.1093 48.2914 57.4184 48.2004 56.9201 48.044C56.6692 47.9762 56.6407 47.9578 56.542 47.9578C56.3939 47.9578 56.3196 47.9929 56.1697 48.1308C56.005 48.2563 55.9188 48.2914 55.7642 48.2914C55.4723 48.2914 55.3284 48.1308 55.2255 47.7128L54.7849 45.9665C54.7522 45.8619 54.7397 45.7031 54.7397 45.6169C54.7397 45.3065 54.9805 45.0717 55.2909 45.0717C55.4723 45.0717 55.6221 45.1644 55.7292 45.3065L55.9801 45.652C56.5848 46.5058 57.5623 47.0344 58.5601 47.0344C59.6934 47.0344 60.467 46.4006 60.467 45.4771C60.467 45.0038 60.2714 44.5864 59.8992 44.1666C59.521 43.7492 59.0519 43.3645 58.0476 42.6671C56.394 41.5088 56.2394 41.4035 55.6965 40.7786C55.2565 40.2684 55.0318 39.6429 55.0318 38.9454C55.0318 37.2526 56.3197 36.1336 58.2432 36.1336C58.7367 36.1336 59.2409 36.1805 59.7493 36.29C59.8022 36.3084 59.9443 36.3411 60.1911 36.397C60.2713 36.413 60.3623 36.4315 60.4301 36.4315C60.5454 36.4315 60.6786 36.3744 60.8309 36.2733C61.0039 36.1478 61.0592 36.1336 61.1995 36.1336C61.4564 36.1336 61.6211 36.3084 61.6913 36.6211L62.1087 38.5096C62.1396 38.5917 62.1396 38.6969 62.1396 38.7522C62.1396 38.9805 61.9356 39.1696 61.6377 39.1696C61.4505 39.1696 61.3351 39.1 61.1746 38.8759C60.7815 38.2813 60.7078 38.2129 60.3433 37.9316C59.8748 37.5654 59.2736 37.3698 58.7022 37.3698C57.8953 37.3698 57.3732 37.8288 57.3732 38.5447C57.3732 38.8016 57.4184 39.0668 57.5623 39.26C57.7389 39.5234 58.019 39.7994 58.3644 40.0627C58.5803 40.2167 58.8562 40.4165 59.2283 40.6758C60.6066 41.6361 61.0591 41.9863 61.621 42.5601C62.2114 43.1707 62.5652 44.043 62.5652 44.9403C62.5652 46.9584 61.0592 48.2914 58.7533 48.2914ZM54.3449 52.792H53.3287C53.189 52.792 53.0879 52.8377 53.0879 53.006L53.0938 56.0444C53.0938 56.2585 52.9416 56.2835 52.7032 56.2835C52.4731 56.2835 52.3185 56.2603 52.3185 56.0528V53.0102C52.3185 52.8622 52.265 52.792 52.0801 52.792H51.0514C50.8849 52.792 50.8373 52.632 50.8373 52.4983C50.8373 52.3502 50.8248 52.0642 51.0454 52.0642H54.3282C54.4763 52.0642 54.575 52.1463 54.575 52.418C54.575 52.6588 54.5114 52.792 54.3449 52.792ZM45.902 53.732H47.3523C47.5271 53.732 47.5729 53.8848 47.5729 54.1066C47.5729 54.2999 47.5312 54.4687 47.3689 54.4687H45.9228C45.8075 54.4687 45.7028 54.549 45.7028 54.6828V55.2976C45.7028 55.4457 45.7831 55.5158 45.902 55.5158H48.3893C48.554 55.5158 48.6116 55.6246 48.6116 55.8964C48.6116 56.092 48.5665 56.2525 48.3916 56.2525H45.1885C45.003 56.2525 44.9269 56.1639 44.9269 55.9439V52.3353C44.9269 52.1712 44.9929 52.0559 45.1843 52.0559H48.3976C48.589 52.0559 48.6235 52.1831 48.6235 52.4114C48.6235 52.6237 48.595 52.792 48.3875 52.792H45.8753C45.7748 52.792 45.7029 52.8705 45.7029 52.9793V53.5472C45.7029 53.6667 45.789 53.732 45.902 53.732ZM43.2632 47.4888C43.2632 47.2254 43.438 47.0036 43.6782 47.0036H44.0344C44.1539 47.0036 44.2728 46.9108 44.3305 46.7752C44.3656 46.6498 44.384 46.5445 44.384 46.0879V38.3143C44.384 37.8594 44.3656 37.753 44.3305 37.627C44.2728 37.4938 44.1539 37.3986 44.0344 37.3986H43.6782C43.438 37.3986 43.2632 37.1768 43.2632 36.9134C43.2632 36.5329 43.526 36.4794 44.0344 36.4033C44.5446 36.3289 45.968 36.1339 48.1466 36.1339C50.3229 36.1339 51.6744 36.6066 52.7441 37.6888C53.771 38.7199 54.3281 40.3074 54.3281 42.1941C54.3281 44.3067 53.6164 46.053 52.3207 47.0841C51.3147 47.8987 50.0518 48.2691 48.1466 48.2691C45.968 48.2691 44.5446 48.0735 44.0344 47.9992C43.526 47.9255 43.2632 47.8717 43.2632 47.4888ZM37.3691 48.2852C34.553 48.2852 32.5371 46.6953 31.8892 44.1319C31.8809 44.1135 31.8749 44.095 31.8708 44.0742C31.8131 43.7864 31.5539 43.7656 31.492 44.0723C31.492 44.0825 31.4837 44.0925 31.4795 44.1033C30.8255 46.7034 28.7991 48.2851 25.9169 48.2851C22.4629 48.2851 20.2145 45.8948 20.2145 42.2492C20.2145 38.518 22.4466 36.1438 25.9516 36.1438C28.8295 36.1438 30.8768 37.7487 31.5038 40.3649C31.5698 40.6652 31.8249 40.6426 31.8802 40.3572C31.8802 40.3529 31.8802 40.3488 31.8861 40.3465C32.5259 37.7297 34.5398 36.1438 37.405 36.1438C40.8941 36.1438 43.1607 38.499 43.1607 42.1631C43.1607 45.8948 40.9107 48.2851 37.3698 48.2851M42.2046 56.2856C41.8508 56.2856 41.7539 56.2303 41.6635 56.1209L40.3203 54.6873C40.1371 54.5285 39.954 54.5041 39.7031 54.5041C39.5628 54.5041 39.4539 54.648 39.4539 54.8145V56.0364C39.4539 56.2689 39.2547 56.2838 39.0365 56.2838C38.8058 56.2838 38.6845 56.2196 38.6845 56.0347V52.3047C38.6845 52.0847 38.8225 52.0479 39.0942 52.0479C39.3083 52.0479 39.4539 52.0972 39.4539 52.2988V53.4244C39.4539 53.6051 39.5366 53.6937 39.6496 53.6937C39.9766 53.6937 40.0468 53.6236 40.1681 53.5189C40.3036 53.4035 41.6819 52.1382 41.6819 52.1382C41.8549 51.9902 42.0297 51.9926 42.1962 52.1525C42.3342 52.2845 42.3954 52.4326 42.2414 52.5848C42.1344 52.6894 40.925 53.7841 40.925 53.7841C40.7745 53.9137 40.812 54.035 40.9148 54.148C40.9148 54.148 42.3668 55.7486 42.5191 55.9134C42.7474 56.1619 42.5375 56.2856 42.2046 56.2856ZM34.8229 54.9317C34.8562 54.9816 35.4442 55.8349 35.5305 55.9627C35.6601 56.156 35.543 56.2838 35.1422 56.2838C34.918 56.2838 34.7676 56.2446 34.6707 56.1007L34.019 55.088C33.9447 54.9751 33.8376 54.9031 33.6914 54.9031H32.7596C32.6466 54.9031 32.5396 54.9959 32.5396 55.1089L32.5456 56.1191C32.5456 56.3183 32.1591 56.2856 32.0318 56.2856C31.8647 56.2856 31.7726 56.238 31.7726 56.0513L31.7785 52.2102C31.7785 52.1097 31.8647 52.0497 31.9575 52.0497H34.167C35.0203 52.0497 35.6625 52.5991 35.6625 53.4797C35.6625 54.2407 35.1131 54.4899 34.8931 54.6766C34.7842 54.7717 34.7575 54.8372 34.8229 54.9317ZM28.6129 56.2855C28.485 56.2855 28.2918 56.2647 28.2317 56.125L27.9606 55.5637C27.9255 55.4894 27.8536 55.4299 27.765 55.4299H26.0347C25.9259 55.4299 25.8272 55.512 25.7653 55.6665L25.5251 56.125C25.4716 56.2588 25.21 56.2796 25.0887 56.2796C24.9817 56.2796 24.6302 56.2671 24.7408 56.0322L26.5782 52.2208C26.6293 52.1096 26.7262 52.0252 26.8992 52.0252C27.0717 52.0252 27.1662 52.0829 27.2239 52.206C27.2239 52.206 28.9786 55.946 29.0279 56.0554C29.1189 56.2504 28.7401 56.2855 28.6129 56.2855ZM21.9619 56.2855C21.8549 56.2855 21.6557 56.2261 21.6557 56.0857L21.3596 53.8459C21.3406 53.7531 21.3061 53.7121 21.2317 53.7121C21.1723 53.7121 21.1414 53.7406 21.1003 53.7923L20.0943 55.0802C20.0425 55.1498 19.9748 55.1932 19.8945 55.1932C19.7797 55.1932 19.7298 55.1641 19.6644 55.0678L18.7386 53.8191C18.6976 53.7674 18.6524 53.7531 18.6048 53.7531C18.5311 53.7531 18.4936 53.8191 18.4835 53.9053L18.1934 56.0715C18.1666 56.2504 17.9466 56.2855 17.7652 56.2855C17.6398 56.2855 17.4263 56.2261 17.4263 56.0655L17.8521 52.4141C17.8972 52.1959 17.9442 52.0704 18.2594 52.0704C18.3396 52.0704 18.4693 52.093 18.5697 52.2494L19.7197 53.8661C19.7815 53.9547 19.8517 54.0291 19.9278 54.0267C20.0039 54.0248 20.0818 53.9464 20.1478 53.8602L21.3614 52.2102C21.4357 52.0972 21.5487 52.0496 21.6825 52.0496C21.8281 52.0496 21.9352 52.0829 21.997 52.3279L22.4227 56.0715C22.4436 56.2855 22.1082 56.2855 21.9619 56.2855ZM14.7273 46.126C14.7273 46.5969 14.7273 46.6813 14.7683 46.8044C14.8421 46.9441 15.0008 47.0351 15.1406 47.0351H15.5354C15.8089 47.0351 15.9986 47.2592 15.9986 47.5227C15.9986 47.9074 15.7845 48.0287 15.1405 48.0287H11.9273C11.3309 48.0287 11.121 47.9074 11.121 47.5227C11.121 47.2592 11.3309 47.0351 11.5711 47.0351H11.9273C12.0462 47.0351 12.164 46.9441 12.2216 46.8044C12.2585 46.6813 12.2769 46.5969 12.2769 46.126V38.3162C12.2769 37.8637 12.2627 37.7734 12.2068 37.6336C12.1699 37.479 12.0302 37.372 11.9273 37.372H11.5735C11.3387 37.372 11.1252 37.1461 11.1252 36.885C11.1252 36.5003 11.3387 36.3748 11.9273 36.3748H19.4977C19.8492 36.3748 20.049 36.492 20.1185 36.8125L20.3659 38.0266C20.4604 38.4726 20.3016 38.7158 19.9847 38.7158C19.8141 38.7158 19.6518 38.6706 19.5346 38.4423C19.5138 38.409 19.4442 38.2794 19.3616 38.0677C19.1909 37.6194 18.8389 37.5617 18.0267 37.5617H15.7845C14.8302 37.5617 14.7231 37.6889 14.7231 38.6147V40.6905C14.7231 41.0812 14.7784 41.25 14.8855 41.322C14.9657 41.3779 15.093 41.3897 15.5954 41.3897H17.0391C17.7716 41.3897 17.8763 41.3362 17.9298 40.9866L17.9423 40.8778C17.9958 40.5817 18.1522 40.4414 18.4132 40.4414C18.7819 40.4414 18.9032 40.6513 18.9032 41.2625V42.7311C18.9032 43.3424 18.7819 43.5517 18.4132 43.5517C18.1522 43.5517 17.9958 43.3935 17.9423 43.0974L17.9238 42.9821C17.8721 42.6324 17.7675 42.5789 17.0331 42.5789H15.5954C15.093 42.5789 14.9657 42.5914 14.8854 42.6467C14.7784 42.7187 14.7231 42.8875 14.7231 43.2806L14.729 46.1257L14.7273 46.126ZM8.97916 24.3322C8.71813 23.6145 8.63548 23.5283 8.07594 23.407C7.70372 23.3386 7.58837 23.2173 7.58837 22.9355C7.58837 22.6393 7.77388 22.483 8.17464 22.483H11.7809C12.1781 22.483 12.3546 22.6393 12.3546 22.9539C12.3546 23.2482 12.178 23.3677 11.7256 23.407C11.3408 23.4415 11.1845 23.5651 11.1845 23.8428C11.1845 23.9623 11.1987 24.0878 11.2481 24.2317L11.386 24.6307C11.386 24.6307 13.3137 30.0905 13.6182 30.9686C13.6693 31.109 13.8281 31.1024 13.8816 30.946C14.2205 29.9733 15.1421 27.297 15.1754 27.1882C15.27 26.8796 15.311 26.5543 15.1998 26.1982C15.1611 26.0727 14.5707 24.3323 14.5707 24.3323C14.5047 24.1432 14.4654 24.0035 14.4262 23.9316C14.3233 23.6765 14.1818 23.5837 13.7787 23.4767C13.4184 23.3881 13.2804 23.2692 13.2804 23.0099C13.2804 22.6746 13.482 22.4831 13.8893 22.4831H17.3166C17.7138 22.4831 17.907 22.6395 17.907 22.954C17.907 23.2317 17.7304 23.3679 17.3415 23.4232C16.8765 23.4767 16.7511 23.5837 16.7511 23.8965C16.7511 24.0546 16.7862 24.211 16.9301 24.6308C16.9301 24.6308 18.6211 29.9818 18.8887 30.8232C18.9398 30.9814 19.0903 30.9463 19.1331 30.8066C19.3965 29.9509 21.0691 24.3326 21.0691 24.3326C21.1184 24.1578 21.1369 24.018 21.1369 23.9134C21.1369 23.6518 20.9496 23.512 20.5256 23.4585C20.1409 23.4234 19.9643 23.2486 19.9643 22.9709C19.9643 22.6213 20.1641 22.4834 20.6285 22.4834H26.681C27.2572 22.4834 27.4481 22.6005 27.4481 22.9834C27.4481 23.2694 27.2572 23.4769 27.0164 23.4769H26.681C26.5371 23.4769 26.401 23.5839 26.3475 23.6993C26.3147 23.8289 26.3005 23.9502 26.3005 24.3861V26.639C26.3005 27.4453 26.3701 27.5131 27.0164 27.5131H29.3882C29.7355 27.5131 29.9151 27.4578 30.0031 27.3567C30.0833 27.2497 30.0833 27.1819 30.0833 26.5338V24.3861C30.0833 23.9318 30.0833 23.8289 30.0405 23.6993C29.9787 23.5655 29.8407 23.4769 29.7212 23.4769H29.3882C29.1248 23.4769 28.9132 23.2694 28.9132 22.9834C28.9132 22.6005 29.1248 22.4833 29.7212 22.4833H32.8958C33.4899 22.4833 33.7021 22.6005 33.7021 22.9834C33.7021 23.2694 33.4898 23.4769 33.2514 23.4769H32.8958C32.7763 23.4769 32.6366 23.5839 32.5991 23.6993C32.5498 23.8289 32.5379 23.9502 32.5379 24.3861V32.2281C32.5379 32.6824 32.5498 32.7853 32.5991 32.9274C32.6366 33.0487 32.7763 33.1355 32.8958 33.1355H33.2514C33.5107 33.1355 33.7021 33.3638 33.7021 33.6225C33.7021 34.0096 33.5107 34.1291 32.8958 34.1291H29.7212C29.1248 34.1291 28.9358 34.0096 28.9358 33.6225C28.9358 33.3638 29.1475 33.1355 29.3883 33.1355H29.7213C29.8408 33.1355 29.9787 33.0487 30.0406 32.9274C30.0834 32.7853 30.0834 32.6824 30.0834 32.2281V29.6791C30.0834 29.0309 30.0834 28.9632 30.0031 28.8585C29.9151 28.7556 29.7355 28.6998 29.3883 28.6998H27.0165C26.3701 28.6998 26.3006 28.7681 26.3006 29.5744V32.2282C26.3006 32.6824 26.3148 32.7853 26.3475 32.9274C26.401 33.0487 26.5372 33.1355 26.6811 33.1355H27.0164C27.2572 33.1355 27.4362 33.3638 27.4362 33.6433C27.4362 34.0096 27.2364 34.1291 26.6811 34.1291H23.4988C22.9125 34.1291 22.7002 34.0096 22.7002 33.6225C22.7002 33.3638 22.9125 33.1355 23.1527 33.1355H23.4987C23.6218 33.1355 23.7657 33.0487 23.799 32.9274C23.8525 32.7853 23.8525 32.6949 23.8525 32.2281V24.386C23.8525 23.4953 23.4345 23.4359 23.1283 23.4769C22.8197 23.5203 22.6389 23.7159 22.4493 24.3326L19.666 33.2939C19.4151 34.1478 19.1784 34.3922 18.6563 34.3922C18.1355 34.3922 17.8703 34.1662 17.6604 33.5199C17.6604 33.5199 16.2226 29.2209 16.175 29.0788C16.1257 28.9367 15.9776 28.9326 15.9366 29.0687C15.8974 29.206 14.3502 33.5199 14.3502 33.5199C14.1819 33.9379 14.1385 34.0592 13.9964 34.2013C13.8591 34.3041 13.6302 34.3922 13.4018 34.3922C12.8958 34.3922 12.6473 34.1823 12.4065 33.5198L8.97916 24.3322ZM32.1572 19.0455C32.7411 16.8769 34.8495 14.6882 37.1804 15.3571C39.1574 15.9208 39.0177 17.5542 40.4554 18.0661C40.9715 18.2493 40.9305 18.7677 40.4804 18.8539C39.7211 18.9978 38.6966 18.4466 37.9313 17.7533C37.0365 16.9411 35.582 16.9761 34.8721 17.5167C34.5617 17.7533 34.7199 17.9799 35.0041 17.9162C35.6624 17.7741 36.7772 17.7373 37.6352 18.6999C38.4784 19.646 40.0499 20.4914 41.4407 19.5841C41.8236 19.3356 42.0721 18.8212 42.461 18.9324C42.8766 19.0496 42.8826 19.6543 42.3379 20.3577C41.0518 22.016 39.7336 21.8186 38.3202 23.2028C36.9086 24.587 36.6232 26.161 36.6232 28.1604C36.6232 31.2606 37.8428 33.1384 39.9042 33.1384C41.9098 33.1384 43.1686 31.1886 43.1686 28.1237C43.1686 25.5973 42.5704 23.9639 41.0703 23.3878C40.3443 23.1184 40.468 22.409 41.4038 22.2979C42.175 22.2075 42.9302 22.4703 43.759 23.0816C45.189 24.1346 45.9025 25.809 45.9025 28.0519C45.9025 31.9543 43.5515 34.4518 39.8509 34.4518C36.2387 34.4518 33.8869 31.9544 33.8869 28.1423C33.8869 25.6902 34.8085 23.8017 36.4026 22.7362C37.0692 22.2379 38.1965 21.6641 39.3013 21.2901C39.5297 21.2117 39.5279 20.8061 39.1224 20.8846C38.639 20.9815 37.75 21.0511 37.0157 20.755C35.368 20.1051 34.8888 18.9427 32.9492 19.7757C32.3647 20.0266 31.9883 19.671 32.1572 19.0455ZM46.8985 22.4971H50.1242C50.7533 22.4971 50.9673 22.6226 50.9673 23.0097C50.9673 23.2874 50.7533 23.4973 50.5047 23.4973H50.1242C49.9637 23.4973 49.8073 23.5835 49.7579 23.7256C49.7062 23.8427 49.7062 23.9497 49.7062 24.4046V31.7377C49.7062 32.5054 49.7395 32.6843 49.9452 32.8032C50.1242 32.9269 50.3912 32.9596 51.0928 32.9596H52.0763C52.6994 32.9596 53.14 32.7646 53.3559 32.3121C53.4546 32.104 53.4855 32.0279 53.5057 31.9928C53.6234 31.7645 53.8083 31.6616 53.9772 31.6616C54.2959 31.6616 54.4523 31.9048 54.3595 32.3532L54.0902 33.7089C54.02 34.0294 53.8208 34.1471 53.4689 34.1471H46.8988C46.3166 34.1471 46.1252 34.0317 46.1252 33.6429C46.1252 33.386 46.3167 33.1737 46.561 33.1737H46.8988C47.0141 33.1737 47.1556 33.0667 47.1907 32.9496C47.2425 32.8199 47.2585 32.7355 47.2585 32.2997V24.4043C47.2585 23.9328 47.2425 23.8632 47.1907 23.7253C47.1556 23.5832 47.0141 23.497 46.8988 23.497H46.561C46.2982 23.497 46.086 23.2871 46.086 23.0094C46.086 22.6223 46.2979 22.4971 46.8985 22.4971ZM36 0C16.1175 0 0 16.118 0 36C0 55.8825 16.118 72 36 72C55.8849 72 72 55.882 72 36C72 16.1175 55.8844 0 36 0ZM63.0639 47.9296C63.0639 47.8083 62.9426 47.7792 62.823 47.7792H62.6589V48.0777H62.782C62.9325 48.0777 63.0639 48.0693 63.0639 47.9296ZM63.0639 48.674L62.7594 48.2441H62.6566V48.674H62.4752V47.6127H62.8742C63.1233 47.6127 63.2363 47.7114 63.2363 47.9296C63.2363 48.1413 63.1192 48.2234 62.9652 48.24L63.2732 48.6741L63.0639 48.674ZM62.8189 47.4396C62.4092 47.4396 62.1048 47.7465 62.1048 48.1698C62.1048 48.5938 62.4092 48.8982 62.8189 48.8982C63.2303 48.8982 63.5324 48.5937 63.5324 48.1698C63.5324 47.7465 63.2304 47.4396 62.8189 47.4396ZM27.502 54.5967C27.4729 54.5432 27.0429 53.6543 26.9918 53.5431C26.9442 53.4444 26.8253 53.4385 26.7819 53.5474C26.7326 53.6687 26.3086 54.5207 26.2801 54.582C26.2325 54.6831 26.286 54.7491 26.3829 54.7491H27.3967C27.471 54.7491 27.5448 54.683 27.502 54.5967ZM34.1034 52.7845H32.8114C32.6776 52.7845 32.5379 52.8315 32.5379 52.998V53.9404C32.5379 54.0885 32.6776 54.1747 32.8114 54.1747H34.1034C34.5375 54.1747 34.8913 53.9463 34.8913 53.4796C34.8913 53.0129 34.5375 52.7845 34.1034 52.7845ZM25.9341 37.401C24.0153 37.401 22.8303 39.2318 22.8303 42.2663C22.8303 45.2327 23.9963 47.0283 25.9692 47.0283C27.8886 47.0283 29.0921 45.1625 29.0921 42.2335C29.0921 39.267 27.8701 37.401 25.9341 37.401ZM37.3866 37.401C35.4672 37.401 34.2798 39.2318 34.2798 42.2663C34.2798 45.2327 35.4488 47.0283 37.4211 47.0283C39.3387 47.0283 40.5422 45.1625 40.5422 42.2335C40.5422 39.267 39.322 37.401 37.3866 37.401ZM48.3919 37.294C48.3919 37.294 47.9948 37.3207 47.7997 37.3517C47.0463 37.473 46.8222 37.6769 46.8222 38.6045V45.9214C46.8222 46.9192 47.4435 46.9786 48.32 47.028C50.4594 47.1493 51.7021 45.2489 51.7021 42.1756C51.7021 39.1003 50.4677 37.294 48.3919 37.294ZM63.0615 47.9299C63.0615 47.8086 62.9402 47.7794 62.8207 47.7794H62.6566V48.0779H62.7797C62.9301 48.0779 63.0615 48.0696 63.0615 47.9299ZM63.0615 48.6743L62.7571 48.2444H62.6542V48.6743H62.4729V47.613H62.8718C63.121 47.613 63.2339 47.7117 63.2339 47.9299C63.2339 48.1416 63.1168 48.2236 62.9628 48.2403L63.2708 48.6743L63.0615 48.6743ZM62.8165 47.4399C62.4069 47.4399 62.1024 47.7467 62.1024 48.1701C62.1024 48.594 62.4069 48.8984 62.8165 48.8984C63.228 48.8984 63.5301 48.594 63.5301 48.1701C63.5301 47.7467 63.228 47.4399 62.8165 47.4399ZM48.3896 37.2941C48.3896 37.2941 47.9924 37.3209 47.7974 37.3518C47.044 37.4731 46.8199 37.677 46.8199 38.6046V45.9216C46.8199 46.9193 47.4412 46.9788 48.3177 47.0281C50.4571 47.1494 51.6998 45.2491 51.6998 42.1757C51.6998 39.1004 50.4653 37.2941 48.3896 37.2941ZM37.3843 37.4013C35.4649 37.4013 34.2775 39.2321 34.2775 42.2665C34.2775 45.233 35.4465 47.0286 37.4188 47.0286C39.3364 47.0286 40.5399 45.1627 40.5399 42.2337C40.5399 39.2673 39.3198 37.4013 37.3843 37.4013ZM34.1009 52.7848H32.8089C32.6751 52.7848 32.5354 52.8317 32.5354 52.9982V53.9407C32.5354 54.0887 32.6751 54.1749 32.8089 54.1749H34.1009C34.535 54.1749 34.8887 53.9466 34.8887 53.4799C34.8887 53.0131 34.535 52.7848 34.1009 52.7848ZM25.9316 37.4013C24.0128 37.4013 22.8278 39.2321 22.8278 42.2666C22.8278 45.233 23.9938 47.0286 25.9667 47.0286C27.8861 47.0286 29.0895 45.1627 29.0895 42.2337C29.0895 39.2673 27.8676 37.4013 25.9316 37.4013ZM27.4995 54.5971C27.4704 54.5436 27.0405 53.6547 26.9894 53.5435C26.9418 53.4448 26.8229 53.4389 26.7795 53.5478C26.7301 53.6691 26.3062 54.5211 26.2776 54.5824C26.23 54.6835 26.2836 54.7495 26.3805 54.7495H27.3943C27.4686 54.7495 27.5423 54.6834 27.4995 54.5971C27.4704 54.5436 27.0405 53.6547 26.9894 53.5435C26.9418 53.4448 26.8229 53.4389 26.7795 53.5478C26.7301 53.6691 26.3062 54.5211 26.2776 54.5824C26.23 54.6835 26.2836 54.7495 26.3805 54.7495H27.3943C27.4686 54.7495 27.5423 54.6834 27.4995 54.5971ZM34.1009 52.7848H32.8089C32.6751 52.7848 32.5354 52.8317 32.5354 52.9982V53.9407C32.5354 54.0887 32.6751 54.1749 32.8089 54.1749H34.1009C34.535 54.1749 34.8887 53.9466 34.8887 53.4799C34.8887 53.0131 34.535 52.7848 34.1009 52.7848ZM25.9316 37.4013C24.0128 37.4013 22.8278 39.2321 22.8278 42.2666C22.8278 45.233 23.9938 47.0286 25.9667 47.0286C27.8861 47.0286 29.0895 45.1627 29.0895 42.2337C29.0895 39.2673 27.8676 37.4013 25.9316 37.4013ZM37.3843 37.4013C35.4649 37.4013 34.2775 39.2321 34.2775 42.2665C34.2775 45.233 35.4465 47.0286 37.4188 47.0286C39.3364 47.0286 40.5399 45.1627 40.5399 42.2337C40.5399 39.2673 39.3198 37.4013 37.3843 37.4013ZM48.3896 37.2941C48.3896 37.2941 47.9924 37.3209 47.7974 37.3518C47.044 37.4731 46.8199 37.677 46.8199 38.6046V45.9216C46.8199 46.9193 47.4412 46.9788 48.3177 47.0281C50.4571 47.1494 51.6998 45.2491 51.6998 42.1757C51.6998 39.1004 50.4653 37.2941 48.3896 37.2941C48.3896 37.2941 47.9924 37.3209 47.7974 37.3518C47.044 37.4731 46.8199 37.677 46.8199 38.6046V45.9216C46.8199 46.9193 47.4412 46.9788 48.3177 47.0281C50.4571 47.1494 51.6998 45.2491 51.6998 42.1757C51.6998 39.1004 50.4653 37.2941 48.3896 37.2941ZM37.3843 37.4013C35.4649 37.4013 34.2775 39.2321 34.2775 42.2665C34.2775 45.233 35.4465 47.0286 37.4188 47.0286C39.3364 47.0286 40.5399 45.1627 40.5399 42.2337C40.5399 39.2673 39.3198 37.4013 37.3843 37.4013ZM34.1009 52.7848H32.8089C32.6751 52.7848 32.5354 52.8317 32.5354 52.9982V53.9407C32.5354 54.0887 32.6751 54.1749 32.8089 54.1749H34.1009C34.535 54.1749 34.8887 53.9466 34.8887 53.4799C34.8887 53.0131 34.535 52.7848 34.1009 52.7848ZM25.9316 37.4013C24.0128 37.4013 22.8278 39.2321 22.8278 42.2666C22.8278 45.233 23.9938 47.0286 25.9667 47.0286C27.8861 47.0286 29.0895 45.1627 29.0895 42.2337C29.0895 39.2673 27.8676 37.4013 25.9316 37.4013ZM27.4995 54.5971C27.4704 54.5436 27.0405 53.6547 26.9894 53.5435C26.9418 53.4448 26.8229 53.4389 26.7795 53.5478C26.7301 53.6691 26.3062 54.5211 26.2776 54.5824C26.23 54.6835 26.2836 54.7495 26.3805 54.7495H27.3943C27.4686 54.7495 27.5423 54.6834 27.4995 54.5971C27.4704 54.5436 27.0405 53.6547 26.9894 53.5435C26.9418 53.4448 26.8229 53.4389 26.7795 53.5478C26.7301 53.6691 26.3062 54.5211 26.2776 54.5824C26.23 54.6835 26.2836 54.7495 26.3805 54.7495H27.3943C27.4686 54.7495 27.5423 54.6834 27.4995 54.5971ZM34.1009 52.7848H32.8089C32.6751 52.7848 32.5354 52.8317 32.5354 52.9982V53.9407C32.5354 54.0887 32.6751 54.1749 32.8089 54.1749H34.1009C34.535 54.1749 34.8887 53.9466 34.8887 53.4799C34.8887 53.0131 34.535 52.7848 34.1009 52.7848ZM25.9316 37.4013C24.0128 37.4013 22.8278 39.2321 22.8278 42.2666C22.8278 45.233 23.9938 47.0286 25.9667 47.0286C27.8861 47.0286 29.0895 45.1627 29.0895 42.2337C29.0895 39.2673 27.8676 37.4013 25.9316 37.4013ZM37.3843 37.4013C35.4649 37.4013 34.2775 39.2321 34.2775 42.2665C34.2775 45.233 35.4465 47.0286 37.4188 47.0286C39.3364 47.0286 40.5399 45.1627 40.5399 42.2337C40.5399 39.2673 39.3198 37.4013 37.3843 37.4013ZM48.3896 37.2941C48.3896 37.2941 47.9924 37.3209 47.7974 37.3518C47.044 37.4731 46.8199 37.677 46.8199 38.6046V45.9216C46.8199 46.9193 47.4412 46.9788 48.3177 47.0281C50.4571 47.1494 51.6998 45.2491 51.6998 42.1757C51.6998 39.1004 50.4653 37.2941 48.3896 37.2941C48.3896 37.2941 47.9924 37.3209 47.7974 37.3518C47.044 37.4731 46.8199 37.677 46.8199 38.6046V45.9216C46.8199 46.9193 47.4412 46.9788 48.3177 47.0281C50.4571 47.1494 51.6998 45.2491 51.6998 42.1757C51.6998 39.1004 50.4653 37.2941 48.3896 37.2941ZM37.3843 37.4013C35.4649 37.4013 34.2775 39.2321 34.2775 42.2665C34.2775 45.233 35.4465 47.0286 37.4188 47.0286C39.3364 47.0286 40.5399 45.1627 40.5399 42.2337C40.5399 39.2673 39.3198 37.4013 37.3843 37.4013ZM34.1009 52.7848H32.8089C32.6751 52.7848 32.5354 52.8317 32.5354 52.9982V53.9407C32.5354 54.0887 32.6751 54.1749 32.8089 54.1749H34.1009C34.535 54.1749 34.8887 53.9466 34.8887 53.4799C34.8887 53.0131 34.535 52.7848 34.1009 52.7848ZM25.9316 37.4013C24.0128 37.4013 22.8278 39.2321 22.8278 42.2666C22.8278 45.233 23.9938 47.0286 25.9667 47.0286C27.8861 47.0286 29.0895 45.1627 29.0895 42.2337C29.0895 39.2673 27.8676 37.4013 25.9316 37.4013ZM27.4995 54.5971C27.4704 54.5436 27.0405 53.6547 26.9894 53.5435C26.9418 53.4448 26.8229 53.4389 26.7795 53.5478C26.7301 53.6691 26.3062 54.5211 26.2776 54.5824C26.23 54.6835 26.2836 54.7495 26.3805 54.7495H27.3943C27.4686 54.7495 27.5423 54.6834 27.4995 54.5971ZM25.9316 37.4013C24.0128 37.4013 22.8278 39.2321 22.8278 42.2666C22.8278 45.233 23.9938 47.0286 25.9667 47.0286C27.8861 47.0286 29.0895 45.1627 29.0895 42.2337C29.0895 39.2673 27.8676 37.4013 25.9316 37.4013ZM37.3839 37.4015C35.4645 37.4015 34.2771 39.2323 34.2771 42.2668C34.2771 45.2332 35.4461 47.0288 37.4184 47.0288C39.336 47.0288 40.5394 45.1629 40.5394 42.2339C40.5394 39.2675 39.3193 37.4015 37.3839 37.4015ZM48.3892 37.2945C48.3892 37.2945 47.992 37.3212 47.797 37.3521C47.0436 37.4734 46.8195 37.6774 46.8195 38.605V45.9219C46.8195 46.9197 47.4408 46.9791 48.3173 47.0285C50.4567 47.1497 51.6994 45.2494 51.6994 42.176C51.6994 39.1008 50.4649 37.2945 48.3892 37.2945C48.3892 37.2945 47.992 37.3212 47.797 37.3521C47.0436 37.4734 46.8195 37.6774 46.8195 38.605V45.9219C46.8195 46.9197 47.4408 46.9791 48.3173 47.0285C50.4567 47.1497 51.6994 45.2494 51.6994 42.176C51.6994 39.1008 50.4649 37.2945 48.3892 37.2945ZM37.3839 37.4015C35.4645 37.4015 34.2771 39.2323 34.2771 42.2668C34.2771 45.2332 35.4461 47.0288 37.4184 47.0288C39.336 47.0288 40.5394 45.1629 40.5394 42.2339C40.5394 39.2675 39.3193 37.4015 37.3839 37.4015ZM25.9316 37.4013C24.0128 37.4013 22.8278 39.2321 22.8278 42.2666C22.8278 45.233 23.9938 47.0286 25.9667 47.0286C27.8861 47.0286 29.0895 45.1627 29.0895 42.2337C29.0895 39.2673 27.8676 37.4013 25.9316 37.4013C24.0128 37.4013 22.8278 39.2321 22.8278 42.2666C22.8278 45.233 23.9938 47.0286 25.9667 47.0286C27.8861 47.0286 29.0895 45.1627 29.0895 42.2337C29.0895 39.2673 27.8676 37.4013 25.9316 37.4013ZM37.3839 37.4015C35.4645 37.4015 34.2771 39.2323 34.2771 42.2668C34.2771 45.2332 35.4461 47.0288 37.4184 47.0288C39.336 47.0288 40.5394 45.1629 40.5394 42.2339C40.5394 39.2675 39.3193 37.4015 37.3839 37.4015ZM48.3892 37.2945C48.3892 37.2945 47.992 37.3212 47.797 37.3521C47.0436 37.4734 46.8195 37.6774 46.8195 38.605V45.9219C46.8195 46.9197 47.4408 46.9791 48.3173 47.0285C50.4567 47.1497 51.6994 45.2494 51.6994 42.176C51.6994 39.1008 50.4649 37.2945 48.3892 37.2945C48.3892 37.2945 47.992 37.3212 47.797 37.3521C47.0436 37.4734 46.8195 37.6774 46.8195 38.605V45.9219C46.8195 46.9197 47.4408 46.9791 48.3173 47.0285C50.4567 47.1497 51.6994 45.2494 51.6994 42.176C51.6994 39.1008 50.4651 37.2949 48.3894 37.2949M37.384 37.402C35.4647 37.402 34.2773 39.2328 34.2773 42.2672C34.2773 45.2337 35.4463 47.0293 37.4186 47.0293C39.3361 47.0293 40.5396 45.1634 40.5396 42.2344C40.5396 39.268 39.3195 37.402 37.384 37.402ZM25.9316 37.402C24.0128 37.402 22.8277 39.2328 22.8277 42.2672C22.8277 45.2337 23.9937 47.0293 25.9667 47.0293C27.886 47.0293 29.0895 45.1634 29.0895 42.2344C29.0895 39.268 27.8676 37.402 25.9316 37.402Z" fill="#006F46"/>
</svg>
