<svg width="173" height="33" viewBox="0 0 173 33" fill="none" xmlns="http://www.w3.org/2000/svg">
<path d="M15.9233 15.4915C18.7864 11.9483 17.9585 6.9593 14.1863 4.62106C10.4093 2.27805 5.45608 3.96015 3.77637 8.0139C2.04416 12.1965 4.54703 16.8586 8.98969 17.8345C9.85341 18.0254 10.5501 18.8318 10.5525 19.7266L10.5716 29.0127C10.5716 29.2036 10.3855 29.373 10.2113 29.3706C9.18295 29.3587 8.21425 29.4183 7.11194 29.3301L7.07376 21.2369C7.07376 20.9148 6.8805 20.5784 6.59896 20.4662C0.82255 18.1495 -1.65408 11.4234 1.16851 5.97867C4.01496 0.486191 10.9629 -1.34623 16.1261 2.02514C21.337 5.42751 22.437 12.5424 18.4882 17.4193C15.6513 20.9243 16.4482 25.9229 20.2371 28.2731C24.0093 30.6113 28.9602 28.9435 30.6494 24.8683C32.3387 20.7931 29.8883 16.0498 25.4647 15.0668C24.4269 14.8354 23.8375 13.9001 23.8399 12.8693L23.859 3.58078C25.0257 3.46864 26.128 3.49966 27.3186 3.55931L27.3377 11.5833C27.3377 11.9937 27.5525 12.3206 27.8984 12.4613C33.651 14.8115 36.0751 21.5399 33.2287 26.9656C30.3631 32.4294 23.4128 34.2475 18.2496 30.8404C13.1198 27.4571 11.9698 20.3851 15.9233 15.4915Z" fill="#4A0D66"/>
<path d="M87.7056 25.4069C87.7056 29.568 84.3319 32.9441 80.1684 32.9441C76.0048 32.9441 72.6311 29.5704 72.6311 25.4069C72.6311 21.2434 76.0048 17.8696 80.1684 17.8696C84.3319 17.8696 87.7056 21.2434 87.7056 25.4069ZM83.9477 25.4021C83.9477 23.3192 82.2585 21.6323 80.1779 21.6323C78.0973 21.6323 76.4081 23.3215 76.4081 25.4021C76.4081 27.4827 78.0973 29.1719 80.1779 29.1719C82.2585 29.1719 83.9477 27.4827 83.9477 25.4021Z" fill="#4A0D66"/>
<path d="M117.02 29.9978L112.699 29.9811L111.818 32.5413L108.418 32.5699C108.239 32.5699 107.989 32.3838 108.072 32.1404L112.875 18.2279L116.965 18.2017L121.567 32.0545C121.608 32.181 121.57 32.527 121.429 32.5341C120.231 32.6033 119.069 32.5699 117.824 32.5484L117.02 29.9978ZM116.116 26.9486L114.87 22.8209L113.591 26.9677C114.476 26.9915 115.266 27.0369 116.116 26.9486Z" fill="#4A0D66"/>
<path d="M43.7543 30L39.3856 30.0095L38.5648 32.5315L35.2054 32.5744C35.0933 32.5744 34.9859 32.5362 34.9406 32.5052C34.8714 32.4599 34.7402 32.3 34.7998 32.1306L39.6099 18.2109L43.7066 18.2253L48.2709 31.9875C48.3187 32.133 48.3043 32.2285 48.2996 32.3191C48.2948 32.4193 48.1707 32.5696 47.9965 32.5673C46.825 32.5506 45.7013 32.615 44.5274 32.5291L43.7543 30ZM42.8381 26.9412L41.5974 22.8278L40.3114 26.9746C41.1727 26.9793 41.9768 27.0461 42.8357 26.9412H42.8381Z" fill="#4A0D66"/>
<path d="M71.7101 27.7458C72.0179 30.9024 69.2908 32.6227 66.4729 32.7444C64.3781 32.835 62.3094 32.3053 60.675 30.8976C61.2167 30.0148 61.8633 29.3611 62.4287 28.5832C62.5647 28.3948 62.8129 28.4019 62.9918 28.5355C64.6381 29.7643 67.4774 30.0124 67.6373 28.4973C67.8568 26.4096 61.2023 27.4404 60.7156 22.6422C60.5748 21.2536 61.0783 20.0057 62.2307 19.1826C64.5212 17.5482 68.6966 17.7486 70.9872 19.5858C70.5124 20.4901 69.954 21.2035 69.4554 22.0075C69.0307 22.6947 67.6277 20.7859 65.206 21.485C64.9101 21.5709 64.7025 21.7928 64.6572 22.0147C64.5928 22.3296 64.7837 22.5682 65.0604 22.7543C66.7903 23.9163 71.314 23.692 71.7077 27.7434L71.7101 27.7458Z" fill="#4A0D66"/>
<path d="M58.5181 31.5492C55.9914 33.4031 52.0784 33.0213 49.5231 31.2271C49.3107 31.0792 49.1175 30.8429 49.3274 30.5781L50.9165 28.5715C51.0692 28.3782 51.2982 28.4188 51.4819 28.5524C53.1044 29.7502 55.9437 30.0293 56.1083 28.488C56.3302 26.4098 49.5207 27.4334 49.1795 22.5064C48.991 19.7888 51.1932 18.4169 53.6222 18.1425C55.6812 17.9087 57.7642 18.2976 59.4606 19.5884C58.9667 20.507 58.4155 21.2442 57.8882 22.0531C57.5113 22.6329 56.0797 20.8267 53.7104 21.478C53.4098 21.5616 53.1831 21.7835 53.1306 22.0197C52.9422 22.8524 54.7889 23.2985 55.3997 23.4966C57.6473 24.2267 59.9068 24.8351 60.1883 27.7722C60.3339 29.2849 59.7636 30.6401 58.5229 31.5516L58.5181 31.5492Z" fill="#4A0D66"/>
<path d="M94.8373 28.8673C97.3617 30.2392 99.0414 27.8676 99.4231 28.3877C100.041 29.23 100.614 30.0603 101.191 31.0099C99.8955 32.2697 98.2206 32.7612 96.4526 32.7827C93.4511 32.8185 90.681 31.1793 89.5405 28.3758C88.8772 26.751 88.8056 24.9591 89.2923 23.2722C89.9533 20.9817 91.8954 19.2042 93.8758 18.5027C96.4765 17.5841 99.0939 18.1281 101.16 19.7386C100.933 20.2373 99.5019 22.523 99.2824 22.5827C98.8767 22.6948 97.3521 20.903 95.1785 21.8287C93.809 22.4109 92.9429 23.7614 92.8617 25.1476C92.7758 26.6603 93.4845 28.1372 94.8373 28.8721V28.8673Z" fill="#4A0D66"/>
<path d="M127.74 32.491C126.604 32.6627 125.556 32.522 124.464 32.5745C124.185 32.5888 124.027 32.4289 124.027 32.1593V21.5776L120.641 21.5609C120.465 21.5609 120.26 21.4559 120.26 21.2412C120.264 20.2605 120.212 19.3395 120.298 18.2659L131.187 18.2444C131.373 18.2444 131.55 18.3995 131.548 18.5736C131.536 19.5638 131.614 20.5087 131.495 21.5179L127.763 21.568L127.74 32.4933V32.491Z" fill="#4A0D66"/>
<path d="M106.309 18.2444H102.589V32.5697H106.309V18.2444Z" fill="#4A0D66"/>
<path d="M136.582 18.2444H132.863V32.5697H136.582V18.2444Z" fill="#4A0D66"/>
<path d="M153.372 25.4069C153.372 29.568 149.998 32.9441 145.835 32.9441C141.671 32.9441 138.298 29.5704 138.298 25.4069C138.298 21.2434 141.671 17.8696 145.835 17.8696C149.998 17.8696 153.372 21.2434 153.372 25.4069ZM149.614 25.4021C149.614 23.3192 147.925 21.6323 145.844 21.6323C143.764 21.6323 142.075 23.3215 142.075 25.4021C142.075 27.4827 143.764 29.1719 145.844 29.1719C147.925 29.1719 149.614 27.4827 149.614 25.4021Z" fill="#4A0D66"/>
<path d="M167.523 32.4953C166.342 32.6408 165.323 32.5621 164.195 32.5406L158.445 24.4975L158.411 32.5167C157.249 32.6026 156.188 32.5907 154.985 32.5263V18.3012L158.275 18.2535L164.018 26.2369L164.052 18.5708C164.052 18.3847 164.228 18.2845 164.364 18.2344L167.516 18.3036L167.526 32.4929L167.523 32.4953Z" fill="#4A0D66"/>
<path d="M122.227 14.6733L122.196 6.94276L119.788 11.2637C118.858 11.3282 117.984 11.321 117.039 11.2685L114.603 6.91413L114.57 14.659C113.379 14.7353 112.256 14.721 111.017 14.6661L111.027 0.414773H114.806L118.404 6.65645L122.007 0.402844L125.402 0.371826C125.638 0.3933 125.803 0.514984 125.803 0.789369L125.789 14.6518C124.589 14.7425 123.494 14.7114 122.224 14.6709L122.227 14.6733Z" fill="#4A0D66"/>
<path d="M148.467 14.711C148.102 14.711 147.916 14.532 147.802 14.2648L146.034 10.0918C145.497 10.0154 145.02 10.0655 144.356 10.0584L144.277 14.6656C143.142 14.7539 142.08 14.6823 140.966 14.7086C140.794 14.7134 140.596 14.6012 140.596 14.3722L140.605 0.411914L148.052 0.380897C151.018 0.368967 152.958 3.22019 152.531 6.05232C152.304 7.56264 151.345 8.98705 149.82 9.70284L152.044 14.3746C152.089 14.47 152.037 14.5964 152.006 14.6346C151.975 14.6728 151.893 14.699 151.784 14.699L148.467 14.711ZM148.808 5.15759C148.723 3.03408 145.752 3.75226 144.323 3.63535L144.332 6.79674C145.762 6.70131 148.897 7.37653 148.808 5.15759Z" fill="#4A0D66"/>
<path d="M137.945 9.12125L131.558 9.15704L131.584 11.4142L139.04 11.4356L139.121 14.2678C139.097 14.5064 139.016 14.6949 138.747 14.7068L127.855 14.6972L127.843 0.407726L138.642 0.376709C138.878 0.376709 139.042 0.479305 139.116 0.67734L139.059 3.66695L131.565 3.69797L131.57 5.8334L137.606 5.84772C137.854 5.84772 137.988 6.00757 137.985 6.24378L137.95 9.12841L137.945 9.12125Z" fill="#4A0D66"/>
<path d="M102.577 9.11161L96.1877 9.16171C96.1567 9.92045 96.1304 10.6649 96.2044 11.4117L103.682 11.4379C103.746 12.5545 103.739 13.5304 103.687 14.6876H92.4561L92.4632 0.393311H103.677C103.758 1.52426 103.732 2.49773 103.694 3.65492L96.1949 3.70025L96.1782 5.81898L102.267 5.85239C102.496 5.85239 102.627 6.03849 102.623 6.24368C102.599 7.18852 102.663 8.05701 102.582 9.11638L102.577 9.11161Z" fill="#4A0D66"/>
<path d="M90.7025 14.6276C89.438 14.7755 88.2546 14.6992 87.0091 14.6658L86.9804 9.16374L81.9365 9.14704L81.8888 14.6777L78.2287 14.6705L78.2073 0.791405C78.2073 0.49316 78.4029 0.371476 78.6749 0.376248L81.884 0.414423L81.9532 5.84248L86.9781 5.81624L87.0186 0.423967C88.2713 0.352388 89.4117 0.350003 90.693 0.423967L90.7073 14.6276H90.7025Z" fill="#4A0D66"/>
<path d="M49.6333 12.1415L45.31 12.1129L44.4391 14.673C43.2485 14.7303 42.1032 14.7064 40.8983 14.6897C40.7098 14.6873 40.643 14.3604 40.7075 14.172L45.5032 0.328613L49.5808 0.357245L54.1834 14.2483C54.2525 14.4535 54.0855 14.7016 53.9161 14.6993C52.7255 14.6849 51.5922 14.7422 50.4088 14.6682L49.6333 12.1391V12.1415ZM48.7267 9.1161L47.4764 4.92397L46.1904 9.13758L48.7291 9.1161H48.7267Z" fill="#4A0D66"/>
<path d="M76.8119 14.6901L65.3187 14.7044C65.1613 14.7044 65.0467 14.6638 65.0038 14.6042C64.9394 14.5159 64.8678 14.3036 64.9608 14.1389L70.8589 3.71467L65.1374 3.64547L65.0992 0.77755C65.0992 0.596217 65.2018 0.381481 65.4404 0.381481L76.4612 0.376709C76.6186 0.376709 76.7451 0.467375 76.7809 0.534182C76.8167 0.600989 76.8978 0.768006 76.8214 0.904006L70.8446 11.4046L76.8191 11.4452V14.6877L76.8119 14.6901Z" fill="#4A0D66"/>
<path d="M164.694 14.4846C162.067 15.3651 159.259 14.8282 157.09 13.2773C156.904 13.1437 156.878 12.9075 156.999 12.75L158.588 10.7315C158.753 10.5239 158.972 10.5383 159.178 10.6886C160.707 11.8219 163.527 12.2156 163.799 10.6647C163.876 10.2352 163.57 9.86781 163.124 9.65069C160.783 8.50543 157.221 8.40044 156.873 4.73561C156.737 3.29926 157.314 2.03232 158.524 1.22825C160.817 -0.293996 164.892 -0.0840312 167.149 1.71975C166.884 2.24228 165.648 4.21308 165.388 4.31807C165.064 4.44691 163.599 3.106 161.533 3.57126C161.127 3.66193 160.676 3.99119 160.838 4.43498C160.984 4.83582 161.451 5.08157 161.848 5.21519L164.835 6.21968C165.744 6.52508 166.591 7.03567 167.149 7.86122C167.989 9.09953 168.158 10.8246 167.486 12.187C166.942 13.2893 165.916 14.0743 164.694 14.4846Z" fill="#4A0D66"/>
<path d="M58.8763 11.411L64.0681 11.442L64.1277 14.3767C64.0943 14.4769 64.0347 14.7012 63.8725 14.7012L55.147 14.6797L55.1375 0.793457C55.1375 0.533387 55.2925 0.373528 55.5407 0.3783C56.6358 0.402159 57.6737 0.323423 58.8357 0.430791L58.8739 11.411H58.8763Z" fill="#4A0D66"/>
<path d="M108.92 0.37915H105.174V14.7045H108.92V0.37915Z" fill="#4A0D66"/>
<path d="M153.997 5.05992C153.699 5.13627 153.224 4.56125 153.393 4.39185C153.885 3.92181 154.55 3.54006 154.598 2.77417C153.792 2.66918 153.276 2.11564 153.267 1.41894C153.255 0.63396 153.804 0.0684876 154.62 0.00645262C155.357 -0.0484245 156.077 0.245049 156.385 0.951293C157.154 2.70259 155.777 4.6042 153.999 5.05992H153.997Z" fill="#4A0D66"/>
<path d="M172.813 2.47612C172.813 3.70966 171.813 4.71177 170.577 4.71177C169.342 4.71177 168.342 3.71205 168.342 2.47612C168.342 1.2402 169.342 0.240479 170.577 0.240479C171.813 0.240479 172.813 1.2402 172.813 2.47612ZM172.403 2.47135C172.403 1.46209 171.584 0.643706 170.575 0.643706C169.566 0.643706 168.747 1.46209 168.747 2.47135C168.747 3.48061 169.566 4.299 170.575 4.299C171.584 4.299 172.403 3.48061 172.403 2.47135Z" fill="#4A0D66"/>
<path d="M171.549 3.50644C170.936 3.84525 170.914 2.83599 170.404 2.75248C170.163 2.71192 170.063 2.93381 170.11 3.22967C170.132 3.36806 170.075 3.46111 170.044 3.52314C170.008 3.59234 169.733 3.60427 169.719 3.51121C169.624 2.82167 169.688 2.13213 169.688 1.39487C170.504 1.36623 171.406 1.15866 171.497 2.01999C171.523 2.27767 171.337 2.50434 171.072 2.6809L171.547 3.50883L171.549 3.50644ZM170.955 1.82434C170.745 1.70981 170.284 1.59529 170.151 1.81002C170.055 1.96272 170.106 2.22518 170.158 2.31346C170.22 2.41844 170.907 2.44946 171.022 2.18701C171.06 2.09872 171.084 1.89592 170.957 1.82434H170.955Z" fill="#4A0D66"/>
</svg>
