<svg width="112" height="52" viewBox="0 0 112 52" fill="none" xmlns="http://www.w3.org/2000/svg">
<path d="M64.9484 20.6973C64.9484 23.2828 63.32 24.2405 60.7825 24.2405H60.6869C58.1491 24.2405 56.5212 23.3068 56.5212 20.6972V7.29077H59.2983V20.2664C59.2983 21.4634 59.8251 21.7986 60.7347 21.7986C61.6443 21.7986 62.1711 21.4634 62.1711 20.2664V7.29077H64.9484V20.6973Z" fill="#0044B5"/>
<path d="M67.4138 24.0489V7.29077H70.1907L73.7101 17.657V7.29077H76.2476V24.0489H73.6142L69.9513 13.1561V24.0489L67.4138 24.0489Z" fill="#0044B5"/>
<path d="M78.8098 24.0489V7.29077H81.5869V24.0489L78.8098 24.0489Z" fill="#0044B5"/>
<path d="M91.8574 9.73262H89.0562V24.0489H86.2794V9.73262H83.4783V7.29077H91.8571L91.8574 9.73262Z" fill="#0044B5"/>
<path d="M93.3836 24.0489V7.29077H100.733V9.73262H96.1604V14.3291H99.9908V16.771H96.1604V21.6069H100.805V24.0487L93.3836 24.0489Z" fill="#0044B5"/>
<path d="M111.065 10.834V20.506C111.065 23.0437 109.389 24.0492 106.851 24.0492H102.566V7.29077H106.851C109.389 7.29077 111.065 8.29626 111.065 10.834ZM106.756 9.73262H105.343V21.6071H106.756C107.665 21.6071 108.288 21.2718 108.288 20.0748V11.2649C108.288 10.0678 107.665 9.73262 106.756 9.73262Z" fill="#0044B5"/>
<path d="M67.8691 44.4652H65.2595L63.1051 32.9738L60.9502 44.4652H58.2449L55.6116 27.707H58.3408L59.7294 39.6771L61.884 27.707H64.3739L66.5284 39.6771L67.9167 27.707H70.5025L67.8691 44.4652Z" fill="#0044B5"/>
<path d="M76.5384 40.7305H73.4742L72.8755 44.4652H70.1943L73.3067 27.707H76.802L79.9617 44.4652H77.137L76.5384 40.7305ZM76.1794 38.4323L75.0062 30.9869L73.833 38.4323L76.1794 38.4323Z" fill="#0044B5"/>
<path d="M85.468 44.4652H82.6907V38.5039L79.3154 27.707H82.236L84.1035 35.4877L85.9707 27.707H88.8435L85.4682 38.5039L85.468 44.4652Z" fill="#0044B5"/>
<path d="M51.5316 25.7651C51.5316 39.991 39.9862 51.5332 25.7649 51.5332C11.5435 51.5332 0 39.991 0 25.7651C0 11.5392 11.5249 0 25.7651 0C40.0053 0 51.5316 11.5352 51.5316 25.7651Z" fill="white"/>
<path d="M12.4569 30.7492C12.7178 30.6256 13.3211 30.3586 13.5884 30.2279C13.8987 30.0701 13.8556 29.9425 13.7627 29.6907C13.3572 28.4592 13.1564 27.1527 13.1564 25.7997C13.1564 18.8403 18.8159 13.1771 25.7784 13.1771C32.7408 13.1771 38.3745 18.8403 38.3745 25.7997C38.3745 27.5782 38.0003 29.2879 37.3359 30.8176C37.275 30.926 37.2664 31.1433 37.4493 31.2392C37.6555 31.3263 38.4205 31.6706 38.644 31.7574C38.8723 31.8474 39.0121 31.7945 39.1309 31.5559C39.8936 29.7804 40.317 27.8411 40.317 25.7995C40.317 17.7631 33.7993 11.24 25.7784 11.24C17.7574 11.24 11.2263 17.7631 11.2263 25.7995C11.2263 27.4474 11.4999 29.0206 12.0022 30.5005C12.0734 30.7242 12.1951 30.8702 12.4569 30.7492Z" fill="#FFBA00"/>
<path d="M8.76438 32.4621C9.05972 32.3064 10.1006 31.8381 10.3741 31.6983C10.6593 31.5802 10.5929 31.3413 10.546 31.2329C9.93963 29.5325 9.60915 27.7144 9.60915 25.7996C9.60915 16.8754 16.8567 9.63302 25.7778 9.63302C34.6988 9.63302 41.9199 16.8754 41.9199 25.7996C41.9199 28.0837 41.4495 30.2528 40.5853 32.2226C40.5415 32.3255 40.4649 32.5705 40.7401 32.6727C40.9853 32.7847 42.1481 33.3028 42.3614 33.3989C42.5896 33.4919 42.7327 33.4515 42.8474 33.1845C43.8374 30.9256 44.3789 28.4219 44.3789 25.7996C44.3789 15.5322 36.0375 7.17212 25.7778 7.17212C15.518 7.17212 7.14917 15.5322 7.14917 25.7996C7.14917 28.0587 7.5617 30.2275 8.30651 32.2384C8.35026 32.3619 8.44478 32.6077 8.76438 32.4621Z" fill="#FFBA00"/>
<path d="M3.73379 34.777C4.09396 34.597 6.28263 33.5854 6.66093 33.4175C7.05781 33.2472 6.88441 32.949 6.82979 32.7849C6.01946 30.603 5.57724 28.2511 5.57724 25.7998C5.57724 14.6508 14.632 5.59336 25.778 5.59336C36.9239 5.59336 45.9544 14.6508 45.9544 25.7998C45.9544 28.6174 45.3676 31.2952 44.3299 33.74C44.2581 33.8889 44.1869 34.1841 44.5582 34.3452C44.902 34.5039 47.0336 35.4407 47.3267 35.5558C47.6118 35.6957 47.8337 35.6642 48.0275 35.2394C49.2599 32.3256 49.9365 29.1322 49.9365 25.7998C49.9365 12.4574 39.0985 1.59546 25.778 1.59546C12.4574 1.59546 1.59521 12.4574 1.59521 25.7998C1.59521 28.869 2.16799 31.7977 3.21586 34.4916C3.2714 34.6433 3.37975 34.9286 3.73379 34.777Z" fill="#FFBA00"/>
<path d="M25.8083 20.5483C27.2304 20.5483 28.4061 19.3929 28.4061 17.9604C28.4061 16.5132 27.2304 15.3606 25.8083 15.3606C24.3611 15.3606 23.2175 16.5132 23.2175 17.9604C23.2175 19.3929 24.3613 20.5483 25.8083 20.5483Z" fill="#FD372C"/>
<path d="M26.7599 34.129C27.2606 34.129 27.6665 33.719 27.6665 33.2126V27.5251C27.694 26.8043 28.2046 25.8789 28.7069 25.3415L34.063 19.9893C34.4252 19.6291 34.4252 19.0327 34.063 18.6848L33.0858 17.7097C32.7332 17.3461 32.1409 17.3461 31.7873 17.7097L26.9553 22.5521C26.6228 22.8658 26.399 23.0614 25.8086 23.0614C25.2032 23.0614 24.9699 22.8658 24.6594 22.5521L19.8197 17.7097C19.4527 17.3461 18.877 17.3461 18.5259 17.7097L17.541 18.6848C17.182 19.0327 17.182 19.6291 17.541 19.9893L22.905 25.3415C23.4118 25.8789 23.9094 26.8046 23.9336 27.5251V33.2126C23.9336 33.719 24.3434 34.129 24.8505 34.129H26.7599Z" fill="#FD372C"/>
<path d="M30.1694 37.7569C30.7098 37.9297 31.3066 38.1448 31.9651 38.4254C32.2935 38.5655 32.5941 38.7287 32.8654 38.9111C34.9289 37.7406 36.6831 36.088 37.9723 34.1056C38.0961 33.9152 38.0728 33.665 37.922 33.4952C37.4592 32.9739 36.4655 32.7665 35.5591 33.3157L35.552 33.32C35.1547 33.5582 34.824 33.8892 34.5681 34.2749C34.3593 34.5898 34.1293 34.894 33.8786 35.1848C32.8638 36.3621 31.5902 37.2363 30.1694 37.7569Z" fill="#0044B5"/>
<path d="M33.749 39.6851C34.5047 40.5562 34.7896 41.641 34.5174 42.7088C37.5651 41.14 40.1321 38.7655 41.928 35.8642C41.9951 35.7556 42.0209 35.6242 41.9951 35.4993C41.792 34.5174 40.4703 33.9296 39.0539 34.7416C39.053 34.742 39.052 34.7425 39.0511 34.7431C38.6715 35.0296 38.4722 35.3395 38.3523 35.5104C37.0735 37.3353 35.6659 38.535 33.749 39.6851Z" fill="#0044B5"/>
<path d="M33.2034 34.6037C33.4412 34.362 33.6341 34.0841 33.8149 33.8026C33.9049 33.6626 33.9287 33.4851 33.8594 33.3339C33.6091 32.7883 32.7766 32.4755 31.915 32.9257C30.665 33.5612 28.8841 35.3217 26.9262 36.6105C26.8493 36.6611 26.8579 36.7769 26.9434 36.8111C27.4303 37.0063 28.2633 37.1815 28.9163 37.3488C29.4335 37.3488 31.6177 36.2155 33.2034 34.6037Z" fill="#0044B5"/>
<path d="M4.747 36.282C5.43628 35.9651 7.76117 34.8937 8.07397 34.7477C9.38023 34.1457 11.5456 33.1012 12.9538 32.851C13.0599 32.832 13.1707 32.8159 13.2809 32.7993C13.3024 32.7962 13.3233 32.7923 13.3448 32.7891C13.428 32.7771 13.5134 32.7671 13.5991 32.7569C13.6664 32.7488 13.734 32.7409 13.8027 32.7341C13.8779 32.7266 13.9538 32.7198 14.0309 32.7139C14.1202 32.7068 14.2111 32.7014 14.3027 32.6964C14.3673 32.693 14.431 32.6892 14.4967 32.6869C14.652 32.6817 14.81 32.6792 14.9718 32.681C14.9768 32.681 14.9815 32.6808 14.9865 32.681H14.9886C15.0062 32.681 15.0248 32.6824 15.0425 32.6826C15.1547 32.6849 15.2685 32.6889 15.3839 32.6948C15.4426 32.6978 15.5024 32.7021 15.562 32.7062C15.6382 32.7114 15.7148 32.7177 15.7921 32.7248C15.8619 32.7311 15.9317 32.7374 16.0024 32.7452C16.0702 32.7526 16.1393 32.7621 16.208 32.771C16.7196 32.8372 17.259 32.9442 17.8273 33.1017C17.8334 33.1033 17.8393 33.1049 17.8454 33.1064C17.9701 33.1411 18.0966 33.1794 18.2242 33.2191C18.2462 33.2259 18.2684 33.2329 18.2906 33.2402C19.124 33.5049 20.0364 33.9095 20.9904 34.4234C23.2545 35.6426 25.0567 37.554 27.6697 38.0575C29.5481 38.4126 34.4515 39.7033 33.3544 42.676C32.8032 44.1751 31.5778 44.5242 30.0356 44.3064C30.0243 44.3048 30.013 44.3036 30.0014 44.3018C29.9339 44.2918 29.8654 44.2803 29.7967 44.2683C29.7473 44.2597 29.6979 44.2508 29.6478 44.2413C29.5945 44.2309 29.5411 44.2204 29.4871 44.2089C29.4037 44.1914 29.3194 44.1722 29.2344 44.152C29.209 44.1459 29.1841 44.1404 29.1584 44.1341C27.5117 43.7297 25.6109 42.8607 23.8103 42.105C23.7627 42.085 23.7149 42.0649 23.6675 42.0452C23.5859 42.0112 23.505 41.9778 23.4238 41.9443C23.3382 41.9089 23.2527 41.874 23.1677 41.8393C23.1006 41.8121 23.0335 41.7849 22.9669 41.7582C22.8663 41.7179 22.7663 41.6786 22.6668 41.6399C22.6133 41.619 22.5591 41.5975 22.5059 41.5771C22.354 41.5188 22.2033 41.462 22.0548 41.4082C22.0537 41.4078 22.0525 41.4073 22.0514 41.4069C21.9546 41.3717 21.8574 41.3375 21.7601 41.3042C21.6128 41.2534 21.4657 41.2058 21.3199 41.1603C21.1812 41.117 21.0432 41.0753 20.9085 41.0376C20.2904 40.8652 19.7308 40.7618 19.3509 40.7838C19.3484 40.7838 19.3457 40.7838 19.3432 40.784C19.3022 40.7865 19.2652 40.7919 19.2288 40.7976C19.2131 40.8001 19.1968 40.8019 19.1821 40.8051C19.1533 40.8108 19.1288 40.8194 19.1032 40.8273C19.0814 40.8346 19.0579 40.8407 19.0388 40.8495C19.0309 40.8529 19.0252 40.8579 19.018 40.8615C18.9207 40.9137 18.8625 40.9912 18.8568 41.1013C18.821 41.6419 19.5984 41.6326 21.4931 42.2931C24.3947 43.2998 25.2499 44.0777 27.6604 44.8309C28.4936 45.0913 29.3808 45.3502 30.2469 45.444C30.2618 45.4454 30.2766 45.4469 30.2915 45.4483C30.3924 45.4587 30.493 45.4662 30.593 45.4717C30.6118 45.473 30.6306 45.4744 30.6494 45.4751C30.7483 45.4796 30.8466 45.4803 30.9448 45.4794C30.9795 45.4789 31.0139 45.478 31.0481 45.4771C31.142 45.4741 31.2354 45.4694 31.3281 45.4608C31.3537 45.4585 31.3793 45.4551 31.4049 45.4522C31.4888 45.4429 31.5717 45.4311 31.6545 45.4168C31.6858 45.4114 31.7173 45.4062 31.7483 45.4C31.8433 45.3812 31.9374 45.359 32.0305 45.3327C32.0575 45.325 32.084 45.3162 32.111 45.3078C32.1908 45.2831 32.2699 45.2556 32.3481 45.225C32.3707 45.2162 32.3934 45.2085 32.4161 45.199C32.5076 45.1609 32.5974 45.1172 32.6865 45.07C32.7132 45.0557 32.74 45.0408 32.7665 45.0258C32.8565 44.9748 32.9453 44.9206 33.0324 44.8594C33.0451 44.8506 33.0571 44.8402 33.0698 44.8311C33.1482 44.7744 33.2248 44.7123 33.3005 44.6468C33.3984 44.5621 33.4945 44.4718 33.5875 44.3712C37.2014 42.8637 40.2781 40.3203 42.4437 37.1141C42.6538 36.8031 42.9203 36.5311 43.2452 36.3435C43.3682 36.2723 43.4834 36.2156 43.5876 36.1768C45.7539 35.408 47.2338 37.0132 46.2892 38.5355C43.3895 43.1969 38.9302 46.8115 33.6416 48.6336V48.6381C31.1948 49.4802 28.5703 49.9381 25.8403 49.9381H25.8313C25.5767 49.9381 25.3231 49.9342 25.0706 49.9263C19.7041 49.7595 14.7453 47.8963 10.8177 44.7676V44.7685C10.8055 44.7588 10.7937 44.7488 10.781 44.7391C8.17981 42.7068 6.08974 40.1505 4.589 37.4339C4.54502 37.3541 4.49606 37.2637 4.44665 37.171C4.27212 36.8432 4.4088 36.4362 4.7463 36.2813L4.747 36.282Z" fill="#0044B5"/>
<path d="M44.5581 47.6001C44.5581 47.3401 44.6068 47.0974 44.7039 46.8721C44.8011 46.6468 44.9335 46.4525 45.1014 46.2895C45.2692 46.1266 45.4643 45.9983 45.6862 45.9044C45.9083 45.8106 46.1445 45.7637 46.3948 45.7637C46.645 45.7637 46.881 45.8106 47.1031 45.9044C47.325 45.9983 47.5201 46.1266 47.6881 46.2895C47.8558 46.4525 47.9882 46.6465 48.0855 46.8721C48.1825 47.0976 48.2312 47.3403 48.2312 47.6001C48.2312 47.8635 48.1825 48.1069 48.0855 48.3306C47.9882 48.5544 47.8558 48.7477 47.6881 48.9107C47.5202 49.0737 47.325 49.2019 47.1031 49.2958C46.881 49.3896 46.6448 49.4365 46.3948 49.4365C46.1448 49.4365 45.9083 49.3896 45.6862 49.2958C45.4643 49.2019 45.2692 49.0737 45.1014 48.9107C44.9335 48.7477 44.8011 48.5544 44.7039 48.3306C44.6068 48.1069 44.5581 47.8633 44.5581 47.6001ZM44.884 47.6001C44.884 47.824 44.9237 48.0312 45.0026 48.2221C45.0815 48.4129 45.1882 48.5784 45.3233 48.7182C45.4584 48.8581 45.618 48.9685 45.802 49.0489C45.9863 49.1296 46.184 49.17 46.3945 49.17C46.6051 49.17 46.8018 49.1296 46.9845 49.0489C47.1672 48.9683 47.3268 48.8581 47.4632 48.7182C47.5999 48.5784 47.7076 48.4132 47.7867 48.2221C47.8656 48.0312 47.905 47.8238 47.905 47.6001C47.905 47.3796 47.8654 47.1731 47.7867 46.9806C47.7076 46.7882 47.5999 46.6218 47.4632 46.482C47.3266 46.3421 47.167 46.232 46.9845 46.1513C46.8018 46.0706 46.6051 46.0302 46.3945 46.0302C46.184 46.0302 45.9863 46.0706 45.802 46.1513C45.618 46.232 45.4582 46.3421 45.3233 46.482C45.1882 46.6218 45.0815 46.788 45.0026 46.9806C44.9235 47.1731 44.884 47.3796 44.884 47.6001ZM45.6937 46.5239H46.5031C47.0034 46.5239 47.2536 46.7279 47.2536 47.1361C47.2536 47.3304 47.1994 47.4727 47.0906 47.5632C46.982 47.6536 46.8472 47.7071 46.6858 47.7236L47.303 48.6715H46.9526L46.37 47.7483H46.0196V48.6715H45.6937L45.6937 46.5239ZM46.0196 47.4816H46.3551C46.4274 47.4816 46.4983 47.4791 46.5675 47.4741C46.6366 47.4691 46.6974 47.4553 46.7502 47.4321C46.8028 47.4092 46.8456 47.373 46.8785 47.3236C46.9113 47.2742 46.9279 47.2068 46.9279 47.1211C46.9279 47.0488 46.9131 46.9904 46.8835 46.9459C46.854 46.9015 46.8161 46.8677 46.7701 46.8446C46.7239 46.8217 46.6729 46.8068 46.6169 46.8002C46.5609 46.7936 46.5051 46.7902 46.4492 46.7902H46.0196V47.4816Z" fill="#0044B5"/>
</svg>
