<svg width="127" height="67" viewBox="0 0 127 67" fill="none" xmlns="http://www.w3.org/2000/svg">
<path d="M125.133 64.0253C124.432 65.85 122.009 66.4151 119.394 66.4151C116.779 66.4151 115.1 65.8473 115.491 64.0253H118.814C118.729 64.511 119.023 64.8226 120.006 64.8226C120.99 64.8226 121.623 64.5043 121.808 64.0249C122.266 62.8329 115.688 63.9975 116.735 61.2705C117.321 59.7434 119.629 59.0269 122.233 59.0269C124.837 59.0269 126.314 59.5893 126.003 61.2692H122.741C122.794 60.8197 122.655 60.4784 121.676 60.4784C120.696 60.4784 120.17 60.8255 119.998 61.2705C119.531 62.4881 126.179 61.3031 125.133 64.0253Z" fill="black"/>
<path d="M66.9406 66.2079H63.6167L66.2925 59.2378H69.6173L66.9406 66.2079Z" fill="black"/>
<path d="M92.0937 66.2079H88.7693L91.4451 59.2378H94.7695L92.0937 66.2079Z" fill="black"/>
<path d="M113.513 66.2079H105.431L108.107 59.2378H116.19L115.676 60.5755H110.918L110.378 61.9803H114.336L113.823 63.3171H109.864L109.323 64.7298H114.081L113.513 66.2079Z" fill="black"/>
<path d="M47.4422 66.2079H44.7527L42.4967 62.0915L40.9167 66.2079H38.2351L40.9114 59.2378H44.0344L46.0251 62.9021L47.4316 59.2378H50.1207L47.4422 66.2079Z" fill="black"/>
<path d="M103.368 66.2079H100.679L98.4221 62.0915L96.842 66.2079H94.1582L96.834 59.2378H99.9571L101.949 62.9021L103.354 59.2378H106.043L103.368 66.2079Z" fill="black"/>
<path d="M7.0653 63.8747C6.15497 66.2455 3.91047 66.4415 2.31141 66.4415C1.53488 66.4477 0.759959 66.3697 0.000244141 66.2088L0.567996 64.7298C2.09155 64.9064 3.39349 64.774 3.90428 63.446L5.52056 59.2378H8.84536L7.06486 63.8734" fill="black"/>
<path d="M25.9049 59.2377H20.7347L18.0593 66.2079H21.3837L22.3549 63.6773H24.203C27.2757 63.6773 28.93 62.8561 29.4668 61.4593C30.0036 60.0624 28.9812 59.2373 25.9053 59.2373M26.1415 61.4593C26.0116 61.7261 25.8084 61.9506 25.5558 62.1064C25.3032 62.2623 25.0115 62.3431 24.7147 62.3396H22.8684L23.5461 60.5737H25.3954C26.0011 60.5737 26.3371 60.9498 26.1415 61.4566" fill="black"/>
<path d="M76.852 59.2377H71.6814L69.0051 66.2079H72.3291L73.3003 63.6773H74.3051L74.9621 66.2079H78.5915L77.7032 63.4235C79.1756 63.0817 80.0506 62.4023 80.4131 61.4593C80.949 60.0616 79.9274 59.2373 76.8512 59.2373M77.0874 61.4593C76.9573 61.7262 76.754 61.9506 76.5013 62.1064C76.2487 62.2623 75.9569 62.3431 75.66 62.3396H73.8142L74.4919 60.5737H76.3408C76.9465 60.5737 77.2825 60.9498 77.0874 61.4566" fill="black"/>
<path d="M84.1347 64.7307L86.249 59.2378H82.9233L80.2466 66.2079H87.7959L88.3632 64.7307H84.1347Z" fill="black"/>
<path d="M16.5505 59.2378H13.5771C13.3803 59.2496 13.1881 59.3016 13.0122 59.3906C12.8364 59.4796 12.6806 59.6037 12.5546 59.7552L6.98486 66.2084H9.73089L10.8377 64.8362H13.8398L13.8927 66.2084H17.2171L16.5509 59.2378M11.9184 63.4963L13.7082 61.2682L13.7908 63.4963H11.9184Z" fill="black"/>
<path d="M36.7225 59.2378H33.7491C33.5523 59.2495 33.3601 59.3014 33.1842 59.3904C33.0083 59.4794 32.8526 59.6036 32.7266 59.7552L27.156 66.2084H29.902L31.0093 64.8362H34.0113L34.0643 66.2084H37.3887L36.7225 59.2378ZM32.09 63.4963L33.8798 61.2682L33.9628 63.4963H32.09Z" fill="black"/>
<path d="M62.1064 59.2378H59.1334C58.9368 59.2496 58.7446 59.3017 58.5688 59.3907C58.393 59.4796 58.2374 59.6037 58.1114 59.7552L52.5408 66.2088H55.2872L56.3936 64.8367H59.3957L59.4487 66.2088H62.7726L62.1064 59.2382M57.4748 63.4968L59.2637 61.2686L59.3462 63.4968H57.4748Z" fill="black"/>
<path d="M63.3904 39.495H65.2616L65.1787 37.2644L63.3904 39.495Z" fill="#CC0000"/>
<path d="M87.3227 26.539C87.4803 24.7409 87.4399 22.9308 87.2024 21.1415C87.2024 21.1106 87.1666 21.1106 87.1601 21.1415C86.3752 24.419 84.4794 27.3236 81.7951 29.3613C81.7891 29.3665 81.7812 29.3691 81.7733 29.3685C81.7654 29.3679 81.758 29.3642 81.7528 29.3581C81.7477 29.3521 81.7451 29.3442 81.7457 29.3363C81.7463 29.3284 81.7501 29.321 81.7561 29.3158C84.6021 26.3603 86.34 22.5125 86.6757 18.4232C86.1366 16.2748 85.3045 14.2108 84.2028 12.2892C84.1866 12.2665 84.159 12.2729 84.1655 12.3038C84.4941 14.7312 84.2859 17.2011 83.5555 19.5391C82.8251 21.8772 81.5904 24.0264 79.9385 25.8351C79.9364 25.8387 79.9337 25.8417 79.9304 25.8441C79.927 25.8465 79.9232 25.8482 79.9192 25.8491C79.9152 25.8499 79.9111 25.8499 79.9071 25.8491C79.9031 25.8482 79.8993 25.8466 79.896 25.8442C79.8927 25.8418 79.8899 25.8387 79.8878 25.8351C79.8858 25.8316 79.8844 25.8277 79.884 25.8236C79.8836 25.8195 79.884 25.8154 79.8853 25.8115C79.8866 25.8076 79.8886 25.804 79.8914 25.8009C81.4886 23.5149 82.5627 20.9052 83.0376 18.1572C83.5125 15.4092 83.3764 12.5904 82.6389 9.90095C80.3718 6.83054 77.4156 4.33516 74.0083 2.61552C70.6009 0.895881 66.8375 0 63.0208 0C59.2041 0 55.4407 0.895881 52.0333 2.61552C48.6259 4.33516 45.6698 6.83054 43.4027 9.90095C42.6653 12.5903 42.5291 15.409 43.0037 18.157C43.4782 20.9049 44.552 23.5146 46.1486 25.8009C46.1509 25.8039 46.1525 25.8073 46.1534 25.8109C46.1543 25.8146 46.1545 25.8184 46.154 25.8221C46.1535 25.8258 46.1522 25.8293 46.1503 25.8325C46.1484 25.8357 46.1459 25.8385 46.1429 25.8408C46.1399 25.843 46.1365 25.8446 46.1329 25.8456C46.1293 25.8465 46.1255 25.8467 46.1218 25.8462C46.1181 25.8456 46.1146 25.8444 46.1113 25.8425C46.1081 25.8406 46.1053 25.8381 46.1031 25.8351C44.4508 24.0267 43.2159 21.8775 42.4855 19.5393C41.7551 17.2012 41.547 14.7312 41.8761 12.3038C41.8761 12.2729 41.8517 12.2665 41.8371 12.2892C40.7354 14.2108 39.9033 16.2748 39.3643 18.4232C39.7007 22.5123 41.4384 26.3599 44.2839 29.3158C44.2899 29.3208 44.2937 29.328 44.2945 29.3357C44.2952 29.3435 44.2929 29.3512 44.2879 29.3573C44.283 29.3633 44.2758 29.3671 44.268 29.3679C44.2603 29.3687 44.2525 29.3663 44.2465 29.3613C41.5618 27.3238 39.666 24.4192 38.8814 21.1415C38.8814 21.1106 38.8408 21.1106 38.8392 21.1415C38.6022 22.9309 38.5624 24.7409 38.7205 26.539C39.601 29.0401 41.1427 31.2559 43.1816 32.951C43.2141 32.9803 43.1816 33.0226 43.1491 33.0047C41.5908 32.0825 40.2384 30.8502 39.1757 29.3841C39.1611 29.3614 39.1351 29.3695 39.1416 29.3971C40.2909 34.8762 43.2904 39.793 47.6364 43.322C51.9824 46.8509 57.4103 48.7771 63.0086 48.7771C68.6069 48.7771 74.0348 46.8509 78.3808 43.322C82.7268 39.793 85.7263 34.8762 86.8756 29.3971C86.8756 29.3695 86.8577 29.3614 86.8415 29.3841C85.7786 30.8506 84.4256 32.0829 82.8665 33.0047C82.8307 33.0226 82.8015 32.9803 82.834 32.951C84.8739 31.2561 86.4166 29.0403 87.2983 26.539M53.9588 42.439C53.1816 42.4462 52.4059 42.3694 51.6453 42.2098L52.2143 40.7287C53.736 40.9059 55.0415 40.7742 55.552 39.4443L57.1664 35.2352H60.4911L58.7125 39.8719C58.3098 40.7603 57.6271 41.4924 56.7689 41.956C55.9107 42.4196 54.9226 42.5893 53.9588 42.439ZM65.3407 42.2098L65.2887 40.8327H62.2859L61.1804 42.2098H58.4345L64.0044 35.7555C64.1294 35.6026 64.2849 35.4774 64.461 35.3879C64.637 35.2983 64.8298 35.2463 65.027 35.2352H68.0005L68.6671 42.2098H65.3407ZM77.1064 42.2098H69.5612L72.2356 35.2352H75.5603L73.4468 40.732H77.6738L77.1064 42.2098ZM74.0386 27.4804C69.0507 32.3333 61.6015 29.2329 62.3591 23.2729C62.9411 18.6785 68.5744 14.1003 72.8404 11.6178C72.8448 11.6148 72.8483 11.6108 72.8508 11.6061C72.8532 11.6014 72.8545 11.5962 72.8545 11.591C72.8545 11.5857 72.8532 11.5805 72.8508 11.5758C72.8483 11.5711 72.8448 11.5671 72.8404 11.5641C72.2811 11.0309 71.1203 9.83105 70.3741 8.92875C69.9065 8.32963 69.3061 7.84737 68.6203 7.52C67.9344 7.19263 67.1818 7.02912 66.422 7.04236C65.6621 7.05561 64.9157 7.24524 64.2416 7.59631C63.5676 7.94738 62.9844 8.45029 62.5379 9.06534L50.2732 10.2033C50.263 10.2033 50.2533 10.2074 50.2461 10.2146C50.239 10.2217 50.2349 10.2314 50.2349 10.2415C50.2349 10.2517 50.239 10.2614 50.2461 10.2686C50.2533 10.2758 50.263 10.2798 50.2732 10.2798L63.4207 11.0406C65.7521 11.1723 66.5097 13.2874 64.2629 14.9896C55.9129 21.3187 54.4237 28.0169 56.2966 33.325C56.299 33.3329 56.2984 33.3414 56.2949 33.3489C56.2914 33.3565 56.2854 33.3624 56.2778 33.3658C56.2703 33.3692 56.2617 33.3697 56.2538 33.3673C56.2459 33.3649 56.2392 33.3597 56.2348 33.3526C55.4406 32.2013 54.8779 30.9064 54.5782 29.5402C51.8334 27.7909 49.7003 25.2316 48.4742 22.2166C47.248 19.2016 46.9893 15.88 47.7341 12.7116C48.4788 9.5431 50.1901 6.68453 52.631 4.53148C55.072 2.37843 58.1218 1.03743 61.3584 0.694056C64.5951 0.350682 67.8584 1.0219 70.6968 2.61488C73.5351 4.20785 75.8081 6.64378 77.201 9.58545C78.594 12.5271 79.0381 15.829 78.4718 19.0342C77.9055 22.2394 76.3568 25.1892 74.0402 27.4755" fill="#CC0000"/>
</svg>
