<svg width="161" height="24" viewBox="0 0 161 24" fill="none" xmlns="http://www.w3.org/2000/svg">
<path d="M0 0H31.8264V7.82062H0V0ZM0 15.6376H31.8264V23.4618H0V15.6376Z" fill="#B7BBBE"/>
<path d="M54.2001 5.60157C53.5313 2.32338 52.8293 1.20983 49.0734 1.20983C47.4784 1.20983 46.1737 1.65452 45.2843 2.41894C44.5199 3.05473 44.1708 3.85223 44.1708 4.83715C44.1708 5.72653 44.6486 6.81436 45.2549 7.38767C46.0782 8.1815 47.291 8.88344 49.2939 9.90144C51.7783 11.173 53.6562 11.908 55.0234 13.4663C55.6922 14.2344 56.3611 15.664 56.3611 17.2259C56.3611 18.8834 55.7878 20.3792 54.575 21.4596C53.2373 22.6687 51.1351 23.4662 48.3016 23.4662C46.4567 23.4662 44.1965 23.051 42.3516 22.3821C42.065 20.4049 41.7121 19.0708 41.3005 17.6706L42.4141 17.3839C43.4321 21.2979 45.2145 22.2571 48.5883 22.2571C50.051 22.2571 51.4218 21.8418 52.4104 21.0774C53.3953 20.313 54.0348 19.1994 54.0348 17.7662C54.0348 16.4946 53.6819 15.7265 53.0168 14.9327C51.9988 13.7235 50.2788 12.9591 48.4339 12.0404C46.4898 11.0517 43.818 9.61846 42.8955 8.3138C42.3222 7.4869 41.94 6.43582 41.94 5.25611C41.94 3.88898 42.5096 2.52184 43.8511 1.50016C44.994 0.607111 46.7434 0.00439453 49.2314 0.00439453C51.2674 0.00439453 52.9212 0.261651 54.5493 0.893768C54.7367 2.19843 55.027 3.91838 55.3137 5.35167L54.2001 5.60157ZM61.2343 15.822C61.2343 13.3707 61.679 11.7794 62.5389 10.6659C63.2997 9.77649 64.3544 9.32813 65.626 9.32813C66.9638 9.32813 68.0442 9.77649 68.7793 10.6659C69.6392 11.7794 70.0803 13.3707 70.0803 15.822C70.0803 18.402 69.54 20.0227 68.7462 21.0443C68.0148 21.8712 66.9968 22.3821 65.6591 22.3821C64.325 22.3821 63.3034 21.8712 62.5757 21.0443C61.7745 20.0227 61.2343 18.402 61.2343 15.822ZM58.941 15.789C58.941 18.6849 59.7054 20.596 60.944 21.7757C62.2229 22.8929 63.7481 23.3707 65.6554 23.3707C67.6584 23.3707 69.224 22.8599 70.4955 21.7132C71.7046 20.5335 72.436 18.6592 72.436 15.7926C72.436 13.2789 71.7377 11.3347 70.4955 10.0962C69.2534 8.91652 67.787 8.3432 65.6554 8.3432C63.6194 8.3432 62.1567 8.91652 60.9146 10.0631C59.6393 11.3017 58.941 13.2752 58.941 15.789ZM76.6954 9.71034H74.3397V8.69234H76.6954V6.68573C76.6954 4.74528 77.1732 3.27891 78.2243 2.19475C78.985 1.46341 80.0655 0.956246 81.4694 0.956246C82.7741 0.956246 83.5385 1.30538 84.1743 1.71699C85.0967 2.32338 85.5451 3.11721 85.5451 3.69052C85.5451 4.32999 85.2253 4.67912 84.652 4.67912C83.8876 4.67912 83.6046 4.01026 83.2518 3.30831C82.899 2.60637 82.4874 1.94117 81.4988 1.94117C80.863 1.94117 80.3522 2.16535 79.9075 2.64312C79.2717 3.40754 78.8931 4.55417 78.8931 6.81436V8.69234H82.9358V9.71034H78.8931V20.1182C78.8931 22.0293 79.0218 22.2167 81.4069 22.2167V23.0142H74.3066V22.2167C76.5337 22.2167 76.6954 21.9962 76.6954 20.0521V9.71034Z" fill="black"/>
<path d="M84.3069 8.97426C86.3135 8.78316 87.688 8.01873 88.0996 4.67807H88.8934V8.69128H92.2672V9.70928H88.8934V19.9922C88.8934 21.488 89.3381 22.2524 90.4517 22.2524C91.1867 22.2524 91.7894 21.9988 92.4252 21.5211L92.936 22.2193C92.1091 22.9507 91.1205 23.3696 89.8159 23.3696C88.1951 23.3696 86.6994 22.6015 86.6994 20.1208V9.70928H84.3106V8.97426H84.3069ZM99.6431 2.76701C99.6431 1.91072 99.7717 1.65346 100.599 1.65346H103.623C105.854 1.65346 107.284 2.1643 108.177 2.89564C108.879 3.46896 109.419 4.71114 109.419 5.7953C109.419 7.32046 108.879 8.4377 107.956 9.20212C106.806 10.1576 105.027 10.5729 102.829 10.5729H99.6468V2.76701H99.6431ZM97.2873 19.6725C97.2873 21.929 97.0962 22.0907 94.7111 22.0907V23.0131H105.09C108.401 23.0131 110.279 22.2487 111.521 21.0396C112.796 19.8305 113.303 18.2392 113.303 16.6479C113.303 14.8985 112.41 13.6233 111.264 12.7339C109.897 11.6828 108.052 11.1426 105.983 11.0764V11.0103C107.989 10.7236 109.323 10.0878 110.279 9.23152C111.455 8.18044 111.87 6.77655 111.87 5.56744C111.87 3.94305 111.043 2.67146 109.834 1.84456C108.114 0.694256 106.203 0.440674 103.274 0.440674H94.7111V1.36313C97.0962 1.36313 97.2873 1.52115 97.2873 3.81442V19.6725ZM99.6431 11.7784H103.594C106.203 11.7784 107.956 12.2267 109.07 13.083C110.213 13.943 110.819 15.1815 110.819 16.5817C110.819 18.2392 110.341 19.4189 109.577 20.2127C108.493 21.3263 107.03 21.804 104.77 21.804H100.823C99.8342 21.804 99.6431 21.5799 99.6431 20.2458V11.7784ZM123.888 20.5031C123.09 21.2969 122.01 22.1569 120.448 22.1569C119.492 22.1569 118.827 21.8408 118.346 21.3924C117.868 20.9147 117.647 20.2164 117.647 19.3858C117.647 17.9231 118.537 17.0962 119.779 16.4274C120.959 15.696 122.521 15.2477 123.888 14.8691V20.5031ZM126.085 12.7633C126.085 11.3631 125.861 10.5031 125.034 9.58065C124.237 8.69128 123.123 8.33847 121.212 8.33847C119.525 8.33847 118.412 8.75008 117.581 9.23152C116.563 9.83423 115.927 10.6942 115.927 11.4586C115.927 11.9401 116.21 12.3811 116.817 12.3811C117.489 12.3811 117.772 12.065 117.93 11.6167C118.217 10.9147 118.507 10.3745 118.923 10.0584C119.496 9.61005 120.132 9.32707 121.084 9.32707C122.135 9.32707 122.899 9.64313 123.373 10.2826C123.788 10.8228 123.884 11.7784 123.884 12.5097V13.8805L122.006 14.3289C119.966 14.7736 118.379 15.4094 117.295 16.1444C115.894 17.0668 115.321 18.2135 115.321 19.6798C115.321 20.8889 115.828 21.8114 116.593 22.4178C117.42 23.0867 118.504 23.3733 119.522 23.3733C121.624 23.3733 122.895 22.642 123.976 21.6203H124.071C124.358 22.6714 125.027 23.2447 126.141 23.2447C126.971 23.2447 127.541 23.0536 128.085 22.8L127.894 22.0686C127.64 22.2267 127.35 22.2892 127.037 22.2892C126.398 22.2892 126.082 21.6534 126.082 20.2201V12.7633H126.085ZM142.289 20.1833C142.289 21.9657 142.418 22.2193 143.847 22.2193V23.0168H138.467V22.2193C139.996 22.2193 140.091 22.0319 140.091 20.1208V13.0169C140.091 11.7784 139.933 10.7567 139.327 10.1209C138.912 9.70928 138.338 9.4851 137.482 9.4851C136.144 9.4851 134.711 10.6942 133.436 12.4436V20.1172C133.436 22.0282 133.465 22.2157 134.964 22.2157V23.0131H129.397V22.2157C131.113 22.2157 131.242 22.0282 131.242 20.1172V12.3811C131.242 10.5362 131.084 10.312 129.397 10.3451V9.6468C130.797 9.42262 131.877 9.10289 132.928 8.34214L133.248 8.53325L133.373 10.9845H133.439C134.715 9.36382 136.335 8.34214 138.088 8.34214C139.459 8.34214 140.444 8.69495 141.142 9.36015C141.877 10.0621 142.289 11.2087 142.289 12.8919V20.1833ZM149.749 15.1815L154.303 10.7567C155.163 9.96286 155.387 9.4851 153.858 9.4851V8.69128H158.57V9.4851C157.647 9.51818 157.136 9.73501 156.405 10.4406L153.061 13.6233L157.93 21.0102C158.632 22.1238 159.33 22.2524 160.286 22.2193V23.0168H156.655L151.469 14.9941L149.683 16.7471V20.1208C149.683 21.9657 149.746 22.2193 151.499 22.2193V23.0168H145.578V22.2193C147.423 22.2193 147.486 21.9657 147.486 20.1208V5.0272C147.486 3.1823 147.298 2.96179 145.578 2.96179V2.25985C147.136 2.03567 148.221 1.68653 149.4 0.955189L149.687 1.14262V15.1815H149.749Z" fill="black"/>
</svg>
