<svg width="121" height="37" viewBox="0 0 121 37" fill="none" xmlns="http://www.w3.org/2000/svg">
<path d="M41.7549 35.4777V32.8124C42.2045 33.0693 42.622 33.2727 43.0073 33.4226C43.4141 33.551 43.7994 33.658 44.1633 33.7437C44.5273 33.8293 44.8591 33.8828 45.1588 33.9042C45.4799 33.9256 45.769 33.9363 46.0259 33.9363C46.4968 33.9363 46.9143 33.8935 47.2782 33.8079C47.6422 33.7009 47.9526 33.5403 48.2095 33.3262C48.4664 33.1121 48.6591 32.8552 48.7875 32.5555C48.916 32.2344 48.9802 31.8598 48.9802 31.4316C48.9802 30.875 48.7982 30.4361 48.4343 30.115C48.0703 29.7725 47.6101 29.4834 47.0535 29.248C46.4968 28.9911 45.8974 28.7556 45.2552 28.5415C44.6343 28.306 44.0456 28.0063 43.489 27.6423C42.9324 27.2784 42.4721 26.8181 42.1082 26.2615C41.7442 25.7049 41.5623 24.977 41.5623 24.0779C41.5623 23.3928 41.6907 22.772 41.9476 22.2154C42.2045 21.6374 42.5684 21.1557 43.0394 20.7703C43.5318 20.3636 44.1419 20.0532 44.8698 19.8391C45.5977 19.6036 46.4219 19.4858 47.3425 19.4858C48.2416 19.4858 49.0123 19.5501 49.6545 19.6785C50.3182 19.807 50.7678 19.914 51.0033 19.9996V22.5686C50.5323 22.3759 49.9757 22.2261 49.3334 22.119C48.7126 21.9906 48.0489 21.9264 47.3425 21.9264C46.9357 21.9264 46.5504 21.9585 46.1864 22.0227C45.8439 22.0869 45.5442 22.2047 45.2873 22.3759C45.0304 22.5258 44.827 22.7185 44.6771 22.954C44.5273 23.1895 44.4524 23.4892 44.4524 23.8531C44.4524 24.4097 44.6343 24.8486 44.9983 25.1697C45.3622 25.4694 45.8225 25.737 46.3791 25.9725C46.9357 26.208 47.5244 26.4435 48.1453 26.679C48.7875 26.8931 49.3869 27.1928 49.9435 27.5781C50.5002 27.9635 50.9604 28.4559 51.3244 29.0553C51.6883 29.6547 51.8703 30.4575 51.8703 31.4637C51.8703 32.32 51.7204 33.0586 51.4207 33.6794C51.1424 34.2789 50.7357 34.782 50.2004 35.1887C49.6652 35.5955 49.0337 35.8952 48.3058 36.0879C47.5994 36.2805 46.8073 36.3769 45.9295 36.3769C45.4799 36.3769 45.0518 36.3448 44.645 36.2805C44.2597 36.2377 43.8957 36.1842 43.5532 36.12C43.2107 36.0343 42.8896 35.938 42.5898 35.831C42.2901 35.7239 42.0118 35.6062 41.7549 35.4777Z" fill="black"/>
<path d="M34.841 29.7296V28.6378C34.6912 28.6164 34.5413 28.595 34.3915 28.5736C34.2416 28.5522 34.0489 28.5308 33.8134 28.5094C33.5994 28.488 33.3425 28.4773 33.0427 28.4773C32.743 28.4559 32.3684 28.4452 31.9188 28.4452C30.9983 28.4452 30.2276 28.5094 29.6067 28.6378C29.0073 28.7663 28.5256 28.9482 28.1617 29.1837C27.8192 29.4192 27.573 29.7082 27.4231 30.0508C27.2947 30.3719 27.2304 30.7251 27.2304 31.1105C27.2304 31.4958 27.2947 31.8598 27.4231 32.2023C27.5516 32.5448 27.7442 32.8445 28.0011 33.1014C28.258 33.3583 28.5899 33.5617 28.9966 33.7116C29.4034 33.8614 29.885 33.9363 30.4417 33.9363C31.1695 33.9363 31.8011 33.84 32.3363 33.6473C32.8929 33.4547 33.3532 33.1764 33.7171 32.8124C34.1025 32.4271 34.3808 31.9775 34.552 31.4637C34.7447 30.9499 34.841 30.3719 34.841 29.7296ZM37.5385 26.1652V36.12H35.1622V33.7758H35.0979C34.8839 34.1183 34.6055 34.4501 34.263 34.7713C33.9419 35.071 33.5565 35.3493 33.107 35.6062C32.6788 35.8417 32.1757 36.0236 31.5977 36.1521C31.0411 36.3019 30.4202 36.3769 29.7352 36.3769C28.9003 36.3769 28.151 36.2698 27.4873 36.0558C26.8237 35.8203 26.2564 35.4884 25.7854 35.0603C25.3358 34.6321 24.9826 34.1076 24.7257 33.4868C24.4688 32.8445 24.3403 32.1274 24.3403 31.3353C24.3403 30.5003 24.4795 29.7725 24.7578 29.1516C25.0575 28.5308 25.5071 28.017 26.1065 27.6102C26.7059 27.1821 27.4659 26.8717 28.3865 26.679C29.307 26.4649 30.4095 26.3579 31.694 26.3579C32.1222 26.3579 32.4968 26.3686 32.818 26.39C33.1391 26.4114 33.4281 26.4328 33.685 26.4542C33.9419 26.4756 34.1667 26.497 34.3594 26.5184C34.552 26.5398 34.7126 26.5505 34.841 26.5505V25.4908C34.841 24.87 34.7554 24.3348 34.5841 23.8852C34.4343 23.4356 34.1881 23.0717 33.8456 22.7934C33.5244 22.4937 33.0963 22.2796 32.5611 22.1512C32.0473 22.0013 31.4264 21.9264 30.6986 21.9264C30.3132 21.9264 29.8958 21.9585 29.4462 22.0227C29.018 22.0655 28.5899 22.1405 28.1617 22.2475C27.7335 22.3331 27.3161 22.4402 26.9093 22.5686C26.524 22.6971 26.1707 22.8469 25.8496 23.0182V20.5455C26.1921 20.3957 26.5561 20.2565 26.9414 20.1281C27.3482 19.9996 27.7763 19.8926 28.2259 19.807C28.6755 19.6999 29.1251 19.625 29.5746 19.5822C30.0456 19.518 30.5166 19.4858 30.9876 19.4858C32.2721 19.4858 33.3318 19.6143 34.1667 19.8712C35.0016 20.1281 35.6652 20.5241 36.1576 21.0593C36.6714 21.5945 37.0247 22.2903 37.2173 23.1466C37.4314 23.9816 37.5385 24.9877 37.5385 26.1652Z" fill="black"/>
<path d="M22.5107 19.7424L18.3361 36.1197H14.9643L11.2393 22.3756H11.1751L7.54637 36.1197H4.17459L0 19.7424H2.85799L5.97288 33.3901H6.0371L9.6979 19.7424H13.0055L16.602 33.3901H16.6663L20.0059 19.7424H22.5107Z" fill="black"/>
<path d="M102.144 32.7803V35.2851C101.93 35.4349 101.663 35.5848 101.342 35.7346C101.021 35.8631 100.646 35.9808 100.218 36.0879C99.811 36.1735 99.3614 36.2377 98.869 36.2805C98.3766 36.3448 97.8521 36.3769 97.2955 36.3769C95.8612 36.3769 94.6088 36.1842 93.5384 35.7989C92.468 35.4135 91.5795 34.8569 90.8731 34.129C90.188 33.4011 89.6742 32.5127 89.3317 31.4637C88.9891 30.4147 88.8179 29.2158 88.8179 27.8671C88.8179 26.6041 88.9784 25.4587 89.2996 24.4311C89.6421 23.4035 90.1345 22.5258 90.7767 21.7979C91.419 21.0486 92.1897 20.4813 93.0888 20.096C94.0093 19.6892 95.0476 19.4858 96.2037 19.4858C97.531 19.4858 98.6442 19.6999 99.5434 20.1281C100.464 20.5562 101.202 21.145 101.759 21.8943C102.337 22.6221 102.755 23.4892 103.011 24.4953C103.268 25.5015 103.397 26.5826 103.397 27.7387V28.6057H91.6437C91.708 29.5049 91.8685 30.2863 92.1254 30.9499C92.4037 31.6136 92.7784 32.1702 93.2494 32.6197C93.7417 33.0479 94.3305 33.3797 95.0155 33.6152C95.722 33.8293 96.5569 33.9363 97.5203 33.9363C98.0983 33.9363 98.6121 33.9042 99.0617 33.84C99.5112 33.7758 99.918 33.7009 100.282 33.6152C100.667 33.5082 101.01 33.3797 101.31 33.2299C101.609 33.08 101.888 32.9302 102.144 32.7803ZM91.6759 26.3579H100.507C100.528 25.737 100.453 25.159 100.282 24.6238C100.111 24.0672 99.8538 23.5962 99.5112 23.2109C99.1687 22.8041 98.7298 22.4937 98.1946 22.2796C97.6594 22.0441 97.0386 21.9264 96.3321 21.9264C95.6471 21.9264 95.0262 22.0227 94.4696 22.2154C93.9344 22.4081 93.4741 22.6971 93.0888 23.0824C92.7035 23.4463 92.393 23.9066 92.1575 24.4632C91.9221 24.9984 91.7615 25.63 91.6759 26.3579Z" fill="black"/>
<path d="M115.188 22.5745V36.1419H112.158V22.5745H106.889V19.8237H120.457V22.5745H115.188Z" fill="black"/>
<path d="M86.3905 33.3912V36.1419H75.7371V19.8237H78.7676V33.3912H86.3905Z" fill="black"/>
<path d="M70.5478 19.8237V36.1419H67.5172V29.0785H59.0784V36.1419H56.0479V19.8237H59.0784V26.3976H67.5172V19.8237H70.5478Z" fill="black"/>
<circle cx="96.2818" cy="14.4038" r="2.14872" fill="black"/>
<circle cx="99.3787" cy="8.71586" r="2.14872" fill="black"/>
<path d="M43.1626 11.7754V10.3623H41.5611C41.1842 10.3623 40.8074 10.1739 40.8074 9.70291V1.978H41.6553C43.2568 1.978 44.0104 3.20268 44.0104 4.70998V4.89839H45.6119V0.470703H33.0825V4.80419H34.684V4.70998C34.684 3.20268 35.4377 1.978 37.0392 1.978H37.9812V9.79711C37.9812 10.2681 37.6044 10.4566 37.2276 10.4566H35.5319V11.8696H43.1626V11.7754Z" fill="black"/>
<path d="M57.5763 1.13047C56.4458 0.282619 54.3733 0 53.1486 0C51.9239 0 49.9456 0.282619 48.7209 1.13047C47.5904 1.97833 46.46 3.57983 46.46 6.1234C46.46 8.66697 47.5904 10.1743 48.7209 11.1163C49.8514 11.9642 51.9239 12.2468 53.1486 12.2468C54.3733 12.2468 56.3516 11.9642 57.5763 11.1163C58.7068 10.2685 59.9314 8.66697 59.9314 6.1234C59.8372 3.57983 58.7068 2.07254 57.5763 1.13047ZM55.7864 9.60903C55.2211 10.3627 54.1849 10.8337 53.2428 10.8337C52.3007 10.8337 51.2645 10.4569 50.6992 9.60903C50.134 8.85538 49.8514 7.34808 49.8514 6.1234C49.8514 4.89872 50.134 3.39142 50.6992 2.63777C51.2645 1.88412 52.3007 1.41309 53.2428 1.41309C54.2791 1.41309 55.2211 1.78992 55.7864 2.63777C56.3516 3.39142 56.6342 4.89872 56.6342 6.1234C56.6342 7.25387 56.3516 8.85538 55.7864 9.60903Z" fill="black"/>
<path d="M70.9529 11.7754V10.3623H69.3514C68.9746 10.3623 68.5977 10.1739 68.5977 9.70291V1.978H69.4456C71.0471 1.978 71.8007 3.20268 71.8007 4.70998V4.89839H73.4023V0.470703H60.967V4.80419H62.5685V4.70998C62.5685 3.20268 63.3222 1.978 64.9237 1.978H65.7716V9.79711C65.7716 10.2681 65.3947 10.4566 65.0179 10.4566H63.4164V11.8696H70.9529V11.7754Z" fill="black"/>
<path d="M85.4608 1.13047C84.3303 0.282619 82.2578 0 81.0331 0C79.8084 0 77.8301 0.282619 76.6054 1.13047C75.475 1.97833 74.3445 3.57983 74.3445 6.1234C74.3445 8.66697 75.475 10.1743 76.6054 11.1163C77.7359 11.9642 79.8084 12.2468 81.0331 12.2468C82.2578 12.2468 84.2361 11.9642 85.4608 11.1163C86.5913 10.2685 87.7218 8.66697 87.7218 6.1234C87.7218 3.57983 86.5913 2.07254 85.4608 1.13047ZM83.5767 9.60903C83.0114 10.3627 82.0694 10.7395 81.0331 10.7395C79.9969 10.7395 79.0548 10.3627 78.4896 9.51482C77.9243 8.76117 77.6417 7.25387 77.6417 6.02919C77.6417 4.80451 77.9243 3.29722 78.4896 2.54357C79.0548 1.78992 80.0911 1.31889 81.0331 1.31889C81.9752 1.31889 83.0114 1.69571 83.5767 2.54357C84.1419 3.29722 84.4245 4.80451 84.4245 6.02919C84.5187 7.25387 84.2361 8.85538 83.5767 9.60903Z" fill="black"/>
</svg>
