<svg width="125" height="10" viewBox="0 0 125 10" fill="none" xmlns="http://www.w3.org/2000/svg">
<path d="M2.11776 1.6095L6.40169 9.40286H11.3633L15.5988 1.6095H17.7045V0.193624H11.3512V1.6095H13.1785L10.1169 7.2972L6.99467 1.6095H9.23344V0.193624H0V1.6095H2.11776ZM56.8044 1.6095V0.193624H65.3118V1.6095H63.194V7.97489H65.1545C66.9697 7.97489 68.1798 6.76474 68.1798 5.13103H69.5715V9.40286H56.8044V7.97489H58.9464V1.5974H56.8044V1.6095ZM36.1593 0C31.8874 0 29.6245 2.12986 29.6245 4.80429C29.6245 7.47872 31.8027 9.6812 36.1835 9.6812C40.5763 9.6812 42.7304 7.51503 42.7304 4.80429C42.7304 2.09356 40.4311 0 36.1593 0ZM36.1109 8.21692C34.5498 8.19271 33.8721 6.4622 33.8963 4.75589C33.9326 2.97697 34.7797 1.42798 36.244 1.45218C37.6962 1.47638 38.4707 3.04958 38.4465 4.8406C38.4101 6.4985 37.7204 8.24112 36.1109 8.22902V8.21692ZM84.0933 1.6095L88.3893 9.40286H93.3509L97.5744 1.6095H99.6921V0.193624H93.3267V1.6095H95.1662L92.0924 7.2972L88.9823 1.6095H91.209V0.193624H81.9755V1.6095H84.0933ZM118.147 0C113.875 0 111.612 2.12986 111.612 4.80429C111.612 7.47872 113.778 9.6812 118.159 9.6812C122.54 9.6812 124.694 7.51503 124.694 4.80429C124.694 2.09356 122.431 0 118.159 0H118.147ZM118.099 8.21692C116.537 8.19271 115.848 6.4622 115.884 4.75589C115.92 2.97697 116.767 1.42798 118.22 1.45218C119.684 1.47638 120.458 3.04958 120.422 4.8406C120.398 6.4985 119.696 8.24112 118.099 8.22902V8.21692Z" fill="black"/>
</svg>
