<svg width="411" height="80" viewBox="0 0 411 80" fill="none" xmlns="http://www.w3.org/2000/svg">
<rect width="195.714" height="80" fill="black"/>
<path d="M88.0948 53.3512C85.0255 53.3512 82.7212 52.5953 81.1764 51.0818C79.6317 49.5682 78.8593 47.2896 78.8593 44.2423V36.7406C78.8593 33.6511 79.6372 31.3395 81.1911 29.8057C82.7469 28.272 85.0567 27.5051 88.126 27.5051C91.1953 27.5051 93.4629 28.272 94.9985 29.8057C96.5322 31.3395 97.2991 33.6511 97.2991 36.7406V44.2423C97.2991 47.2896 96.5322 49.5701 94.9985 51.0818C93.4647 52.5953 91.1623 53.3512 88.0948 53.3512ZM88.0948 50.8928C90.4486 50.8928 92.1236 50.3883 93.1235 49.3793C94.1215 48.3702 94.6205 46.7007 94.6205 44.3671V36.6122C94.6205 34.2382 94.1215 32.5356 93.1235 31.5064C92.1255 30.4772 90.4486 29.9617 88.0948 29.9617C85.741 29.9617 84.0329 30.4772 83.0349 31.5064C82.0369 32.5356 81.5379 34.2382 81.5379 36.6122V44.3671C81.5379 46.6989 82.0369 48.3702 83.0349 49.3793C84.0329 50.3883 85.719 50.8928 88.0948 50.8928Z" fill="white"/>
<path d="M109.013 53.3512C105.819 53.3512 103.481 52.5164 101.999 50.8451C100.517 49.1738 99.7773 47.0364 99.7773 44.4313V27.8188H102.456V44.5579C102.456 46.4916 102.893 48.0418 103.764 49.2068C104.635 50.3736 106.386 50.957 109.013 50.957C111.64 50.957 113.357 50.3736 114.23 49.2068C115.102 48.04 115.539 46.4916 115.539 44.5579V27.8188H118.219V44.4313C118.219 47.0364 117.478 49.1756 115.997 50.8451C114.515 52.5164 112.189 53.3512 109.015 53.3512H109.013Z" fill="white"/>
<path d="M123.158 53.0356H120.48V27.8188H131.229C133.856 27.8188 135.81 28.3546 137.092 29.426C138.375 30.4974 139.015 32.1577 139.015 34.407V36.2984C139.015 38.3367 138.494 39.9126 137.454 41.0262C136.413 42.1399 134.832 42.8132 132.709 43.0443L139.202 53.0375H136.144L129.682 43.0773H123.156V53.0375L123.158 53.0356ZM123.158 40.6795H131.418C133.183 40.6795 134.443 40.3438 135.201 39.6705C135.956 38.999 136.334 37.8744 136.334 36.2984V34.3446C136.334 32.8952 135.956 31.855 135.201 31.2239C134.445 30.5928 133.183 30.2791 131.418 30.2791H123.158V40.6813V40.6795Z" fill="white"/>
<path d="M158.856 53.0356L155.956 45.4697H144.829L141.928 53.0356H139.123L149.147 27.8188H151.701L161.757 53.0356H158.856ZM155.042 43.0131L150.408 30.8772L145.774 43.0131H155.04H155.042Z" fill="white"/>
<path d="M166.902 53.0355H164.224V43.5781L155.239 27.8169H158.298L165.737 40.9931L172.799 27.8169H175.857L166.904 43.5781V53.0355H166.902Z" fill="white"/>
<path d="M173.96 53.2889C173.32 53.2889 172.856 53.1311 172.568 52.8174C172.28 52.5036 172.137 52.0964 172.137 51.5973V50.5186C172.137 50.0104 172.281 49.5994 172.57 49.2821C172.859 48.9665 173.324 48.8069 173.964 48.8069C174.604 48.8069 175.068 48.9647 175.356 49.2821C175.644 49.5994 175.787 50.0104 175.787 50.5186V51.5973C175.787 52.0964 175.642 52.5036 175.354 52.8174C175.066 53.1311 174.6 53.2889 173.96 53.2889ZM173.96 52.9329C174.551 52.9329 174.94 52.8064 175.127 52.555C175.314 52.3037 175.408 51.9588 175.408 51.5221V50.592C175.408 50.1682 175.314 49.8214 175.127 49.5554C174.94 49.2894 174.551 49.1555 173.96 49.1555C173.369 49.1555 172.982 49.2894 172.797 49.5554C172.612 49.8214 172.52 50.1663 172.52 50.592V51.5221C172.52 51.9588 172.612 52.3037 172.797 52.555C172.982 52.8064 173.369 52.9329 173.96 52.9329ZM173.56 52.1349H173.204V49.926H174.134C174.314 49.926 174.479 49.9755 174.633 50.0764C174.788 50.1773 174.865 50.3535 174.865 50.6066V50.7809C174.865 50.9846 174.81 51.1332 174.699 51.2267C174.589 51.3203 174.463 51.3772 174.322 51.3992L174.89 52.1349H174.478L173.922 51.4102H173.56V52.1349ZM173.56 51.0543H174.147C174.235 51.0543 174.316 51.0378 174.393 51.0048C174.47 50.9717 174.509 50.8965 174.509 50.7809V50.6066C174.509 50.4727 174.47 50.3847 174.393 50.3388C174.316 50.2929 174.234 50.2709 174.147 50.2709H173.56V51.058V51.0543Z" fill="white"/>
<path d="M79.5618 53.3513H68.466L59.2085 36.6911L64.7711 26.6484L79.5618 53.3513Z" fill="white"/>
<path d="M51.8807 38.9387L43.8726 53.3514H35.8571L47.8922 31.7947L51.8807 38.9387Z" fill="white"/>
<path d="M57.7405 39.3383L56.1682 36.5093L53.3539 41.5765L46.8116 53.3511H49.9782H59.9273H65.5266L57.7405 39.3383Z" fill="white"/>
<path d="M65.5266 53.3511H46.8116L56.1682 36.5093L65.5266 53.3511Z" fill="white"/>
<path d="M194.714 80C199.985 80 204.861 77.2098 207.532 72.6662L249.401 1.43238C249.773 0.798632 249.316 -2.35251e-06 248.581 -2.29322e-06L194.714 2.05091e-06L194.714 80Z" fill="black"/>
</svg>
