<svg width="411" height="80" viewBox="0 0 411 80" fill="none" xmlns="http://www.w3.org/2000/svg">
<rect width="195.714" height="80" fill="black"/>
<path d="M38.2349 36.3723L43.0446 45.1222H48.6153L53.3707 36.3723H55.7349V34.7826H48.6017V36.3723H50.6533L47.2158 42.7581L43.7104 36.3723H46.224V34.7826H35.8571V36.3723H38.2349ZM99.6343 36.3723V34.7826H109.186V36.3723H106.808V43.519H109.009C111.047 43.519 112.406 42.1603 112.406 40.3261H113.969V45.1222H99.6343V43.519H102.039V36.3587H99.6343V36.3723ZM76.455 34.5652C71.6588 34.5652 69.118 36.9565 69.118 39.9592C69.118 42.9619 71.5637 45.4347 76.4821 45.4347C81.4142 45.4347 83.8327 43.0027 83.8327 39.9592C83.8327 36.9157 81.2512 34.5652 76.455 34.5652ZM76.4006 43.7907C74.6479 43.7636 73.887 41.8206 73.9142 39.9049C73.955 37.9076 74.9061 36.1684 76.5501 36.1956C78.1805 36.2228 79.0501 37.9891 79.0229 40C78.9821 41.8614 78.2077 43.8179 76.4006 43.8043V43.7907ZM130.273 36.3723L135.096 45.1222H140.667L145.409 36.3723H147.786V34.7826H140.64V36.3723H142.705L139.254 42.7581L135.762 36.3723H138.262V34.7826H127.895V36.3723H130.273ZM168.507 34.5652C163.71 34.5652 161.17 36.9565 161.17 39.9592C161.17 42.9619 163.602 45.4347 168.52 45.4347C173.439 45.4347 175.857 43.0027 175.857 39.9592C175.857 36.9157 173.316 34.5652 168.52 34.5652H168.507ZM168.452 43.7907C166.7 43.7636 165.925 41.8206 165.966 39.9049C166.007 37.9076 166.958 36.1684 168.588 36.1956C170.232 36.2228 171.102 37.9891 171.061 40C171.034 41.8614 170.246 43.8179 168.452 43.8043V43.7907Z" fill="white"/>
<path d="M194.714 80C199.985 80 204.861 77.2098 207.532 72.6662L249.401 1.43238C249.773 0.798632 249.316 -2.35251e-06 248.581 -2.29322e-06L194.714 2.05091e-06L194.714 80Z" fill="black"/>
</svg>
