<svg width="411" height="80" viewBox="0 0 411 80" fill="none" xmlns="http://www.w3.org/2000/svg">
<rect width="195.714" height="80" fill="black"/>
<path d="M97.7621 24.8521L101.921 40.916L106.977 24.8521H111.926L116.643 40.916L121.144 24.8521H127.634L119.995 49.7115H113.684L109.308 35.3251L104.718 49.7115H98.407L91.2717 24.8521H97.7621Z" fill="white"/>
<path d="M143.378 42.1918H131.436C131.066 45.9894 136.373 47.5397 137.897 43.9127L142.273 46.4579C140.428 49.9894 135.317 51.0596 131.329 49.7494C126.374 48.3321 124.535 41.6625 126.38 37.2228C128.034 32.6326 133.119 30.9898 137.729 32.3694C141.822 33.4772 143.702 38.2842 143.378 42.1889V42.1918ZM138.108 38.6342C137.602 34.9668 131.974 34.9552 131.618 38.6342H138.108Z" fill="white"/>
<path d="M151.118 23.3979V49.7123H145.379V23.3979H151.118Z" fill="white"/>
<path d="M159.92 23.3979V49.7123H154.181V23.3979H159.92Z" fill="white"/>
<path d="M163.132 43.9715C164.885 45.166 167.52 46.3721 169.51 45.2094C170.187 44.5181 169.701 43.4017 168.784 43.2368C166.965 42.6237 164.729 42.6873 163.323 41.111C161.487 39.1905 162.111 35.7284 163.821 33.9207C166.652 31.1238 172.078 31.5027 175.39 32.9547L173.328 36.8998C172.029 36.304 170.051 35.6098 168.709 36.3965C167.884 36.8217 168.067 37.9931 168.9 38.2129C170.678 38.7653 173.099 38.9996 174.551 40.3792C176.588 42.4068 176.084 46.3461 174.132 48.1104C170.404 51.3353 165.183 50.7655 160.96 48.2666L163.135 43.9744L163.132 43.9715Z" fill="white"/>
<path d="M67.1782 32.8844L64.5751 30.585H52.4041L49.7982 32.8844H67.1782Z" fill="white"/>
<path d="M62.9346 29.1389L58.4891 25.2112L54.0406 29.1389H62.9346Z" fill="white"/>
<path d="M78.5967 49.2438C79.3111 47.7109 79.8578 46.0854 80.2106 44.3876L67.2125 32.9138V49.2438H78.5938H78.5967Z" fill="white"/>
<path d="M49.4016 49.2426V33.2336L36.4064 44.7046C36.7592 46.2867 37.2799 47.8051 37.9509 49.2426H49.4045H49.4016Z" fill="white"/>
<path d="M60.0809 45.0461H56.2283V47.9558H54.7764V45.0461H52.0229V43.5942H54.7764V39.7069H52.0229V38.255H54.7764V35.999H56.2283V38.255H60.0809V34.333H50.8544V49.2429H60.0809V45.0461Z" fill="white"/>
<path d="M65.7609 39.7078H61.5294V43.595H65.7609V39.7078Z" fill="white"/>
<path d="M65.7609 34.333H61.5294V38.255H65.7609V34.333Z" fill="white"/>
<path d="M65.7609 45.0469H61.5294V49.2436H65.7609V45.0469Z" fill="white"/>
<path d="M60.0798 39.7078H56.2272V43.595H60.0798V39.7078Z" fill="white"/>
<path d="M58.2004 22.3794L58.452 22.096L58.4867 22.1278L63.2359 17.9339C61.6364 17.5724 59.9762 17.3757 58.2698 17.3757C45.8935 17.3728 35.8571 27.4092 35.8571 39.7883C35.8571 40.5374 35.8947 41.2778 35.967 42.0067L58.2004 22.3794Z" fill="white"/>
<path d="M60.2354 23.6696L80.6002 41.6483C80.6494 41.0351 80.6841 40.4162 80.6841 39.7885C80.6841 30.0761 74.5061 21.8099 65.8667 18.6978L60.2354 23.6696Z" fill="white"/>
<path d="M77.8744 50.6636C74.0449 57.5444 66.7042 62.201 58.2731 62.201C49.8419 62.201 42.5012 57.5444 38.6776 50.6636H77.8744Z" fill="white"/>
<path d="M84.673 55.5034V60.7993H84.0569V55.5034H84.673Z" fill="white"/>
<path d="M85.7027 57.501H86.3187V57.8827C86.7613 57.2869 87.843 57.2522 88.2826 57.8741C88.6644 58.4005 88.4099 60.1706 88.4793 60.7953H87.8632C87.7418 60.2111 88.1901 58.305 87.4843 57.9926C85.8907 57.4923 86.391 59.9479 86.3158 60.7953H85.6998V57.501H85.7027Z" fill="white"/>
<path d="M90.7888 58.2648C90.5921 57.6372 89.4959 58.0305 90.0223 58.5714C90.9305 58.8606 92.1279 59.6705 91.1503 60.6105C90.514 61.1369 89.3629 60.9171 89.0997 60.0494L89.6145 59.844C89.7967 60.7609 91.3933 60.3299 90.7223 59.523C90.3578 59.2713 89.7649 59.1528 89.4815 58.8288C88.6918 57.643 90.7743 56.8013 91.2776 58.019L90.7859 58.2648H90.7888Z" fill="white"/>
<path d="M92.6594 59.4244C92.4887 60.2082 93.4837 60.7375 94.0101 60.1301C94.3369 59.6934 94.1084 58.0216 94.172 57.5039H94.7881C94.7303 58.6319 95.2306 60.9949 93.4143 60.8937C91.6008 60.9978 92.0982 58.629 92.0404 57.5039H92.6565V59.4244H92.6594Z" fill="white"/>
<path d="M95.67 57.5017H96.286V57.8575C96.5464 57.4265 97.1451 57.3021 97.5847 57.5567L97.3041 58.0715C95.8204 57.4149 96.3931 60.0556 96.286 60.7932H95.67V57.4988V57.5017Z" fill="white"/>
<path d="M100.339 57.5016H100.955V60.796H100.339V60.3361C99.4048 61.5248 97.3599 60.66 97.4929 59.1445C97.357 57.6347 99.4163 56.8046 100.339 57.9702V57.5016ZM99.2312 57.9326C97.7503 57.8747 97.7388 60.4402 99.2312 60.3853C100.744 60.4257 100.724 57.8863 99.2312 57.9326Z" fill="white"/>
<path d="M101.835 57.501H102.451V57.8827C102.893 57.2869 103.975 57.2522 104.415 57.8741C104.796 58.4005 104.542 60.1706 104.611 60.7953H103.995C103.874 60.2111 104.322 58.305 103.616 57.9926C102.023 57.4923 102.523 59.9479 102.448 60.7953H101.832V57.501H101.835Z" fill="white"/>
<path d="M108.199 58.4243C105.162 56.1769 105.214 62.1756 108.225 59.8704V60.553C104.399 62.4562 104.39 55.908 108.199 57.7417V58.4243Z" fill="white"/>
<path d="M111.952 59.9534C110.966 61.8768 107.923 60.5492 108.791 58.4812C109.413 56.6793 112.265 57.3648 111.978 59.2622H109.291C109.236 60.4914 111.012 60.7806 111.455 59.6902L111.955 59.9534H111.952ZM111.362 58.7878C111.206 57.6598 109.488 57.6714 109.332 58.7878H111.362Z" fill="white"/>
<path d="M116.96 56.5494C116.139 54.9528 113.886 56.9138 115.87 57.5819C116.324 57.7844 116.897 57.9579 117.258 58.305C119.06 60.4742 114.661 62.172 114.181 59.5284L114.765 59.3694C115.346 61.7787 118.676 59.2045 116.098 58.305C112.584 57.3766 115.598 53.7525 117.452 56.2399L116.96 56.5494Z" fill="white"/>
<path d="M119.004 62.6235H118.388V57.5041H119.004V57.964C119.988 56.7723 121.949 57.6979 121.85 59.1701C121.966 60.6567 119.93 61.5273 119.004 60.3357V62.6206V62.6235ZM120.121 60.3849C121.61 60.4196 121.573 57.9032 120.112 57.9322C118.62 57.9061 118.608 60.4253 120.121 60.3849Z" fill="white"/>
<path d="M125.58 59.9534C124.594 61.8768 121.551 60.5492 122.419 58.4812C123.04 56.6793 125.892 57.3648 125.606 59.2622H122.919C122.864 60.4914 124.64 60.7806 125.082 59.6902L125.583 59.9534H125.58ZM124.987 58.7878C124.831 57.6598 123.113 57.6714 122.957 58.7878H124.987Z" fill="white"/>
<path d="M128.973 58.4243C125.936 56.1769 125.988 62.1756 128.999 59.8704V60.553C125.172 62.4562 125.163 55.908 128.973 57.7417V58.4243Z" fill="white"/>
<path d="M129.555 56.2549C129.549 55.7285 130.408 55.7285 130.403 56.2549C130.408 56.7813 129.549 56.7813 129.555 56.2549ZM130.281 57.5015V60.7959H129.665V57.5015H130.281Z" fill="white"/>
<path d="M133.774 57.5016H134.39V60.796H133.774V60.3361C132.84 61.5248 130.795 60.66 130.928 59.1445C130.792 57.6347 132.851 56.8046 133.774 57.9702V57.5016ZM132.666 57.9326C131.185 57.8747 131.174 60.4402 132.666 60.3853C134.179 60.4257 134.159 57.8863 132.666 57.9326Z" fill="white"/>
<path d="M135.885 55.0107V60.7983H135.269V55.0107H135.885Z" fill="white"/>
<path d="M136.644 56.2549C136.638 55.7285 137.497 55.7285 137.491 56.2549C137.497 56.7813 136.638 56.7813 136.644 56.2549ZM137.367 57.5015V60.7959H136.751V57.5015H137.367Z" fill="white"/>
<path d="M139.654 58.2648C139.457 57.6372 138.361 58.0305 138.887 58.5714C139.795 58.8606 140.993 59.6705 140.015 60.6105C139.379 61.1369 138.228 60.9171 137.965 60.0494L138.479 59.844C138.662 60.7609 140.258 60.3299 139.587 59.523C139.223 59.2713 138.63 59.1528 138.346 58.8288C137.56 57.643 139.639 56.8013 140.142 58.019L139.651 58.2648H139.654Z" fill="white"/>
<path d="M141.544 58.0416V60.7951H140.928V58.0416H140.56V57.5007H140.928V56.3091H141.544V57.5007H142.125V58.0416H141.544Z" fill="white"/>
<path d="M142.407 60.4811C142.407 59.9663 143.237 59.9663 143.24 60.4811C143.24 60.9959 142.41 60.9959 142.407 60.4811Z" fill="white"/>
<path d="M145.927 55.5023C151.466 54.7561 151.463 61.5385 145.927 60.7981V55.5023ZM146.543 60.2572C150.369 60.7692 150.398 55.5572 146.543 56.0431V60.2572Z" fill="white"/>
<path d="M150.676 56.2549C150.67 55.7285 151.529 55.7285 151.523 56.2549C151.529 56.7813 150.67 56.7813 150.676 56.2549ZM151.402 57.5015V60.7959H150.786V57.5015H151.402Z" fill="white"/>
<path d="M152.438 57.502L153.47 59.7233L154.503 57.502H155.168L153.47 61.0103L151.773 57.502H152.438Z" fill="white"/>
<path d="M158.604 59.9551C157.618 61.8785 154.575 60.5509 155.443 58.4829C156.065 56.6839 158.917 57.3665 158.631 59.2638H155.944C155.889 60.4931 157.664 60.7823 158.107 59.6919L158.607 59.9551H158.604ZM158.014 58.7895C157.858 57.6615 156.14 57.6731 155.984 58.7895H158.014Z" fill="white"/>
<path d="M159.296 57.5017H159.912V57.8575C160.172 57.4265 160.771 57.3021 161.211 57.5567L160.933 58.0715C159.449 57.4149 160.022 60.0556 159.915 60.7932H159.299V57.4988L159.296 57.5017Z" fill="white"/>
<path d="M162.842 58.2648C162.645 57.6372 161.549 58.0305 162.076 58.5714C162.984 58.8606 164.181 59.6705 163.204 60.6105C162.567 61.1369 161.416 60.9171 161.153 60.0494L161.668 59.844C161.85 60.7609 163.447 60.3299 162.775 59.523C162.411 59.2713 161.818 59.1528 161.535 58.8288C160.748 57.643 162.828 56.8013 163.331 58.019L162.839 58.2648H162.842Z" fill="white"/>
<path d="M163.988 56.2549C163.982 55.7285 164.841 55.7285 164.835 56.2549C164.841 56.7813 163.982 56.7813 163.988 56.2549ZM164.713 57.5015V60.7959H164.097V57.5015H164.713Z" fill="white"/>
<path d="M166.207 58.0416V60.7951H165.591V58.0416H165.259V57.5007H165.591C165.557 56.4768 165.374 54.4406 167.037 54.9902V55.531C165.814 55.0017 166.294 56.8933 166.204 57.5007H167.052V58.0416H166.204H166.207Z" fill="white"/>
<path d="M167.216 56.2549C167.21 55.7285 168.069 55.7285 168.063 56.2549C168.069 56.7813 167.21 56.7813 167.216 56.2549ZM167.942 57.5015V60.7959H167.326V57.5015H167.942Z" fill="white"/>
<path d="M171.866 59.9551C170.88 61.8785 167.837 60.5509 168.705 58.4829C169.326 56.6839 172.178 57.3665 171.892 59.2638H169.205C169.15 60.4931 170.926 60.7823 171.368 59.6919L171.869 59.9551H171.866ZM171.276 58.7895C171.12 57.6615 169.402 57.6731 169.246 58.7895H171.276Z" fill="white"/>
<path d="M175.185 55.0107H175.801V60.7983H175.185V60.3384C174.251 61.5271 172.206 60.6623 172.339 59.1468C172.203 57.637 174.263 56.8069 175.185 57.9725V55.0107ZM174.078 57.932C172.597 57.8741 172.585 60.4396 174.078 60.3847C175.59 60.4252 175.57 57.8857 174.078 57.932Z" fill="white"/>
<path d="M194.714 80C199.985 80 204.861 77.2098 207.532 72.6662L249.401 1.43238C249.773 0.798632 249.316 -2.35251e-06 248.581 -2.29322e-06L194.714 2.05091e-06L194.714 80Z" fill="black"/>
</svg>
